<svg width="282" height="396" viewBox="0 0 282 396" fill="none" xmlns="http://www.w3.org/2000/svg">
<rect x="1" y="1" width="280" height="394" rx="20" fill="white"/>
<rect x="0.5" y="0.5" width="281" height="395" rx="20.5" stroke="black" stroke-opacity="0.05"/>
<path d="M244.121 362.016C244.121 360.596 244.499 359.333 245.254 358.227C245.996 357.12 247.005 356.254 248.281 355.629C246.797 354.991 245.625 354.06 244.766 352.836C243.893 351.612 243.457 350.225 243.457 348.676C243.457 346.215 244.29 344.255 245.957 342.797C247.611 341.339 249.792 340.609 252.5 340.609C255.234 340.609 257.428 341.339 259.082 342.797C260.723 344.268 261.543 346.228 261.543 348.676C261.543 350.212 261.126 351.599 260.293 352.836C259.447 354.073 258.281 355.01 256.797 355.648C258.06 356.273 259.056 357.139 259.785 358.246C260.514 359.353 260.879 360.609 260.879 362.016C260.879 364.411 260.111 366.312 258.574 367.719C257.038 369.125 255.013 369.828 252.5 369.828C250 369.828 247.982 369.125 246.445 367.719C244.896 366.312 244.121 364.411 244.121 362.016ZM247.07 348.754C247.07 350.342 247.578 351.638 248.594 352.641C249.596 353.643 250.911 354.145 252.539 354.145C254.167 354.145 255.475 353.65 256.465 352.66C257.441 351.671 257.93 350.368 257.93 348.754C257.93 347.139 257.454 345.87 256.504 344.945C255.54 344.021 254.206 343.559 252.5 343.559C250.807 343.559 249.479 344.021 248.516 344.945C247.552 345.883 247.07 347.152 247.07 348.754ZM252.5 366.859C253.919 366.859 255.072 366.417 255.957 365.531C256.829 364.659 257.266 363.467 257.266 361.957C257.266 360.512 256.836 359.34 255.977 358.441C255.104 357.556 253.945 357.113 252.5 357.113C251.055 357.113 249.902 357.556 249.043 358.441C248.171 359.34 247.734 360.512 247.734 361.957C247.734 363.402 248.184 364.581 249.082 365.492C249.98 366.404 251.12 366.859 252.5 366.859Z" fill="#F24822"/>
<path d="M253.18 326.677L262.706 315.824C263.098 315.377 263.098 314.623 262.706 314.176L253.18 303.323C252.998 303.115 252.756 303 252.5 303C252.244 303 252.002 303.115 251.82 303.323L242.294 314.176C241.902 314.623 241.902 315.377 242.294 315.824L251.82 326.677C252.002 326.885 252.244 327 252.5 327C252.756 327 252.998 326.885 253.18 326.677Z" fill="#F24822"/>
<path d="M137.566 139.629L89.4835 194.347C87.5055 196.598 87.5055 200.403 89.4835 202.654L137.566 257.372C138.488 258.422 139.708 259 141 259C142.292 259 143.513 258.422 144.434 257.372L192.517 202.654C194.494 200.403 194.494 196.598 192.517 194.347L144.434 139.629C143.513 138.578 142.292 138 141 138C139.708 138 138.489 138.578 137.566 139.629Z" fill="#F24822"/>
<g style="mix-blend-mode:lighten">
<rect x="78" y="138" width="63" height="121" fill="white" fill-opacity="0.2"/>
</g>
<path d="M37.8789 33.9844C37.8789 35.4036 37.5013 36.6667 36.7461 37.7734C36.0039 38.8802 34.9948 39.7461 33.7188 40.3711C35.2031 41.0091 36.375 41.9401 37.2344 43.1641C38.1068 44.388 38.543 45.7747 38.543 47.3242C38.543 49.7852 37.7096 51.7448 36.043 53.2031C34.3893 54.6615 32.2083 55.3906 29.5 55.3906C26.7656 55.3906 24.5716 54.6615 22.918 53.2031C21.2773 51.7318 20.457 49.7721 20.457 47.3242C20.457 45.7878 20.8737 44.401 21.707 43.1641C22.5534 41.9271 23.7188 40.9896 25.2031 40.3516C23.9401 39.7266 22.944 38.8607 22.2148 37.7539C21.4857 36.6471 21.1211 35.3906 21.1211 33.9844C21.1211 31.5885 21.8893 29.6875 23.4258 28.2812C24.9622 26.875 26.987 26.1719 29.5 26.1719C32 26.1719 34.0182 26.875 35.5547 28.2812C37.1042 29.6875 37.8789 31.5885 37.8789 33.9844ZM34.9297 47.2461C34.9297 45.6576 34.4219 44.362 33.4062 43.3594C32.4036 42.3568 31.0885 41.8555 29.4609 41.8555C27.8333 41.8555 26.5247 42.3503 25.5352 43.3398C24.5586 44.3294 24.0703 45.6315 24.0703 47.2461C24.0703 48.8607 24.5456 50.1302 25.4961 51.0547C26.4596 51.9792 27.7943 52.4414 29.5 52.4414C31.1927 52.4414 32.5208 51.9792 33.4844 51.0547C34.4479 50.1172 34.9297 48.8477 34.9297 47.2461ZM29.5 29.1406C28.0807 29.1406 26.9284 29.5833 26.043 30.4688C25.1706 31.3411 24.7344 32.5326 24.7344 34.043C24.7344 35.4883 25.1641 36.6602 26.0234 37.5586C26.8958 38.444 28.0547 38.8867 29.5 38.8867C30.9453 38.8867 32.0977 38.444 32.957 37.5586C33.8294 36.6602 34.2656 35.4883 34.2656 34.043C34.2656 32.5977 33.8164 31.4193 32.918 30.5078C32.0195 29.5964 30.8802 29.1406 29.5 29.1406Z" fill="#F24822"/>
<path d="M28.8196 69.3231L19.2939 80.1763C18.902 80.6228 18.902 81.3774 19.2939 81.8239L28.8196 92.6771C29.0023 92.8853 29.244 93 29.5 93C29.756 93 29.9978 92.8853 30.1804 92.6771L39.7062 81.8239C40.0979 81.3774 40.0979 80.6228 39.7062 80.1763L30.1804 69.3231C29.9978 69.1147 29.756 69 29.5 69C29.244 69 29.0025 69.1147 28.8196 69.3231Z" fill="#F24822"/>
</svg>
