<svg width="282" height="396" viewBox="0 0 282 396" fill="none" xmlns="http://www.w3.org/2000/svg">
<rect x="1" y="1" width="280" height="394" rx="20" fill="white"/>
<rect x="0.5" y="0.5" width="281" height="395" rx="20.5" stroke="black" stroke-opacity="0.05"/>
<path d="M244.121 362.016C244.121 360.596 244.499 359.333 245.254 358.227C245.996 357.12 247.005 356.254 248.281 355.629C246.797 354.991 245.625 354.06 244.766 352.836C243.893 351.612 243.457 350.225 243.457 348.676C243.457 346.215 244.29 344.255 245.957 342.797C247.611 341.339 249.792 340.609 252.5 340.609C255.234 340.609 257.428 341.339 259.082 342.797C260.723 344.268 261.543 346.228 261.543 348.676C261.543 350.212 261.126 351.599 260.293 352.836C259.447 354.073 258.281 355.01 256.797 355.648C258.06 356.273 259.056 357.139 259.785 358.246C260.514 359.353 260.879 360.609 260.879 362.016C260.879 364.411 260.111 366.312 258.574 367.719C257.038 369.125 255.013 369.828 252.5 369.828C250 369.828 247.982 369.125 246.445 367.719C244.896 366.312 244.121 364.411 244.121 362.016ZM247.07 348.754C247.07 350.342 247.578 351.638 248.594 352.641C249.596 353.643 250.911 354.145 252.539 354.145C254.167 354.145 255.475 353.65 256.465 352.66C257.441 351.671 257.93 350.368 257.93 348.754C257.93 347.139 257.454 345.87 256.504 344.945C255.54 344.021 254.206 343.559 252.5 343.559C250.807 343.559 249.479 344.021 248.516 344.945C247.552 345.883 247.07 347.152 247.07 348.754ZM252.5 366.859C253.919 366.859 255.072 366.417 255.957 365.531C256.829 364.659 257.266 363.467 257.266 361.957C257.266 360.512 256.836 359.34 255.977 358.441C255.104 357.556 253.945 357.113 252.5 357.113C251.055 357.113 249.902 357.556 249.043 358.441C248.171 359.34 247.734 360.512 247.734 361.957C247.734 363.402 248.184 364.581 249.082 365.492C249.98 366.404 251.12 366.859 252.5 366.859Z" fill="#1A1919"/>
<path d="M258.299 321.276C258.299 320.284 258.046 319.218 257.567 318.194C257.529 318.113 257.538 318.019 257.589 317.946C257.641 317.872 257.728 317.831 257.818 317.838C259.195 317.941 260.56 317.717 261.662 317.207C263.064 316.558 264.126 315.408 264.652 313.971C265.178 312.533 265.106 310.979 264.448 309.595C263.79 308.21 262.625 307.162 261.168 306.643C259.712 306.123 258.137 306.195 256.735 306.844C256.04 307.166 255.345 307.657 254.728 308.265C254.641 308.35 254.506 308.362 254.405 308.295C254.304 308.227 254.265 308.098 254.313 307.988L256.117 303.808C256.215 303.58 256.215 303.374 256.117 303.227C256.019 303.081 255.827 303 255.576 303H249.424C249.173 303 248.981 303.081 248.883 303.227C248.785 303.374 248.785 303.58 248.883 303.808L250.687 307.988C250.735 308.098 250.696 308.227 250.595 308.295C250.494 308.362 250.359 308.35 250.272 308.265C249.655 307.658 248.96 307.166 248.265 306.844C246.862 306.195 245.288 306.123 243.831 306.643C242.375 307.162 241.21 308.211 240.552 309.595C239.894 310.979 239.822 312.533 240.348 313.971C240.874 315.408 241.936 316.558 243.338 317.207C244.44 317.717 245.805 317.941 247.182 317.838C247.272 317.831 247.359 317.872 247.411 317.946C247.462 318.019 247.471 318.113 247.433 318.194C246.954 319.218 246.701 320.284 246.701 321.276C246.701 324.432 249.303 327 252.5 327C255.697 327 258.299 324.432 258.299 321.276Z" fill="#1A1919"/>
<path d="M111.774 166.857C111.774 171.86 113.049 177.233 115.461 182.395C115.652 182.803 115.61 183.281 115.35 183.65C115.09 184.02 114.651 184.226 114.197 184.191C107.256 183.672 100.377 184.801 94.8255 187.372C87.7588 190.645 82.4065 196.441 79.7539 203.689C77.1018 210.939 77.4673 218.774 80.7832 225.751C84.0994 232.731 89.969 238.015 97.3112 240.634C104.653 243.253 112.588 242.893 119.654 239.619C123.16 237.995 126.659 235.519 129.773 232.457C130.209 232.029 130.891 231.966 131.401 232.306C131.91 232.647 132.104 233.296 131.862 233.854L122.772 254.928C122.277 256.076 122.276 257.116 122.771 257.854C123.266 258.593 124.234 259 125.498 259H156.502C157.766 259 158.735 258.593 159.229 257.854C159.724 257.115 159.723 256.075 159.228 254.928L150.138 233.854C149.897 233.296 150.09 232.646 150.6 232.306C151.109 231.966 151.791 232.029 152.227 232.457C155.341 235.518 158.84 237.995 162.346 239.619C169.414 242.894 177.349 243.254 184.69 240.634C192.032 238.015 197.901 232.73 201.217 225.751C204.533 218.774 204.899 210.939 202.245 203.689C199.593 196.441 194.241 190.645 187.174 187.372C181.623 184.801 174.744 183.672 167.803 184.191C167.349 184.226 166.91 184.021 166.651 183.65C166.39 183.281 166.348 182.803 166.539 182.395C168.951 177.232 170.226 171.859 170.226 166.857C170.226 150.945 157.115 138 141 138C124.885 138 111.774 150.945 111.774 166.857Z" fill="#1A1919"/>
<g style="mix-blend-mode:lighten">
<rect x="78" y="138" width="63" height="121" fill="white" fill-opacity="0.2"/>
</g>
<path d="M37.8789 33.9844C37.8789 35.4036 37.5013 36.6667 36.7461 37.7734C36.0039 38.8802 34.9948 39.7461 33.7188 40.3711C35.2031 41.0091 36.375 41.9401 37.2344 43.1641C38.1068 44.388 38.543 45.7747 38.543 47.3242C38.543 49.7852 37.7096 51.7448 36.043 53.2031C34.3893 54.6615 32.2083 55.3906 29.5 55.3906C26.7656 55.3906 24.5716 54.6615 22.918 53.2031C21.2773 51.7318 20.457 49.7721 20.457 47.3242C20.457 45.7878 20.8737 44.401 21.707 43.1641C22.5534 41.9271 23.7188 40.9896 25.2031 40.3516C23.9401 39.7266 22.944 38.8607 22.2148 37.7539C21.4857 36.6471 21.1211 35.3906 21.1211 33.9844C21.1211 31.5885 21.8893 29.6875 23.4258 28.2812C24.9622 26.875 26.987 26.1719 29.5 26.1719C32 26.1719 34.0182 26.875 35.5547 28.2812C37.1042 29.6875 37.8789 31.5885 37.8789 33.9844ZM34.9297 47.2461C34.9297 45.6576 34.4219 44.362 33.4062 43.3594C32.4036 42.3568 31.0885 41.8555 29.4609 41.8555C27.8333 41.8555 26.5247 42.3503 25.5352 43.3398C24.5586 44.3294 24.0703 45.6315 24.0703 47.2461C24.0703 48.8607 24.5456 50.1302 25.4961 51.0547C26.4596 51.9792 27.7943 52.4414 29.5 52.4414C31.1927 52.4414 32.5208 51.9792 33.4844 51.0547C34.4479 50.1172 34.9297 48.8477 34.9297 47.2461ZM29.5 29.1406C28.0807 29.1406 26.9284 29.5833 26.043 30.4688C25.1706 31.3411 24.7344 32.5326 24.7344 34.043C24.7344 35.4883 25.1641 36.6602 26.0234 37.5586C26.8958 38.444 28.0547 38.8867 29.5 38.8867C30.9453 38.8867 32.0977 38.444 32.957 37.5586C33.8294 36.6602 34.2656 35.4883 34.2656 34.043C34.2656 32.5977 33.8164 31.4193 32.918 30.5078C32.0195 29.5964 30.8802 29.1406 29.5 29.1406Z" fill="#1A1919"/>
<path d="M23.7012 74.7236C23.7012 75.716 23.9542 76.7818 24.4328 77.8055C24.4706 77.8865 24.4623 77.9813 24.4107 78.0545C24.3591 78.1279 24.272 78.1688 24.1819 78.1619C22.8048 78.0589 21.4398 78.2828 20.3384 78.7928C18.9363 79.4421 17.8743 80.5915 17.348 82.0292C16.8218 83.4671 16.8943 85.0212 17.5522 86.4052C18.2102 87.7896 19.3748 88.8377 20.8316 89.3572C22.2883 89.8766 23.8627 89.8052 25.2647 89.1558C25.9602 88.8337 26.6545 88.3425 27.2724 87.7352C27.3589 87.6504 27.4942 87.6379 27.5954 87.7053C27.6964 87.773 27.7349 87.9016 27.6869 88.0124L25.8833 92.1923C25.7851 92.42 25.7849 92.6262 25.8832 92.7726C25.9813 92.9192 26.1734 93 26.4243 93H32.5758C32.8267 93 33.0188 92.9192 33.1169 92.7726C33.215 92.626 33.2149 92.4198 33.1167 92.1923L31.3132 88.0124C31.2652 87.9016 31.3036 87.7728 31.4048 87.7053C31.5058 87.6379 31.6411 87.6504 31.7276 87.7352C32.3454 88.3423 33.0396 88.8337 33.7353 89.1558C35.1376 89.8054 36.712 89.8768 38.1687 89.3572C39.6254 88.8377 40.79 87.7894 41.4477 86.4052C42.1057 85.0212 42.1783 83.4671 41.6518 82.0292C41.1256 80.5915 40.0637 79.4421 38.6615 78.7928C37.5602 78.2828 36.1953 78.0589 34.8181 78.1619C34.7279 78.1688 34.6409 78.128 34.5895 78.0545C34.5378 77.9813 34.5294 77.8865 34.5672 77.8055C35.0458 76.7816 35.2989 75.7158 35.2989 74.7236C35.2989 71.5675 32.6974 69 29.5 69C26.3025 69 23.7012 71.5675 23.7012 74.7236Z" fill="#1A1919"/>
</svg>
