<svg width="282" height="396" viewBox="0 0 282 396" fill="none" xmlns="http://www.w3.org/2000/svg">
<rect x="1" y="1" width="280" height="394" rx="20" fill="white"/>
<rect x="0.5" y="0.5" width="281" height="395" rx="20.5" stroke="black" stroke-opacity="0.05"/>
<path d="M244.121 362.016C244.121 360.596 244.499 359.333 245.254 358.227C245.996 357.12 247.005 356.254 248.281 355.629C246.797 354.991 245.625 354.06 244.766 352.836C243.893 351.612 243.457 350.225 243.457 348.676C243.457 346.215 244.29 344.255 245.957 342.797C247.611 341.339 249.792 340.609 252.5 340.609C255.234 340.609 257.428 341.339 259.082 342.797C260.723 344.268 261.543 346.228 261.543 348.676C261.543 350.212 261.126 351.599 260.293 352.836C259.447 354.073 258.281 355.01 256.797 355.648C258.06 356.273 259.056 357.139 259.785 358.246C260.514 359.353 260.879 360.609 260.879 362.016C260.879 364.411 260.111 366.312 258.574 367.719C257.038 369.125 255.013 369.828 252.5 369.828C250 369.828 247.982 369.125 246.445 367.719C244.896 366.312 244.121 364.411 244.121 362.016ZM247.07 348.754C247.07 350.342 247.578 351.638 248.594 352.641C249.596 353.643 250.911 354.145 252.539 354.145C254.167 354.145 255.475 353.65 256.465 352.66C257.441 351.671 257.93 350.368 257.93 348.754C257.93 347.139 257.454 345.87 256.504 344.945C255.54 344.021 254.206 343.559 252.5 343.559C250.807 343.559 249.479 344.021 248.516 344.945C247.552 345.883 247.07 347.152 247.07 348.754ZM252.5 366.859C253.919 366.859 255.072 366.417 255.957 365.531C256.829 364.659 257.266 363.467 257.266 361.957C257.266 360.512 256.836 359.34 255.977 358.441C255.104 357.556 253.945 357.113 252.5 357.113C251.055 357.113 249.902 357.556 249.043 358.441C248.171 359.34 247.734 360.512 247.734 361.957C247.734 363.402 248.184 364.581 249.082 365.492C249.98 366.404 251.12 366.859 252.5 366.859Z" fill="#1A1919"/>
<path d="M257.674 321.82L258.158 321.29C263.26 315.709 265.821 312.907 264.765 309.586C264.378 308.37 263.452 307.386 262.157 306.815C260.525 306.095 258.484 306.112 256.832 306.859C256.115 307.182 255.4 307.676 254.764 308.286C254.716 308.331 254.653 308.357 254.586 308.357H254.548C254.463 308.357 254.383 308.314 254.336 308.243C254.288 308.173 254.28 308.083 254.314 308.005L256.118 303.811C256.216 303.582 256.216 303.375 256.118 303.228C256.02 303.081 255.828 303 255.577 303H249.423C249.172 303 248.98 303.081 248.882 303.228C248.784 303.375 248.784 303.582 248.882 303.811L250.686 308.005C250.72 308.083 250.712 308.173 250.664 308.243C250.617 308.314 250.537 308.357 250.452 308.357H250.413C250.347 308.357 250.284 308.331 250.236 308.286C249.6 307.676 248.885 307.182 248.168 306.859C246.516 306.112 244.475 306.095 242.843 306.815C241.548 307.386 240.621 308.37 240.235 309.586C240.077 310.082 240 310.567 240 311.05C240 313.806 242.502 316.542 246.842 321.29L247.326 321.82C249.963 324.706 251.938 326.502 252.5 327C253.062 326.502 255.037 324.706 257.674 321.82Z" fill="#1A1919"/>
<path d="M114.923 164.117L112.485 166.786C86.7676 194.926 73.8598 209.051 79.1833 225.793C81.1324 231.927 85.8003 236.889 92.3274 239.768C100.553 243.396 110.838 243.31 119.169 239.545C122.779 237.913 126.384 235.426 129.59 232.352C129.83 232.122 130.151 231.993 130.485 231.993H130.676C131.108 231.993 131.51 232.208 131.749 232.565C131.987 232.921 132.028 233.373 131.859 233.766L122.765 254.913C122.27 256.065 122.269 257.107 122.764 257.849C123.259 258.591 124.228 259 125.493 259H156.508C157.772 259 158.741 258.592 159.236 257.85C159.731 257.108 159.731 256.065 159.235 254.913L150.141 233.766C149.971 233.373 150.014 232.921 150.252 232.565C150.49 232.208 150.892 231.993 151.324 231.993H151.516C151.85 231.993 152.17 232.122 152.41 232.352C155.617 235.426 159.221 237.913 162.831 239.545C171.161 243.31 181.445 243.396 189.672 239.768C196.199 236.889 200.868 231.927 202.816 225.793C203.611 223.294 204 220.852 204 218.413C204 204.52 191.392 190.724 169.516 166.786L167.076 164.117C153.788 149.565 143.832 140.513 141 138C138.168 140.513 128.212 149.565 114.923 164.117Z" fill="#1A1919"/>
<g style="mix-blend-mode:lighten">
<rect x="78" y="138" width="63" height="121" fill="white" fill-opacity="0.2"/>
</g>
<path d="M37.8789 33.9844C37.8789 35.4036 37.5013 36.6667 36.7461 37.7734C36.0039 38.8802 34.9948 39.7461 33.7188 40.3711C35.2031 41.0091 36.375 41.9401 37.2344 43.1641C38.1068 44.388 38.543 45.7747 38.543 47.3242C38.543 49.7852 37.7096 51.7448 36.043 53.2031C34.3893 54.6615 32.2083 55.3906 29.5 55.3906C26.7656 55.3906 24.5716 54.6615 22.918 53.2031C21.2773 51.7318 20.457 49.7721 20.457 47.3242C20.457 45.7878 20.8737 44.401 21.707 43.1641C22.5534 41.9271 23.7188 40.9896 25.2031 40.3516C23.9401 39.7266 22.944 38.8607 22.2148 37.7539C21.4857 36.6471 21.1211 35.3906 21.1211 33.9844C21.1211 31.5885 21.8893 29.6875 23.4258 28.2812C24.9622 26.875 26.987 26.1719 29.5 26.1719C32 26.1719 34.0182 26.875 35.5547 28.2812C37.1042 29.6875 37.8789 31.5885 37.8789 33.9844ZM34.9297 47.2461C34.9297 45.6576 34.4219 44.362 33.4062 43.3594C32.4036 42.3568 31.0885 41.8555 29.4609 41.8555C27.8333 41.8555 26.5247 42.3503 25.5352 43.3398C24.5586 44.3294 24.0703 45.6315 24.0703 47.2461C24.0703 48.8607 24.5456 50.1302 25.4961 51.0547C26.4596 51.9792 27.7943 52.4414 29.5 52.4414C31.1927 52.4414 32.5208 51.9792 33.4844 51.0547C34.4479 50.1172 34.9297 48.8477 34.9297 47.2461ZM29.5 29.1406C28.0807 29.1406 26.9284 29.5833 26.043 30.4688C25.1706 31.3411 24.7344 32.5326 24.7344 34.043C24.7344 35.4883 25.1641 36.6602 26.0234 37.5586C26.8958 38.444 28.0547 38.8867 29.5 38.8867C30.9453 38.8867 32.0977 38.444 32.957 37.5586C33.8294 36.6602 34.2656 35.4883 34.2656 34.043C34.2656 32.5977 33.8164 31.4193 32.918 30.5078C32.0195 29.5964 30.8802 29.1406 29.5 29.1406Z" fill="#1A1919"/>
<path d="M24.3261 74.1802L23.8422 74.7097C18.7396 80.2912 16.1785 83.0928 17.2348 86.4135C17.6215 87.6301 18.5477 88.6143 19.8427 89.1853C21.4749 89.9049 23.5156 89.888 25.1684 89.1412C25.8848 88.8175 26.5999 88.3241 27.2362 87.7145C27.2838 87.6687 27.3473 87.6432 27.4136 87.6432H27.4516C27.5374 87.6432 27.6171 87.6858 27.6644 87.7567C27.7117 87.8274 27.7199 87.9169 27.6863 87.995L25.8819 92.1894C25.7836 92.4179 25.7835 92.6246 25.8817 92.7717C25.9799 92.9189 26.1722 93 26.4231 93H32.5769C32.8278 93 33.0201 92.9191 33.1182 92.7719C33.2164 92.6248 33.2164 92.4179 33.1181 92.1894L31.3137 87.995C31.2801 87.9169 31.2885 87.8273 31.3357 87.7567C31.3829 87.6858 31.4628 87.6432 31.5485 87.6432H31.5865C31.6528 87.6432 31.7162 87.6687 31.7639 87.7145C32.4002 88.3241 33.1152 88.8175 33.8316 89.1412C35.4843 89.888 37.5248 89.9049 39.1571 89.1853C40.4523 88.6143 41.3785 87.6301 41.7651 86.4135C41.9228 85.9178 42 85.4334 42 84.9497C42 82.1941 39.4984 79.4577 35.1579 74.7097L34.6739 74.1802C32.0374 71.2938 30.0619 69.4984 29.5 69C28.9381 69.4984 26.9627 71.2938 24.3261 74.1802Z" fill="#1A1919"/>
</svg>
