<svg width="282" height="396" viewBox="0 0 282 396" fill="none" xmlns="http://www.w3.org/2000/svg">
<rect x="1" y="1" width="280" height="394" rx="20" fill="white"/>
<rect x="0.5" y="0.5" width="281" height="395" rx="20.5" stroke="black" stroke-opacity="0.05"/>
<path d="M259.707 355.258L258.262 369.438H243.691V366.098H255.195L256.055 358.344C254.661 359.164 253.079 359.574 251.309 359.574C248.717 359.574 246.66 358.715 245.137 356.996C243.613 355.29 242.852 352.979 242.852 350.063C242.852 347.133 243.646 344.822 245.234 343.129C246.81 341.449 249.017 340.609 251.855 340.609C254.368 340.609 256.419 341.306 258.008 342.699C259.596 344.092 260.501 346.02 260.723 348.48H257.305C257.083 346.853 256.504 345.622 255.566 344.789C254.629 343.969 253.392 343.559 251.855 343.559C250.176 343.559 248.861 344.132 247.91 345.277C246.947 346.423 246.465 348.005 246.465 350.023C246.465 351.924 246.986 353.448 248.027 354.594C249.056 355.753 250.43 356.332 252.148 356.332C253.724 356.332 254.961 355.987 255.859 355.297L256.816 354.516L259.707 355.258Z" fill="#F24822"/>
<path d="M259.092 325.975C261.414 325.745 263.452 324.144 264.411 321.797C264.705 321.077 265 320.022 265 318.688C265 316.917 264.48 314.656 262.744 312.04C258.065 304.987 252.909 304.063 252.5 304C252.091 304.063 246.935 304.987 242.256 312.04C240.521 314.656 240 316.917 240 318.688C240 320.022 240.295 321.077 240.589 321.797C241.548 324.144 243.586 325.745 245.908 325.975C250.13 326.394 252.247 321.392 252.268 321.341L252.5 320.78L252.732 321.341C252.753 321.392 254.87 326.394 259.092 325.975Z" fill="#F24822"/>
<path d="M107.776 143.125C96.0719 144.286 85.8005 152.365 80.9701 164.207C79.4887 167.837 78 173.163 78 179.894C78 188.827 80.623 200.234 89.3718 213.436C112.953 249.018 138.94 253.685 141 254C143.061 253.685 169.048 249.018 192.628 213.436C201.376 200.234 204 188.826 204 179.894C204 173.163 202.511 167.837 201.03 164.206C196.199 152.363 185.928 144.286 174.224 143.125C152.944 141.014 142.276 166.249 142.17 166.505L141.001 169.338L139.831 166.505C139.725 166.249 129.055 141.014 107.776 143.125Z" fill="#F24822"/>
<g style="mix-blend-mode:lighten">
<rect x="78" y="138" width="63" height="121" fill="white" fill-opacity="0.2"/>
</g>
<path d="M22.293 40.7422L23.7383 26.5625H38.3086V29.9023H26.8047L25.9453 37.6562C27.3385 36.8359 28.9206 36.4258 30.6914 36.4258C33.2826 36.4258 35.3398 37.2852 36.8633 39.0039C38.3867 40.7096 39.1484 43.0208 39.1484 45.9375C39.1484 48.8672 38.3542 51.1784 36.7656 52.8711C35.1901 54.5508 32.9831 55.3906 30.1445 55.3906C27.6315 55.3906 25.5807 54.694 23.9922 53.3008C22.4036 51.9075 21.4987 49.9805 21.2773 47.5195H24.6953C24.9167 49.1471 25.4961 50.3776 26.4336 51.2109C27.3711 52.0312 28.6081 52.4414 30.1445 52.4414C31.8242 52.4414 33.1393 51.8685 34.0898 50.7227C35.0534 49.5768 35.5352 47.9948 35.5352 45.9766C35.5352 44.0755 35.0143 42.5521 33.9727 41.4062C32.944 40.2474 31.5703 39.668 29.8516 39.668C28.276 39.668 27.0391 40.013 26.1406 40.7031L25.1836 41.4844L22.293 40.7422Z" fill="#F24822"/>
<path d="M22.908 70.0249C20.5857 70.2549 18.5477 71.856 17.5893 74.2031C17.2954 74.9227 17 75.9783 17 77.3123C17 79.0828 17.5204 81.3437 19.2563 83.9602C23.9351 91.0126 29.0913 91.9375 29.5 92C29.909 91.9375 35.065 91.0125 39.7437 83.9602C41.4794 81.3437 42 79.0827 42 77.3123C42 75.9782 41.7046 74.9226 41.4108 74.2029C40.4523 71.8557 38.4142 70.2548 36.0922 70.0249C31.8699 69.6064 29.7531 74.6079 29.7321 74.6586L29.5002 75.2201L29.2681 74.6586C29.2471 74.6079 27.13 69.6064 22.908 70.0249Z" fill="#F24822"/>
</svg>
