<svg width="282" height="396" viewBox="0 0 282 396" fill="none" xmlns="http://www.w3.org/2000/svg">
<rect x="1" y="1" width="280" height="394" rx="20" fill="white"/>
<rect x="0.5" y="0.5" width="281" height="395" rx="20.5" stroke="black" stroke-opacity="0.05"/>
<path d="M259.707 355.258L258.262 369.438H243.691V366.098H255.195L256.055 358.344C254.661 359.164 253.079 359.574 251.309 359.574C248.717 359.574 246.66 358.715 245.137 356.996C243.613 355.29 242.852 352.979 242.852 350.062C242.852 347.133 243.646 344.822 245.234 343.129C246.81 341.449 249.017 340.609 251.855 340.609C254.368 340.609 256.419 341.306 258.008 342.699C259.596 344.092 260.501 346.02 260.723 348.48H257.305C257.083 346.853 256.504 345.622 255.566 344.789C254.629 343.969 253.392 343.559 251.855 343.559C250.176 343.559 248.861 344.132 247.91 345.277C246.947 346.423 246.465 348.005 246.465 350.023C246.465 351.924 246.986 353.448 248.027 354.594C249.056 355.753 250.43 356.332 252.148 356.332C253.724 356.332 254.961 355.987 255.859 355.297L256.816 354.516L259.707 355.258Z" fill="#F24822"/>
<path d="M253.18 326.677L262.706 315.824C263.098 315.377 263.098 314.623 262.706 314.176L253.18 303.323C252.998 303.115 252.756 303 252.5 303C252.244 303 252.002 303.115 251.82 303.323L242.294 314.176C241.902 314.623 241.902 315.377 242.294 315.824L251.82 326.677C252.002 326.885 252.244 327 252.5 327C252.756 327 252.998 326.885 253.18 326.677Z" fill="#F24822"/>
<path d="M137.566 139.629L89.4835 194.347C87.5055 196.598 87.5055 200.403 89.4835 202.654L137.566 257.372C138.488 258.422 139.708 259 141 259C142.292 259 143.513 258.422 144.434 257.372L192.517 202.654C194.494 200.403 194.494 196.598 192.517 194.347L144.434 139.629C143.513 138.578 142.292 138 141 138C139.708 138 138.489 138.578 137.566 139.629Z" fill="#F24822"/>
<g style="mix-blend-mode:lighten">
<rect x="78" y="138" width="63" height="121" fill="white" fill-opacity="0.2"/>
</g>
<path d="M22.293 40.7422L23.7383 26.5625L38.3086 26.5625V29.9023L26.8047 29.9023L25.9453 37.6562C27.3385 36.8359 28.9206 36.4258 30.6914 36.4258C33.2826 36.4258 35.3398 37.2852 36.8633 39.0039C38.3867 40.7096 39.1484 43.0208 39.1484 45.9375C39.1484 48.8672 38.3542 51.1784 36.7656 52.8711C35.1901 54.5508 32.9831 55.3906 30.1445 55.3906C27.6315 55.3906 25.5807 54.694 23.9922 53.3008C22.4036 51.9076 21.4987 49.9805 21.2773 47.5195H24.6953C24.9167 49.1471 25.4961 50.3776 26.4336 51.2109C27.3711 52.0312 28.6081 52.4414 30.1445 52.4414C31.8242 52.4414 33.1393 51.8685 34.0898 50.7227C35.0534 49.5768 35.5352 47.9948 35.5352 45.9766C35.5352 44.0755 35.0143 42.5521 33.9727 41.4062C32.944 40.2474 31.5703 39.668 29.8516 39.668C28.276 39.668 27.0391 40.013 26.1406 40.7031L25.1836 41.4844L22.293 40.7422Z" fill="#F24822"/>
<path d="M28.8196 69.3231L19.2939 80.1763C18.902 80.6228 18.902 81.3774 19.2939 81.8239L28.8196 92.6771C29.0023 92.8853 29.244 93 29.5 93C29.756 93 29.9978 92.8853 30.1804 92.6771L39.7062 81.8239C40.0979 81.3774 40.0979 80.6228 39.7062 80.1763L30.1804 69.3231C29.9978 69.1147 29.756 69 29.5 69C29.244 69 29.0025 69.1147 28.8196 69.3231Z" fill="#F24822"/>
</svg>
