<svg width="282" height="396" viewBox="0 0 282 396" fill="none" xmlns="http://www.w3.org/2000/svg">
<rect x="1" y="1" width="280" height="394" rx="20" fill="white"/>
<rect x="0.5" y="0.5" width="281" height="395" rx="20.5" stroke="black" stroke-opacity="0.05"/>
<path d="M248.32 369.438H244.551V349.301C244.551 346.579 245.371 344.451 247.012 342.914C248.639 341.378 250.814 340.609 253.535 340.609C256.361 340.609 258.561 341.332 260.137 342.777C261.712 344.223 262.5 346.247 262.5 348.852H258.75C258.75 347.224 258.307 345.954 257.422 345.043C256.523 344.132 255.228 343.676 253.535 343.676C251.986 343.676 250.736 344.164 249.785 345.141C248.822 346.117 248.333 347.484 248.32 349.242V369.438Z" fill="#F24822"/>
<path d="M253.18 326.677L262.706 315.824C263.098 315.377 263.098 314.623 262.706 314.176L253.18 303.323C252.998 303.115 252.756 303 252.5 303C252.244 303 252.002 303.115 251.82 303.323L242.294 314.176C241.902 314.623 241.902 315.377 242.294 315.824L251.82 326.677C252.002 326.885 252.244 327 252.5 327C252.756 327 252.998 326.885 253.18 326.677Z" fill="#F24822"/>
<path d="M137.566 139.629L89.4835 194.347C87.5055 196.598 87.5055 200.403 89.4835 202.654L137.566 257.372C138.488 258.422 139.708 259 141 259C142.292 259 143.513 258.422 144.434 257.372L192.517 202.654C194.494 200.403 194.494 196.598 192.517 194.347L144.434 139.629C143.513 138.578 142.292 138 141 138C139.708 138 138.489 138.578 137.566 139.629Z" fill="#F24822"/>
<g style="mix-blend-mode:lighten">
<rect x="78" y="138" width="63" height="121" fill="white" fill-opacity="0.2"/>
</g>
<path d="M33.6797 26.5625H37.4492V46.6992C37.4492 49.4206 36.6289 51.5495 34.9883 53.0859C33.3607 54.6224 31.1862 55.3906 28.4648 55.3906C25.6393 55.3906 23.4388 54.668 21.8633 53.2227C20.2878 51.7773 19.5 49.7526 19.5 47.1484H23.25C23.25 48.776 23.6927 50.0456 24.5781 50.957C25.4766 51.8685 26.7721 52.3242 28.4648 52.3242C30.0143 52.3242 31.2643 51.8359 32.2148 50.8594C33.1784 49.8828 33.6667 48.5156 33.6797 46.7578V26.5625Z" fill="#F24822"/>
<path d="M28.8196 69.3231L19.2939 80.1763C18.902 80.6228 18.902 81.3774 19.2939 81.8239L28.8196 92.6771C29.0023 92.8853 29.244 93 29.5 93C29.756 93 29.9978 92.8853 30.1804 92.6771L39.7062 81.8239C40.0979 81.3774 40.0979 80.6228 39.7062 80.1763L30.1804 69.3231C29.9978 69.1147 29.756 69 29.5 69C29.244 69 29.0025 69.1147 28.8196 69.3231Z" fill="#F24822"/>
</svg>
