<svg width="282" height="396" viewBox="0 0 282 396" fill="none" xmlns="http://www.w3.org/2000/svg">
<rect x="1" y="1" width="280" height="394" rx="20" fill="white"/>
<rect x="0.5" y="0.5" width="281" height="395" rx="20.5" stroke="black" stroke-opacity="0.05"/>
<path d="M248.32 369.438H244.551V349.301C244.551 346.579 245.371 344.451 247.012 342.914C248.639 341.378 250.814 340.609 253.535 340.609C256.361 340.609 258.561 341.332 260.137 342.777C261.712 344.223 262.5 346.247 262.5 348.852H258.75C258.75 347.224 258.307 345.954 257.422 345.043C256.523 344.132 255.228 343.676 253.535 343.676C251.986 343.676 250.736 344.164 249.785 345.141C248.822 346.117 248.333 347.484 248.32 349.242V369.438Z" fill="#F24822"/>
<path d="M259.092 325.975C261.414 325.745 263.452 324.144 264.411 321.797C264.705 321.077 265 320.022 265 318.688C265 316.917 264.48 314.656 262.744 312.04C258.065 304.987 252.909 304.063 252.5 304C252.091 304.063 246.935 304.987 242.256 312.04C240.521 314.656 240 316.917 240 318.688C240 320.022 240.295 321.077 240.589 321.797C241.548 324.144 243.586 325.745 245.908 325.975C250.13 326.394 252.247 321.392 252.268 321.341L252.5 320.78L252.732 321.341C252.753 321.392 254.87 326.394 259.092 325.975Z" fill="#F24822"/>
<path d="M107.776 143.125C96.0719 144.286 85.8005 152.365 80.9701 164.207C79.4887 167.837 78 173.163 78 179.894C78 188.827 80.623 200.234 89.3718 213.436C112.953 249.018 138.94 253.685 141 254C143.061 253.685 169.048 249.018 192.628 213.436C201.376 200.234 204 188.826 204 179.894C204 173.163 202.511 167.837 201.03 164.206C196.199 152.363 185.928 144.286 174.224 143.125C152.944 141.014 142.276 166.249 142.17 166.505L141.001 169.338L139.831 166.505C139.725 166.249 129.055 141.014 107.776 143.125Z" fill="#F24822"/>
<g style="mix-blend-mode:lighten">
<rect x="78" y="138" width="63" height="121" fill="white" fill-opacity="0.2"/>
</g>
<path d="M33.6797 26.5625H37.4492V46.6992C37.4492 49.4206 36.6289 51.5495 34.9883 53.0859C33.3607 54.6224 31.1862 55.3906 28.4648 55.3906C25.6393 55.3906 23.4388 54.668 21.8633 53.2227C20.2878 51.7773 19.5 49.7526 19.5 47.1484H23.25C23.25 48.776 23.6927 50.0456 24.5781 50.957C25.4766 51.8685 26.7721 52.3242 28.4648 52.3242C30.0143 52.3242 31.2643 51.8359 32.2148 50.8594C33.1784 49.8828 33.6667 48.5156 33.6797 46.7578V26.5625Z" fill="#F24822"/>
<path d="M22.908 70.0249C20.5857 70.2549 18.5477 71.856 17.5893 74.2031C17.2954 74.9227 17 75.9783 17 77.3123C17 79.0828 17.5204 81.3437 19.2563 83.9602C23.9351 91.0126 29.0913 91.9375 29.5 92C29.909 91.9375 35.065 91.0125 39.7437 83.9602C41.4794 81.3437 42 79.0827 42 77.3123C42 75.9782 41.7046 74.9226 41.4108 74.2029C40.4523 71.8557 38.4142 70.2548 36.0922 70.0249C31.8699 69.6064 29.7531 74.6079 29.7321 74.6586L29.5002 75.2201L29.2681 74.6586C29.2471 74.6079 27.13 69.6064 22.908 70.0249Z" fill="#F24822"/>
</svg>
