<svg width="282" height="396" viewBox="0 0 282 396" fill="none" xmlns="http://www.w3.org/2000/svg">
<rect x="1" y="1" width="280" height="394" rx="20" fill="white"/>
<rect x="0.5" y="0.5" width="281" height="395" rx="20.5" stroke="black" stroke-opacity="0.05"/>
<path d="M247.52 353.5C248.275 352.602 249.18 351.879 250.234 351.332C251.276 350.785 252.422 350.512 253.672 350.512C255.312 350.512 256.745 350.915 257.969 351.723C259.18 352.53 260.117 353.663 260.781 355.121C261.445 356.592 261.777 358.214 261.777 359.984C261.777 361.885 261.419 363.598 260.703 365.121C259.974 366.645 258.945 367.81 257.617 368.617C256.289 369.424 254.74 369.828 252.969 369.828C250.156 369.828 247.943 368.773 246.328 366.664C244.701 364.568 243.887 361.703 243.887 358.07V357.016C243.887 351.482 244.98 347.439 247.168 344.887C249.355 342.348 252.656 341.046 257.07 340.98H257.773V344.027H257.012C254.03 344.079 251.738 344.854 250.137 346.352C248.535 347.862 247.663 350.245 247.52 353.5ZM253.086 353.5C251.875 353.5 250.762 353.871 249.746 354.613C248.717 355.355 247.969 356.273 247.5 357.367V358.812C247.5 361.182 248.014 363.109 249.043 364.594C250.072 366.078 251.374 366.82 252.949 366.82C254.538 366.82 255.814 366.208 256.777 364.984C257.741 363.773 258.223 362.172 258.223 360.18C258.223 358.24 257.76 356.638 256.836 355.375C255.898 354.125 254.648 353.5 253.086 353.5Z" fill="#1A1919"/>
<path d="M257.674 321.82L258.158 321.29C263.26 315.709 265.821 312.907 264.765 309.586C264.378 308.37 263.452 307.386 262.157 306.815C260.525 306.095 258.484 306.112 256.832 306.859C256.115 307.182 255.4 307.676 254.764 308.286C254.716 308.331 254.653 308.357 254.586 308.357H254.548C254.463 308.357 254.383 308.314 254.336 308.243C254.288 308.173 254.28 308.083 254.314 308.005L256.118 303.811C256.216 303.582 256.216 303.375 256.118 303.228C256.02 303.081 255.828 303 255.577 303H249.423C249.172 303 248.98 303.081 248.882 303.228C248.784 303.375 248.784 303.582 248.882 303.811L250.686 308.005C250.72 308.083 250.712 308.173 250.664 308.243C250.617 308.314 250.537 308.357 250.452 308.357H250.413C250.347 308.357 250.284 308.331 250.236 308.286C249.6 307.676 248.885 307.182 248.168 306.859C246.516 306.112 244.475 306.095 242.843 306.815C241.548 307.386 240.621 308.37 240.235 309.586C240.077 310.082 240 310.567 240 311.05C240 313.806 242.502 316.542 246.842 321.29L247.326 321.82C249.963 324.706 251.938 326.502 252.5 327C253.062 326.502 255.037 324.706 257.674 321.82Z" fill="#1A1919"/>
<path d="M114.923 164.117L112.485 166.786C86.7676 194.926 73.8598 209.051 79.1833 225.793C81.1324 231.927 85.8003 236.889 92.3274 239.768C100.553 243.396 110.838 243.31 119.169 239.545C122.779 237.913 126.384 235.426 129.59 232.352C129.83 232.122 130.151 231.993 130.485 231.993H130.676C131.108 231.993 131.51 232.208 131.749 232.565C131.987 232.921 132.028 233.373 131.859 233.766L122.765 254.913C122.27 256.065 122.269 257.107 122.764 257.849C123.259 258.591 124.228 259 125.493 259H156.508C157.772 259 158.741 258.592 159.236 257.85C159.731 257.108 159.731 256.065 159.235 254.913L150.141 233.766C149.971 233.373 150.014 232.921 150.252 232.565C150.49 232.208 150.892 231.993 151.324 231.993H151.516C151.85 231.993 152.17 232.122 152.41 232.352C155.617 235.426 159.221 237.913 162.831 239.545C171.161 243.31 181.445 243.396 189.672 239.768C196.199 236.889 200.868 231.927 202.816 225.793C203.611 223.294 204 220.852 204 218.413C204 204.52 191.392 190.724 169.516 166.786L167.076 164.117C153.788 149.565 143.832 140.513 141 138C138.168 140.513 128.212 149.565 114.923 164.117Z" fill="#1A1919"/>
<g style="mix-blend-mode:lighten">
<rect x="78" y="138" width="63" height="121" fill="white" fill-opacity="0.2"/>
</g>
<path d="M34.4805 42.5C33.7253 43.3984 32.8203 44.1211 31.7656 44.668C30.724 45.2148 29.5781 45.4883 28.3281 45.4883C26.6875 45.4883 25.2552 45.0846 24.0313 44.2773C22.8203 43.4701 21.8828 42.3372 21.2188 40.8789C20.5547 39.4076 20.2227 37.7865 20.2227 36.0156C20.2227 34.1146 20.5807 32.4023 21.2969 30.8789C22.026 29.3555 23.0547 28.1901 24.3828 27.3828C25.7109 26.5755 27.2604 26.1719 29.0312 26.1719C31.8438 26.1719 34.0573 27.2266 35.6719 29.3359C37.2995 31.4323 38.1133 34.2969 38.1133 37.9297V38.9844C38.1133 44.5182 37.0195 48.5612 34.832 51.1133C32.6445 53.6523 29.3438 54.9544 24.9297 55.0195H24.2266V51.9727H24.9883C27.9701 51.9206 30.2617 51.1458 31.8633 49.6484C33.4648 48.138 34.3372 45.7552 34.4805 42.5ZM28.9141 42.5C30.125 42.5 31.2383 42.1289 32.2539 41.3867C33.2826 40.6445 34.0312 39.7266 34.5 38.6328V37.1875C34.5 34.8177 33.9857 32.8906 32.957 31.4062C31.9284 29.9219 30.6263 29.1797 29.0508 29.1797C27.4622 29.1797 26.1862 29.7917 25.2227 31.0156C24.2591 32.2266 23.7773 33.8281 23.7773 35.8203C23.7773 37.7604 24.2396 39.362 25.1641 40.625C26.1016 41.875 27.3516 42.5 28.9141 42.5Z" fill="#1A1919"/>
<path d="M24.3261 74.1802L23.8422 74.7097C18.7396 80.2912 16.1785 83.0928 17.2348 86.4135C17.6215 87.6301 18.5477 88.6143 19.8427 89.1853C21.4749 89.9049 23.5156 89.888 25.1684 89.1412C25.8848 88.8175 26.5999 88.3241 27.2362 87.7145C27.2838 87.6687 27.3473 87.6432 27.4136 87.6432H27.4516C27.5374 87.6432 27.6171 87.6858 27.6644 87.7567C27.7117 87.8274 27.7199 87.9169 27.6863 87.995L25.8819 92.1894C25.7836 92.4179 25.7835 92.6246 25.8817 92.7717C25.9799 92.9189 26.1722 93 26.4231 93H32.5769C32.8278 93 33.0201 92.9191 33.1182 92.7719C33.2164 92.6248 33.2164 92.4179 33.1181 92.1894L31.3137 87.995C31.2801 87.9169 31.2885 87.8273 31.3357 87.7567C31.3829 87.6858 31.4628 87.6432 31.5485 87.6432H31.5865C31.6528 87.6432 31.7162 87.6687 31.7639 87.7145C32.4002 88.3241 33.1152 88.8175 33.8316 89.1412C35.4843 89.888 37.5248 89.9049 39.1571 89.1853C40.4523 88.6143 41.3785 87.6301 41.7651 86.4135C41.9228 85.9178 42 85.4334 42 84.9497C42 82.1941 39.4984 79.4577 35.1579 74.7097L34.6739 74.1802C32.0374 71.2938 30.0619 69.4984 29.5 69C28.9381 69.4984 26.9627 71.2938 24.3261 74.1802Z" fill="#1A1919"/>
</svg>
