<svg width="282" height="396" viewBox="0 0 282 396" fill="none" xmlns="http://www.w3.org/2000/svg">
<rect x="1" y="1" width="280" height="394" rx="20" fill="white"/>
<rect x="0.5" y="0.5" width="281" height="395" rx="20.5" stroke="black" stroke-opacity="0.05"/>
<path d="M247.52 353.5C248.275 352.602 249.18 351.879 250.234 351.332C251.276 350.785 252.422 350.512 253.672 350.512C255.312 350.512 256.745 350.915 257.969 351.723C259.18 352.53 260.117 353.663 260.781 355.121C261.445 356.592 261.777 358.214 261.777 359.984C261.777 361.885 261.419 363.598 260.703 365.121C259.974 366.645 258.945 367.81 257.617 368.617C256.289 369.424 254.74 369.828 252.969 369.828C250.156 369.828 247.943 368.773 246.328 366.664C244.701 364.568 243.887 361.703 243.887 358.07V357.016C243.887 351.482 244.98 347.439 247.168 344.887C249.355 342.348 252.656 341.046 257.07 340.98H257.773V344.027H257.012C254.03 344.079 251.738 344.854 250.137 346.352C248.535 347.862 247.663 350.245 247.52 353.5ZM253.086 353.5C251.875 353.5 250.762 353.871 249.746 354.613C248.717 355.355 247.969 356.273 247.5 357.367V358.812C247.5 361.182 248.014 363.109 249.043 364.594C250.072 366.078 251.374 366.82 252.949 366.82C254.538 366.82 255.814 366.208 256.777 364.984C257.741 363.773 258.223 362.172 258.223 360.18C258.223 358.24 257.76 356.638 256.836 355.375C255.898 354.125 254.648 353.5 253.086 353.5Z" fill="#1A1919"/>
<path d="M258.299 321.276C258.299 320.284 258.046 319.218 257.567 318.194C257.529 318.113 257.538 318.019 257.589 317.946C257.641 317.872 257.728 317.831 257.818 317.838C259.195 317.941 260.56 317.717 261.662 317.207C263.064 316.558 264.126 315.408 264.652 313.971C265.178 312.533 265.106 310.979 264.448 309.595C263.79 308.21 262.625 307.162 261.168 306.643C259.712 306.123 258.137 306.195 256.735 306.844C256.04 307.166 255.345 307.657 254.728 308.265C254.641 308.35 254.506 308.362 254.405 308.295C254.304 308.227 254.265 308.098 254.313 307.988L256.117 303.808C256.215 303.58 256.215 303.374 256.117 303.227C256.019 303.081 255.827 303 255.576 303H249.424C249.173 303 248.981 303.081 248.883 303.227C248.785 303.374 248.785 303.58 248.883 303.808L250.687 307.988C250.735 308.098 250.696 308.227 250.595 308.295C250.494 308.362 250.359 308.35 250.272 308.265C249.655 307.658 248.96 307.166 248.265 306.844C246.862 306.195 245.288 306.123 243.831 306.643C242.375 307.162 241.21 308.211 240.552 309.595C239.894 310.979 239.822 312.533 240.348 313.971C240.874 315.408 241.936 316.558 243.338 317.207C244.44 317.717 245.805 317.941 247.182 317.838C247.272 317.831 247.359 317.872 247.411 317.946C247.462 318.019 247.471 318.113 247.433 318.194C246.954 319.218 246.701 320.284 246.701 321.276C246.701 324.432 249.303 327 252.5 327C255.697 327 258.299 324.432 258.299 321.276Z" fill="#1A1919"/>
<path d="M111.774 166.857C111.774 171.86 113.049 177.233 115.461 182.395C115.652 182.803 115.61 183.281 115.35 183.65C115.09 184.02 114.651 184.226 114.197 184.191C107.256 183.672 100.377 184.801 94.8255 187.372C87.7588 190.645 82.4065 196.441 79.7539 203.689C77.1018 210.939 77.4673 218.774 80.7832 225.751C84.0994 232.731 89.969 238.015 97.3112 240.634C104.653 243.253 112.588 242.893 119.654 239.619C123.16 237.995 126.659 235.519 129.773 232.457C130.209 232.029 130.891 231.966 131.401 232.306C131.91 232.647 132.104 233.296 131.862 233.854L122.772 254.928C122.277 256.076 122.276 257.116 122.771 257.854C123.266 258.593 124.234 259 125.498 259H156.502C157.766 259 158.735 258.593 159.229 257.854C159.724 257.115 159.723 256.075 159.228 254.928L150.138 233.854C149.897 233.296 150.09 232.646 150.6 232.306C151.109 231.966 151.791 232.029 152.227 232.457C155.341 235.518 158.84 237.995 162.346 239.619C169.414 242.894 177.349 243.254 184.69 240.634C192.032 238.015 197.901 232.73 201.217 225.751C204.533 218.774 204.899 210.939 202.245 203.689C199.593 196.441 194.241 190.645 187.174 187.372C181.623 184.801 174.744 183.672 167.803 184.191C167.349 184.226 166.91 184.021 166.651 183.65C166.39 183.281 166.348 182.803 166.539 182.395C168.951 177.232 170.226 171.859 170.226 166.857C170.226 150.945 157.115 138 141 138C124.885 138 111.774 150.945 111.774 166.857Z" fill="#1A1919"/>
<g style="mix-blend-mode:lighten">
<rect x="78" y="138" width="63" height="121" fill="white" fill-opacity="0.2"/>
</g>
<path d="M34.4805 42.5C33.7253 43.3984 32.8203 44.1211 31.7656 44.668C30.724 45.2148 29.5781 45.4883 28.3281 45.4883C26.6875 45.4883 25.2552 45.0846 24.0313 44.2773C22.8203 43.4701 21.8828 42.3372 21.2188 40.8789C20.5547 39.4076 20.2227 37.7865 20.2227 36.0156C20.2227 34.1146 20.5807 32.4023 21.2969 30.8789C22.026 29.3555 23.0547 28.1901 24.3828 27.3828C25.7109 26.5755 27.2604 26.1719 29.0312 26.1719C31.8438 26.1719 34.0573 27.2266 35.6719 29.3359C37.2995 31.4323 38.1133 34.2969 38.1133 37.9297V38.9844C38.1133 44.5182 37.0195 48.5612 34.832 51.1133C32.6445 53.6523 29.3438 54.9544 24.9297 55.0195H24.2266V51.9727H24.9883C27.9701 51.9206 30.2617 51.1458 31.8633 49.6484C33.4648 48.138 34.3372 45.7552 34.4805 42.5ZM28.9141 42.5C30.125 42.5 31.2383 42.1289 32.2539 41.3867C33.2826 40.6445 34.0312 39.7266 34.5 38.6328V37.1875C34.5 34.8177 33.9857 32.8906 32.957 31.4062C31.9284 29.9219 30.6263 29.1797 29.0508 29.1797C27.4622 29.1797 26.1862 29.7917 25.2227 31.0156C24.2591 32.2266 23.7773 33.8281 23.7773 35.8203C23.7773 37.7604 24.2396 39.362 25.1641 40.625C26.1016 41.875 27.3516 42.5 28.9141 42.5Z" fill="#1A1919"/>
<path d="M23.7012 74.7236C23.7012 75.716 23.9542 76.7818 24.4328 77.8055C24.4706 77.8865 24.4623 77.9813 24.4107 78.0545C24.3591 78.1279 24.272 78.1688 24.1819 78.1619C22.8048 78.0589 21.4398 78.2828 20.3384 78.7928C18.9363 79.4421 17.8743 80.5915 17.348 82.0292C16.8218 83.4671 16.8943 85.0212 17.5522 86.4052C18.2102 87.7896 19.3748 88.8377 20.8316 89.3572C22.2883 89.8766 23.8627 89.8052 25.2647 89.1558C25.9602 88.8337 26.6545 88.3425 27.2724 87.7352C27.3589 87.6504 27.4942 87.6379 27.5954 87.7053C27.6964 87.773 27.7349 87.9016 27.6869 88.0124L25.8833 92.1923C25.7851 92.42 25.7849 92.6262 25.8832 92.7726C25.9813 92.9192 26.1734 93 26.4243 93H32.5758C32.8267 93 33.0188 92.9192 33.1169 92.7726C33.215 92.626 33.2149 92.4198 33.1167 92.1923L31.3132 88.0124C31.2652 87.9016 31.3036 87.7728 31.4048 87.7053C31.5058 87.6379 31.6411 87.6504 31.7276 87.7352C32.3454 88.3423 33.0396 88.8337 33.7353 89.1558C35.1376 89.8054 36.712 89.8768 38.1687 89.3572C39.6254 88.8377 40.79 87.7894 41.4477 86.4052C42.1057 85.0212 42.1783 83.4671 41.6518 82.0292C41.1256 80.5915 40.0637 79.4421 38.6615 78.7928C37.5602 78.2828 36.1953 78.0589 34.8181 78.1619C34.7279 78.1688 34.6409 78.128 34.5895 78.0545C34.5378 77.9813 34.5294 77.8865 34.5672 77.8055C35.0458 76.7816 35.2989 75.7158 35.2989 74.7236C35.2989 71.5675 32.6974 69 29.5 69C26.3025 69 23.7012 71.5675 23.7012 74.7236Z" fill="#1A1919"/>
</svg>
