<svg width="282" height="396" viewBox="0 0 282 396" fill="none" xmlns="http://www.w3.org/2000/svg">
<rect x="1" y="1" width="280" height="394" rx="20" fill="white"/>
<rect x="0.5" y="0.5" width="281" height="395" rx="20.5" stroke="black" stroke-opacity="0.05"/>
<path d="M247.52 353.5C248.275 352.602 249.18 351.879 250.234 351.332C251.276 350.785 252.422 350.512 253.672 350.512C255.312 350.512 256.745 350.915 257.969 351.723C259.18 352.53 260.117 353.663 260.781 355.121C261.445 356.592 261.777 358.214 261.777 359.984C261.777 361.885 261.419 363.598 260.703 365.121C259.974 366.645 258.945 367.81 257.617 368.617C256.289 369.424 254.74 369.828 252.969 369.828C250.156 369.828 247.943 368.773 246.328 366.664C244.701 364.568 243.887 361.703 243.887 358.07V357.016C243.887 351.482 244.98 347.439 247.168 344.887C249.355 342.348 252.656 341.046 257.07 340.98H257.773V344.027H257.012C254.03 344.079 251.738 344.854 250.137 346.352C248.535 347.862 247.663 350.245 247.52 353.5ZM253.086 353.5C251.875 353.5 250.762 353.871 249.746 354.613C248.717 355.355 247.969 356.273 247.5 357.367V358.812C247.5 361.182 248.014 363.109 249.043 364.594C250.072 366.078 251.374 366.82 252.949 366.82C254.538 366.82 255.814 366.208 256.777 364.984C257.741 363.773 258.223 362.172 258.223 360.18C258.223 358.24 257.76 356.638 256.836 355.375C255.898 354.125 254.648 353.5 253.086 353.5Z" fill="#F24822"/>
<path d="M253.18 326.677L262.706 315.824C263.098 315.377 263.098 314.623 262.706 314.176L253.18 303.323C252.998 303.115 252.756 303 252.5 303C252.244 303 252.002 303.115 251.82 303.323L242.294 314.176C241.902 314.623 241.902 315.377 242.294 315.824L251.82 326.677C252.002 326.885 252.244 327 252.5 327C252.756 327 252.998 326.885 253.18 326.677Z" fill="#F24822"/>
<path d="M137.566 139.629L89.4835 194.347C87.5055 196.598 87.5055 200.403 89.4835 202.654L137.566 257.372C138.488 258.422 139.708 259 141 259C142.292 259 143.513 258.422 144.434 257.372L192.517 202.654C194.494 200.403 194.494 196.598 192.517 194.347L144.434 139.629C143.513 138.578 142.292 138 141 138C139.708 138 138.489 138.578 137.566 139.629Z" fill="#F24822"/>
<g style="mix-blend-mode:lighten">
<rect x="78" y="138" width="63" height="121" fill="white" fill-opacity="0.2"/>
</g>
<path d="M34.4805 42.5C33.7253 43.3984 32.8203 44.1211 31.7656 44.668C30.724 45.2148 29.5781 45.4883 28.3281 45.4883C26.6875 45.4883 25.2552 45.0846 24.0313 44.2773C22.8203 43.4701 21.8828 42.3372 21.2188 40.8789C20.5547 39.4076 20.2227 37.7865 20.2227 36.0156C20.2227 34.1146 20.5807 32.4023 21.2969 30.8789C22.026 29.3555 23.0547 28.1901 24.3828 27.3828C25.7109 26.5755 27.2604 26.1719 29.0312 26.1719C31.8438 26.1719 34.0573 27.2266 35.6719 29.3359C37.2995 31.4323 38.1133 34.2969 38.1133 37.9297V38.9844C38.1133 44.5182 37.0195 48.5612 34.832 51.1133C32.6445 53.6523 29.3438 54.9544 24.9297 55.0195H24.2266V51.9727H24.9883C27.9701 51.9206 30.2617 51.1458 31.8633 49.6484C33.4648 48.138 34.3372 45.7552 34.4805 42.5ZM28.9141 42.5C30.125 42.5 31.2383 42.1289 32.2539 41.3867C33.2826 40.6445 34.0312 39.7266 34.5 38.6328V37.1875C34.5 34.8177 33.9857 32.8906 32.957 31.4062C31.9284 29.9219 30.6263 29.1797 29.0508 29.1797C27.4622 29.1797 26.1862 29.7917 25.2227 31.0156C24.2591 32.2266 23.7773 33.8281 23.7773 35.8203C23.7773 37.7604 24.2396 39.362 25.1641 40.625C26.1016 41.875 27.3516 42.5 28.9141 42.5Z" fill="#F24822"/>
<path d="M28.8196 69.3231L19.2939 80.1763C18.902 80.6228 18.902 81.3774 19.2939 81.8239L28.8196 92.6771C29.0023 92.8853 29.244 93 29.5 93C29.756 93 29.9978 92.8853 30.1804 92.6771L39.7062 81.8239C40.0979 81.3774 40.0979 80.6228 39.7062 80.1763L30.1804 69.3231C29.9978 69.1147 29.756 69 29.5 69C29.244 69 29.0025 69.1147 28.8196 69.3231Z" fill="#F24822"/>
</svg>
