<svg width="282" height="396" viewBox="0 0 282 396" fill="none" xmlns="http://www.w3.org/2000/svg">
<rect x="1" y="1" width="280" height="394" rx="20" fill="white"/>
<rect x="0.5" y="0.5" width="281" height="395" rx="20.5" stroke="black" stroke-opacity="0.05"/>
<path d="M247.52 353.5C248.275 352.602 249.18 351.879 250.234 351.332C251.276 350.785 252.422 350.512 253.672 350.512C255.313 350.512 256.745 350.915 257.969 351.723C259.18 352.53 260.117 353.663 260.781 355.121C261.445 356.592 261.777 358.214 261.777 359.984C261.777 361.885 261.419 363.598 260.703 365.121C259.974 366.645 258.945 367.81 257.617 368.617C256.289 369.424 254.74 369.828 252.969 369.828C250.156 369.828 247.943 368.773 246.328 366.664C244.701 364.568 243.887 361.703 243.887 358.07V357.016C243.887 351.482 244.98 347.439 247.168 344.887C249.355 342.348 252.656 341.046 257.07 340.98H257.773V344.027H257.012C254.03 344.079 251.738 344.854 250.137 346.352C248.535 347.862 247.663 350.245 247.52 353.5ZM253.086 353.5C251.875 353.5 250.762 353.871 249.746 354.613C248.717 355.355 247.969 356.273 247.5 357.367V358.813C247.5 361.182 248.014 363.109 249.043 364.594C250.072 366.078 251.374 366.82 252.949 366.82C254.538 366.82 255.814 366.208 256.777 364.984C257.741 363.773 258.223 362.172 258.223 360.18C258.223 358.24 257.76 356.638 256.836 355.375C255.898 354.125 254.648 353.5 253.086 353.5Z" fill="#F24822"/>
<path d="M259.092 325.975C261.414 325.745 263.452 324.144 264.411 321.797C264.705 321.077 265 320.022 265 318.688C265 316.917 264.48 314.656 262.744 312.04C258.065 304.987 252.909 304.063 252.5 304C252.091 304.063 246.935 304.987 242.256 312.04C240.521 314.656 240 316.917 240 318.688C240 320.022 240.295 321.077 240.589 321.797C241.548 324.144 243.586 325.745 245.908 325.975C250.13 326.394 252.247 321.392 252.268 321.341L252.5 320.78L252.732 321.341C252.753 321.392 254.87 326.394 259.092 325.975Z" fill="#F24822"/>
<path d="M107.776 143.125C96.0719 144.286 85.8005 152.365 80.9701 164.207C79.4887 167.837 78 173.163 78 179.894C78 188.827 80.623 200.234 89.3718 213.436C112.953 249.018 138.94 253.685 141 254C143.061 253.685 169.048 249.018 192.628 213.436C201.376 200.234 204 188.826 204 179.894C204 173.163 202.511 167.837 201.03 164.206C196.199 152.363 185.928 144.286 174.224 143.125C152.944 141.014 142.276 166.249 142.17 166.505L141.001 169.338L139.831 166.505C139.725 166.249 129.055 141.014 107.776 143.125Z" fill="#F24822"/>
<g style="mix-blend-mode:lighten">
<rect x="78" y="138" width="63" height="121" fill="white" fill-opacity="0.2"/>
</g>
<path d="M34.4805 42.5C33.7253 43.3984 32.8203 44.1211 31.7656 44.668C30.724 45.2148 29.5781 45.4883 28.3281 45.4883C26.6875 45.4883 25.2552 45.0846 24.0312 44.2773C22.8203 43.47 21.8828 42.3372 21.2187 40.8789C20.5547 39.4075 20.2227 37.7865 20.2227 36.0156C20.2227 34.1146 20.5807 32.4023 21.2969 30.8789C22.026 29.3555 23.0547 28.1901 24.3828 27.3828C25.7109 26.5755 27.2604 26.1719 29.0312 26.1719C31.8437 26.1719 34.0573 27.2266 35.6719 29.3359C37.2995 31.4323 38.1133 34.2969 38.1133 37.9297V38.9844C38.1133 44.5182 37.0195 48.5612 34.832 51.1133C32.6445 53.6523 29.3437 54.9544 24.9297 55.0195H24.2266V51.9727H24.9883C27.9701 51.9206 30.2617 51.1458 31.8633 49.6484C33.4648 48.138 34.3372 45.7552 34.4805 42.5ZM28.9141 42.5C30.125 42.5 31.2383 42.1289 32.2539 41.3867C33.2826 40.6445 34.0312 39.7266 34.5 38.6328V37.1875C34.5 34.8177 33.9857 32.8906 32.957 31.4062C31.9284 29.9219 30.6263 29.1797 29.0508 29.1797C27.4622 29.1797 26.1862 29.7917 25.2227 31.0156C24.2591 32.2266 23.7773 33.8281 23.7773 35.8203C23.7773 37.7604 24.2396 39.362 25.1641 40.625C26.1016 41.875 27.3516 42.5 28.9141 42.5Z" fill="#F24822"/>
<path d="M22.908 70.0249C20.5857 70.2549 18.5477 71.856 17.5893 74.2031C17.2954 74.9227 17 75.9783 17 77.3123C17 79.0828 17.5204 81.3437 19.2563 83.9602C23.9351 91.0126 29.0913 91.9375 29.5 92C29.909 91.9375 35.065 91.0125 39.7437 83.9602C41.4794 81.3437 42 79.0827 42 77.3123C42 75.9782 41.7046 74.9226 41.4108 74.2029C40.4523 71.8557 38.4142 70.2548 36.0922 70.0249C31.8699 69.6064 29.7531 74.6079 29.7321 74.6586L29.5002 75.2201L29.2681 74.6586C29.2471 74.6079 27.13 69.6064 22.908 70.0249Z" fill="#F24822"/>
</svg>
