<svg width="282" height="396" viewBox="0 0 282 396" fill="none" xmlns="http://www.w3.org/2000/svg">
<rect x="1" y="1" width="280" height="394" rx="20" fill="white"/>
<rect x="0.5" y="0.5" width="281" height="395" rx="20.5" stroke="black" stroke-opacity="0.05"/>
<path d="M241.23 354.301C241.23 351.553 241.667 349.184 242.539 347.191C243.411 345.212 244.635 343.663 246.211 342.543L241.133 338.559L243.691 336.195L249.688 340.961C250.625 340.727 251.615 340.609 252.656 340.609C254.896 340.609 256.882 341.156 258.613 342.25C260.345 343.357 261.693 344.926 262.656 346.957C263.607 349.001 264.095 351.365 264.121 354.047V356.098C264.121 358.832 263.646 361.247 262.695 363.344C261.745 365.44 260.404 367.042 258.672 368.148C256.927 369.268 254.935 369.828 252.695 369.828C250.404 369.828 248.392 369.275 246.66 368.168C244.915 367.061 243.574 365.466 242.637 363.383C241.699 361.312 241.23 358.891 241.23 356.117V354.301ZM244.98 356.137C244.98 359.483 245.651 362.061 246.992 363.871C248.32 365.694 250.221 366.605 252.695 366.605C255.052 366.605 256.914 365.701 258.281 363.891C259.635 362.094 260.332 359.594 260.371 356.391V354.301C260.371 351.046 259.694 348.48 258.34 346.605C256.973 344.73 255.078 343.793 252.656 343.793C250.234 343.793 248.359 344.672 247.031 346.43C245.703 348.201 245.02 350.733 244.98 354.027V356.137Z" fill="#F24822"/>
<path d="M253.18 326.677L262.706 315.824C263.098 315.377 263.098 314.623 262.706 314.176L253.18 303.323C252.998 303.115 252.756 303 252.5 303C252.244 303 252.002 303.115 251.82 303.323L242.294 314.176C241.902 314.623 241.902 315.377 242.294 315.824L251.82 326.677C252.002 326.885 252.244 327 252.5 327C252.756 327 252.998 326.885 253.18 326.677Z" fill="#F24822"/>
<path d="M137.566 139.629L89.4835 194.347C87.5055 196.598 87.5055 200.403 89.4835 202.654L137.566 257.372C138.488 258.422 139.708 259 141 259C142.292 259 143.513 258.422 144.434 257.372L192.517 202.654C194.494 200.403 194.494 196.598 192.517 194.347L144.434 139.629C143.513 138.578 142.292 138 141 138C139.708 138 138.489 138.578 137.566 139.629Z" fill="#F24822"/>
<g style="mix-blend-mode:lighten">
<rect x="78" y="138" width="63" height="121" fill="white" fill-opacity="0.2"/>
</g>
<path d="M40.7695 41.6992C40.7695 44.4466 40.3333 46.8164 39.4609 48.8086C38.5885 50.7878 37.3646 52.3372 35.7891 53.457L40.8672 57.4414L38.3086 59.8047L32.3125 55.0391C31.375 55.2734 30.3854 55.3906 29.3438 55.3906C27.1042 55.3906 25.1185 54.8438 23.3867 53.75C21.6549 52.6432 20.3073 51.0742 19.3438 49.043C18.3932 46.9987 17.9049 44.6354 17.8789 41.9531V39.9023C17.8789 37.168 18.3542 34.7526 19.3047 32.6562C20.2552 30.5599 21.5964 28.9583 23.3281 27.8516C25.0729 26.7318 27.0651 26.1719 29.3047 26.1719C31.5964 26.1719 33.6081 26.7253 35.3398 27.832C37.0846 28.9388 38.4258 30.5339 39.3633 32.6172C40.3008 34.6875 40.7695 37.1094 40.7695 39.8828V41.6992ZM37.0195 39.8633C37.0195 36.5169 36.349 33.9388 35.0078 32.1289C33.6797 30.306 31.7786 29.3945 29.3047 29.3945C26.9479 29.3945 25.0859 30.2995 23.7188 32.1094C22.3646 33.9062 21.668 36.4062 21.6289 39.6094V41.6992C21.6289 44.9544 22.306 47.5195 23.6602 49.3945C25.0273 51.2695 26.9219 52.207 29.3438 52.207C31.7656 52.207 33.6406 51.3281 34.9688 49.5703C36.2969 47.7995 36.9805 45.2669 37.0195 41.9727V39.8633Z" fill="#F24822"/>
<path d="M28.8196 69.3231L19.2939 80.1763C18.902 80.6228 18.902 81.3774 19.2939 81.8239L28.8196 92.6771C29.0023 92.8853 29.244 93 29.5 93C29.756 93 29.9978 92.8853 30.1804 92.6771L39.7062 81.8239C40.0979 81.3774 40.0979 80.6228 39.7062 80.1763L30.1804 69.3231C29.9978 69.1147 29.756 69 29.5 69C29.244 69 29.0025 69.1147 28.8196 69.3231Z" fill="#F24822"/>
</svg>
