<svg width="282" height="396" viewBox="0 0 282 396" fill="none" xmlns="http://www.w3.org/2000/svg">
<rect x="1" y="1" width="280" height="394" rx="20" fill="white"/>
<rect x="0.5" y="0.5" width="281" height="395" rx="20.5" stroke="black" stroke-opacity="0.05"/>
<path d="M241.23 354.301C241.23 351.553 241.667 349.184 242.539 347.191C243.411 345.212 244.635 343.663 246.211 342.543L241.133 338.559L243.691 336.195L249.688 340.961C250.625 340.727 251.615 340.609 252.656 340.609C254.896 340.609 256.882 341.156 258.613 342.25C260.345 343.357 261.693 344.926 262.656 346.957C263.607 349.001 264.095 351.365 264.121 354.047V356.098C264.121 358.832 263.646 361.247 262.695 363.344C261.745 365.44 260.404 367.042 258.672 368.148C256.927 369.268 254.935 369.828 252.695 369.828C250.404 369.828 248.392 369.275 246.66 368.168C244.915 367.061 243.574 365.466 242.637 363.383C241.699 361.312 241.23 358.891 241.23 356.117V354.301ZM244.98 356.137C244.98 359.483 245.651 362.061 246.992 363.871C248.32 365.694 250.221 366.605 252.695 366.605C255.052 366.605 256.914 365.701 258.281 363.891C259.635 362.094 260.332 359.594 260.371 356.391V354.301C260.371 351.046 259.694 348.48 258.34 346.605C256.973 344.73 255.078 343.793 252.656 343.793C250.234 343.793 248.359 344.672 247.031 346.43C245.703 348.201 245.02 350.733 244.98 354.027V356.137Z" fill="#1A1919"/>
<path d="M257.674 321.82L258.158 321.29C263.26 315.709 265.821 312.907 264.765 309.586C264.378 308.37 263.452 307.386 262.157 306.815C260.525 306.095 258.484 306.112 256.832 306.859C256.115 307.182 255.4 307.676 254.764 308.286C254.716 308.331 254.653 308.357 254.586 308.357H254.548C254.463 308.357 254.383 308.314 254.336 308.243C254.288 308.173 254.28 308.083 254.314 308.005L256.118 303.811C256.216 303.582 256.216 303.375 256.118 303.228C256.02 303.081 255.828 303 255.577 303H249.423C249.172 303 248.98 303.081 248.882 303.228C248.784 303.375 248.784 303.582 248.882 303.811L250.686 308.005C250.72 308.083 250.712 308.173 250.664 308.243C250.617 308.314 250.537 308.357 250.452 308.357H250.413C250.347 308.357 250.284 308.331 250.236 308.286C249.6 307.676 248.885 307.182 248.168 306.859C246.516 306.112 244.475 306.095 242.843 306.815C241.548 307.386 240.621 308.37 240.235 309.586C240.077 310.082 240 310.567 240 311.05C240 313.806 242.502 316.542 246.842 321.29L247.326 321.82C249.963 324.706 251.938 326.502 252.5 327C253.062 326.502 255.037 324.706 257.674 321.82Z" fill="#1A1919"/>
<path d="M114.923 164.117L112.485 166.786C86.7676 194.926 73.8598 209.051 79.1833 225.793C81.1324 231.927 85.8003 236.889 92.3274 239.768C100.553 243.396 110.838 243.31 119.169 239.545C122.779 237.913 126.384 235.426 129.59 232.352C129.83 232.122 130.151 231.993 130.485 231.993H130.676C131.108 231.993 131.51 232.208 131.749 232.565C131.987 232.921 132.028 233.373 131.859 233.766L122.765 254.913C122.27 256.065 122.269 257.107 122.764 257.849C123.259 258.591 124.228 259 125.493 259H156.508C157.772 259 158.741 258.592 159.236 257.85C159.731 257.108 159.731 256.065 159.235 254.913L150.141 233.766C149.971 233.373 150.014 232.921 150.252 232.565C150.49 232.208 150.892 231.993 151.324 231.993H151.516C151.85 231.993 152.17 232.122 152.41 232.352C155.617 235.426 159.221 237.913 162.831 239.545C171.161 243.31 181.445 243.396 189.672 239.768C196.199 236.889 200.868 231.927 202.816 225.793C203.611 223.294 204 220.852 204 218.413C204 204.52 191.392 190.724 169.516 166.786L167.076 164.117C153.788 149.565 143.832 140.513 141 138C138.168 140.513 128.212 149.565 114.923 164.117Z" fill="#1A1919"/>
<g style="mix-blend-mode:lighten">
<rect x="78" y="138" width="63" height="121" fill="white" fill-opacity="0.2"/>
</g>
<path d="M40.7695 41.6992C40.7695 44.4466 40.3333 46.8164 39.4609 48.8086C38.5885 50.7878 37.3646 52.3372 35.7891 53.457L40.8672 57.4414L38.3086 59.8047L32.3125 55.0391C31.375 55.2734 30.3854 55.3906 29.3438 55.3906C27.1042 55.3906 25.1185 54.8438 23.3867 53.75C21.6549 52.6432 20.3073 51.0742 19.3438 49.043C18.3932 46.9987 17.9049 44.6354 17.8789 41.9531V39.9023C17.8789 37.168 18.3542 34.7526 19.3047 32.6562C20.2552 30.5599 21.5964 28.9583 23.3281 27.8516C25.0729 26.7318 27.0651 26.1719 29.3047 26.1719C31.5964 26.1719 33.6081 26.7253 35.3398 27.832C37.0846 28.9388 38.4258 30.5339 39.3633 32.6172C40.3008 34.6875 40.7695 37.1094 40.7695 39.8828V41.6992ZM37.0195 39.8633C37.0195 36.5169 36.349 33.9388 35.0078 32.1289C33.6797 30.306 31.7786 29.3945 29.3047 29.3945C26.9479 29.3945 25.0859 30.2995 23.7188 32.1094C22.3646 33.9062 21.668 36.4062 21.6289 39.6094V41.6992C21.6289 44.9544 22.306 47.5195 23.6602 49.3945C25.0273 51.2695 26.9219 52.207 29.3438 52.207C31.7656 52.207 33.6406 51.3281 34.9688 49.5703C36.2969 47.7995 36.9805 45.2669 37.0195 41.9727V39.8633Z" fill="#1A1919"/>
<path d="M24.3261 74.1802L23.8422 74.7097C18.7396 80.2912 16.1785 83.0928 17.2348 86.4135C17.6215 87.6301 18.5477 88.6143 19.8427 89.1853C21.4749 89.9049 23.5156 89.888 25.1684 89.1412C25.8848 88.8175 26.5999 88.3241 27.2362 87.7145C27.2838 87.6687 27.3473 87.6432 27.4136 87.6432H27.4516C27.5374 87.6432 27.6171 87.6858 27.6644 87.7567C27.7117 87.8274 27.7199 87.9169 27.6863 87.995L25.8819 92.1894C25.7836 92.4179 25.7835 92.6246 25.8817 92.7717C25.9799 92.9189 26.1722 93 26.4231 93H32.5769C32.8278 93 33.0201 92.9191 33.1182 92.7719C33.2164 92.6248 33.2164 92.4179 33.1181 92.1894L31.3137 87.995C31.2801 87.9169 31.2885 87.8273 31.3357 87.7567C31.3829 87.6858 31.4628 87.6432 31.5485 87.6432H31.5865C31.6528 87.6432 31.7162 87.6687 31.7639 87.7145C32.4002 88.3241 33.1152 88.8175 33.8316 89.1412C35.4843 89.888 37.5248 89.9049 39.1571 89.1853C40.4523 88.6143 41.3785 87.6301 41.7651 86.4135C41.9228 85.9178 42 85.4334 42 84.9497C42 82.1941 39.4984 79.4577 35.1579 74.7097L34.6739 74.1802C32.0374 71.2938 30.0619 69.4984 29.5 69C28.9381 69.4984 26.9627 71.2938 24.3261 74.1802Z" fill="#1A1919"/>
</svg>
