<svg width="282" height="396" viewBox="0 0 282 396" fill="none" xmlns="http://www.w3.org/2000/svg">
<rect x="1" y="1" width="280" height="394" rx="20" fill="white"/>
<rect x="0.5" y="0.5" width="281" height="395" rx="20.5" stroke="black" stroke-opacity="0.05"/>
<path d="M241.23 354.301C241.23 351.553 241.667 349.184 242.539 347.191C243.411 345.212 244.635 343.663 246.211 342.543L241.133 338.559L243.691 336.195L249.688 340.961C250.625 340.727 251.615 340.609 252.656 340.609C254.896 340.609 256.882 341.156 258.613 342.25C260.345 343.357 261.693 344.926 262.656 346.957C263.607 349.001 264.095 351.365 264.121 354.047V356.098C264.121 358.832 263.646 361.247 262.695 363.344C261.745 365.44 260.404 367.042 258.672 368.148C256.927 369.268 254.935 369.828 252.695 369.828C250.404 369.828 248.392 369.275 246.66 368.168C244.915 367.061 243.574 365.466 242.637 363.383C241.699 361.313 241.23 358.891 241.23 356.117V354.301ZM244.98 356.137C244.98 359.483 245.651 362.061 246.992 363.871C248.32 365.694 250.221 366.605 252.695 366.605C255.052 366.605 256.914 365.701 258.281 363.891C259.635 362.094 260.332 359.594 260.371 356.391V354.301C260.371 351.046 259.694 348.48 258.34 346.605C256.973 344.73 255.078 343.793 252.656 343.793C250.234 343.793 248.359 344.672 247.031 346.43C245.703 348.201 245.02 350.733 244.98 354.027V356.137Z" fill="#F24822"/>
<path d="M259.092 325.975C261.414 325.745 263.452 324.144 264.411 321.797C264.705 321.077 265 320.022 265 318.688C265 316.917 264.48 314.656 262.744 312.04C258.065 304.987 252.909 304.063 252.5 304C252.091 304.063 246.935 304.987 242.256 312.04C240.521 314.656 240 316.917 240 318.688C240 320.022 240.295 321.077 240.589 321.797C241.548 324.144 243.586 325.745 245.908 325.975C250.13 326.394 252.247 321.392 252.268 321.341L252.5 320.78L252.732 321.341C252.753 321.392 254.87 326.394 259.092 325.975Z" fill="#F24822"/>
<path d="M107.776 143.125C96.0719 144.286 85.8005 152.365 80.9701 164.207C79.4887 167.837 78 173.163 78 179.894C78 188.827 80.623 200.234 89.3718 213.436C112.953 249.018 138.94 253.685 141 254C143.061 253.685 169.048 249.018 192.628 213.436C201.376 200.234 204 188.826 204 179.894C204 173.163 202.511 167.837 201.03 164.206C196.199 152.363 185.928 144.286 174.224 143.125C152.944 141.014 142.276 166.249 142.17 166.505L141.001 169.338L139.831 166.505C139.725 166.249 129.055 141.014 107.776 143.125Z" fill="#F24822"/>
<g style="mix-blend-mode:lighten">
<rect x="78" y="138" width="63" height="121" fill="white" fill-opacity="0.2"/>
</g>
<path d="M40.7695 41.6992C40.7695 44.4466 40.3333 46.8164 39.4609 48.8086C38.5885 50.7878 37.3646 52.3372 35.7891 53.457L40.8672 57.4414L38.3086 59.8047L32.3125 55.0391C31.375 55.2734 30.3854 55.3906 29.3437 55.3906C27.1042 55.3906 25.1185 54.8437 23.3867 53.75C21.6549 52.6432 20.3073 51.0742 19.3437 49.043C18.3932 46.9987 17.9049 44.6354 17.8789 41.9531V39.9023C17.8789 37.168 18.3542 34.7526 19.3047 32.6562C20.2552 30.5599 21.5964 28.9583 23.3281 27.8516C25.0729 26.7318 27.0651 26.1719 29.3047 26.1719C31.5964 26.1719 33.6081 26.7253 35.3398 27.832C37.0846 28.9388 38.4258 30.5339 39.3633 32.6172C40.3008 34.6875 40.7695 37.1094 40.7695 39.8828V41.6992ZM37.0195 39.8633C37.0195 36.5169 36.349 33.9388 35.0078 32.1289C33.6797 30.306 31.7786 29.3945 29.3047 29.3945C26.9479 29.3945 25.0859 30.2995 23.7187 32.1094C22.3646 33.9062 21.668 36.4062 21.6289 39.6094V41.6992C21.6289 44.9544 22.306 47.5195 23.6602 49.3945C25.0273 51.2695 26.9219 52.207 29.3437 52.207C31.7656 52.207 33.6406 51.3281 34.9687 49.5703C36.2969 47.7995 36.9805 45.2669 37.0195 41.9727V39.8633Z" fill="#F24822"/>
<path d="M22.908 70.0249C20.5857 70.2549 18.5477 71.856 17.5893 74.2031C17.2954 74.9227 17 75.9783 17 77.3123C17 79.0828 17.5204 81.3437 19.2563 83.9602C23.9351 91.0126 29.0913 91.9375 29.5 92C29.909 91.9375 35.065 91.0125 39.7437 83.9602C41.4794 81.3437 42 79.0827 42 77.3123C42 75.9782 41.7046 74.9226 41.4108 74.2029C40.4523 71.8557 38.4142 70.2548 36.0922 70.0249C31.8699 69.6064 29.7531 74.6079 29.7321 74.6586L29.5002 75.2201L29.2681 74.6586C29.2471 74.6079 27.13 69.6064 22.908 70.0249Z" fill="#F24822"/>
</svg>
