<svg width="282" height="396" viewBox="0 0 282 396" fill="none" xmlns="http://www.w3.org/2000/svg">
<rect x="1" y="1" width="280" height="394" rx="20" fill="white"/>
<rect x="0.5" y="0.5" width="281" height="395" rx="20.5" stroke="black" stroke-opacity="0.05"/>
<path d="M241.23 354.301C241.23 351.553 241.667 349.184 242.539 347.191C243.411 345.212 244.635 343.663 246.211 342.543L241.133 338.559L243.691 336.195L249.688 340.961C250.625 340.727 251.615 340.609 252.656 340.609C254.896 340.609 256.882 341.156 258.613 342.25C260.345 343.357 261.693 344.926 262.656 346.957C263.607 349.001 264.095 351.365 264.121 354.047V356.098C264.121 358.832 263.646 361.247 262.695 363.344C261.745 365.44 260.404 367.042 258.672 368.148C256.927 369.268 254.935 369.828 252.695 369.828C250.404 369.828 248.392 369.275 246.66 368.168C244.915 367.061 243.574 365.466 242.637 363.383C241.699 361.312 241.23 358.891 241.23 356.117V354.301ZM244.98 356.137C244.98 359.483 245.651 362.061 246.992 363.871C248.32 365.694 250.221 366.605 252.695 366.605C255.052 366.605 256.914 365.701 258.281 363.891C259.635 362.094 260.332 359.594 260.371 356.391V354.301C260.371 351.046 259.694 348.48 258.34 346.605C256.973 344.73 255.078 343.793 252.656 343.793C250.234 343.793 248.359 344.672 247.031 346.43C245.703 348.201 245.02 350.733 244.98 354.027V356.137Z" fill="#1A1919"/>
<path d="M258.299 321.276C258.299 320.284 258.046 319.218 257.567 318.194C257.529 318.113 257.538 318.019 257.589 317.946C257.641 317.872 257.728 317.831 257.818 317.838C259.195 317.941 260.56 317.717 261.662 317.207C263.064 316.558 264.126 315.408 264.652 313.971C265.178 312.533 265.106 310.979 264.448 309.595C263.79 308.21 262.625 307.162 261.168 306.643C259.712 306.123 258.137 306.195 256.735 306.844C256.04 307.166 255.345 307.657 254.728 308.265C254.641 308.35 254.506 308.362 254.405 308.295C254.304 308.227 254.265 308.098 254.313 307.988L256.117 303.808C256.215 303.58 256.215 303.374 256.117 303.227C256.019 303.081 255.827 303 255.576 303H249.424C249.173 303 248.981 303.081 248.883 303.227C248.785 303.374 248.785 303.58 248.883 303.808L250.687 307.988C250.735 308.098 250.696 308.227 250.595 308.295C250.494 308.362 250.359 308.35 250.272 308.265C249.655 307.658 248.96 307.166 248.265 306.844C246.862 306.195 245.288 306.123 243.831 306.643C242.375 307.162 241.21 308.211 240.552 309.595C239.894 310.979 239.822 312.533 240.348 313.971C240.874 315.408 241.936 316.558 243.338 317.207C244.44 317.717 245.805 317.941 247.182 317.838C247.272 317.831 247.359 317.872 247.411 317.946C247.462 318.019 247.471 318.113 247.433 318.194C246.954 319.218 246.701 320.284 246.701 321.276C246.701 324.432 249.303 327 252.5 327C255.697 327 258.299 324.432 258.299 321.276Z" fill="#1A1919"/>
<path d="M111.774 166.857C111.774 171.86 113.049 177.233 115.461 182.395C115.652 182.803 115.61 183.281 115.35 183.65C115.09 184.02 114.651 184.226 114.197 184.191C107.256 183.672 100.377 184.801 94.8255 187.372C87.7588 190.645 82.4065 196.441 79.7539 203.689C77.1018 210.939 77.4673 218.774 80.7832 225.751C84.0994 232.731 89.969 238.015 97.3112 240.634C104.653 243.253 112.588 242.893 119.654 239.619C123.16 237.995 126.659 235.519 129.773 232.457C130.209 232.029 130.891 231.966 131.401 232.306C131.91 232.647 132.104 233.296 131.862 233.854L122.772 254.928C122.277 256.076 122.276 257.116 122.771 257.854C123.266 258.593 124.234 259 125.498 259H156.502C157.766 259 158.735 258.593 159.229 257.854C159.724 257.115 159.723 256.075 159.228 254.928L150.138 233.854C149.897 233.296 150.09 232.646 150.6 232.306C151.109 231.966 151.791 232.029 152.227 232.457C155.341 235.518 158.84 237.995 162.346 239.619C169.414 242.894 177.349 243.254 184.69 240.634C192.032 238.015 197.901 232.73 201.217 225.751C204.533 218.774 204.899 210.939 202.245 203.689C199.593 196.441 194.241 190.645 187.174 187.372C181.623 184.801 174.744 183.672 167.803 184.191C167.349 184.226 166.91 184.021 166.651 183.65C166.39 183.281 166.348 182.803 166.539 182.395C168.951 177.232 170.226 171.859 170.226 166.857C170.226 150.945 157.115 138 141 138C124.885 138 111.774 150.945 111.774 166.857Z" fill="#1A1919"/>
<g style="mix-blend-mode:lighten">
<rect x="78" y="138" width="63" height="121" fill="white" fill-opacity="0.2"/>
</g>
<path d="M40.7695 41.6992C40.7695 44.4466 40.3333 46.8164 39.4609 48.8086C38.5885 50.7878 37.3646 52.3372 35.7891 53.457L40.8672 57.4414L38.3086 59.8047L32.3125 55.0391C31.375 55.2734 30.3854 55.3906 29.3438 55.3906C27.1042 55.3906 25.1185 54.8438 23.3867 53.75C21.6549 52.6432 20.3073 51.0742 19.3438 49.043C18.3932 46.9987 17.9049 44.6354 17.8789 41.9531V39.9023C17.8789 37.168 18.3542 34.7526 19.3047 32.6562C20.2552 30.5599 21.5964 28.9583 23.3281 27.8516C25.0729 26.7318 27.0651 26.1719 29.3047 26.1719C31.5964 26.1719 33.6081 26.7253 35.3398 27.832C37.0846 28.9388 38.4258 30.5339 39.3633 32.6172C40.3008 34.6875 40.7695 37.1094 40.7695 39.8828V41.6992ZM37.0195 39.8633C37.0195 36.5169 36.349 33.9388 35.0078 32.1289C33.6797 30.306 31.7786 29.3945 29.3047 29.3945C26.9479 29.3945 25.0859 30.2995 23.7188 32.1094C22.3646 33.9062 21.668 36.4062 21.6289 39.6094V41.6992C21.6289 44.9544 22.306 47.5195 23.6602 49.3945C25.0273 51.2695 26.9219 52.207 29.3438 52.207C31.7656 52.207 33.6406 51.3281 34.9688 49.5703C36.2969 47.7995 36.9805 45.2669 37.0195 41.9727V39.8633Z" fill="#1A1919"/>
<path d="M23.7012 74.7236C23.7012 75.716 23.9542 76.7818 24.4328 77.8055C24.4706 77.8865 24.4623 77.9813 24.4107 78.0545C24.3591 78.1279 24.272 78.1688 24.1819 78.1619C22.8048 78.0589 21.4398 78.2828 20.3384 78.7928C18.9363 79.4421 17.8743 80.5915 17.348 82.0292C16.8218 83.4671 16.8943 85.0212 17.5522 86.4052C18.2102 87.7896 19.3748 88.8377 20.8316 89.3572C22.2883 89.8766 23.8627 89.8052 25.2647 89.1558C25.9602 88.8337 26.6545 88.3425 27.2724 87.7352C27.3589 87.6504 27.4942 87.6379 27.5954 87.7053C27.6964 87.773 27.7349 87.9016 27.6869 88.0124L25.8833 92.1923C25.7851 92.42 25.7849 92.6262 25.8832 92.7726C25.9813 92.9192 26.1734 93 26.4243 93H32.5758C32.8267 93 33.0188 92.9192 33.1169 92.7726C33.215 92.626 33.2149 92.4198 33.1167 92.1923L31.3132 88.0124C31.2652 87.9016 31.3036 87.7728 31.4048 87.7053C31.5058 87.6379 31.6411 87.6504 31.7276 87.7352C32.3454 88.3423 33.0396 88.8337 33.7353 89.1558C35.1376 89.8054 36.712 89.8768 38.1687 89.3572C39.6254 88.8377 40.79 87.7894 41.4477 86.4052C42.1057 85.0212 42.1783 83.4671 41.6518 82.0292C41.1256 80.5915 40.0637 79.4421 38.6615 78.7928C37.5602 78.2828 36.1953 78.0589 34.8181 78.1619C34.7279 78.1688 34.6409 78.128 34.5895 78.0545C34.5378 77.9813 34.5294 77.8865 34.5672 77.8055C35.0458 76.7816 35.2989 75.7158 35.2989 74.7236C35.2989 71.5675 32.6974 69 29.5 69C26.3025 69 23.7012 71.5675 23.7012 74.7236Z" fill="#1A1919"/>
</svg>
