<svg width="282" height="396" viewBox="0 0 282 396" fill="none" xmlns="http://www.w3.org/2000/svg">
<rect x="1" y="1" width="280" height="394" rx="20" fill="white"/>
<rect x="0.5" y="0.5" width="281" height="395" rx="20.5" stroke="black" stroke-opacity="0.05"/>
<path opacity="0.8" d="M139.52 101.876L123.494 120.114C122.835 120.864 122.835 122.132 123.494 122.883L139.52 141.12C139.828 141.47 140.234 141.663 140.665 141.663C141.096 141.663 141.502 141.47 141.81 141.12L157.836 122.883C158.495 122.132 158.495 120.864 157.836 120.114L141.81 101.876C141.502 101.526 141.096 101.333 140.665 101.333C140.234 101.333 139.828 101.526 139.52 101.876" fill="#F24822"/>
<path opacity="0.8" d="M132.308 59.7056L131.495 60.5954C122.923 69.9755 118.62 74.6837 120.394 80.2644C121.044 82.3089 122.6 83.963 124.776 84.9226C127.518 86.1318 130.946 86.1035 133.723 84.8484C134.926 84.3045 136.128 83.4753 137.197 82.4507C137.277 82.3739 137.384 82.331 137.495 82.331H137.559C137.703 82.331 137.837 82.4026 137.916 82.5216C137.996 82.6405 138.009 82.7909 137.953 82.9221L134.922 89.9711C134.757 90.3551 134.756 90.7025 134.921 90.9497C135.086 91.197 135.409 91.3333 135.831 91.3333H146.169C146.591 91.3333 146.914 91.1973 147.079 90.95C147.244 90.7028 147.244 90.3551 147.078 89.9711L144.047 82.9221C143.99 82.7909 144.005 82.6403 144.084 82.5216C144.163 82.4026 144.297 82.331 144.441 82.331H144.505C144.617 82.331 144.723 82.3739 144.803 82.4507C145.872 83.4753 147.074 84.3045 148.277 84.8484C151.054 86.1035 154.482 86.1318 157.224 84.9226C159.4 83.963 160.956 82.3089 161.605 80.2644C161.87 79.4313 162 78.6172 162 77.8044C162 73.1734 157.797 68.5748 150.505 60.5954L149.692 59.7056C145.263 54.8549 141.944 51.8376 141 51C140.056 51.8376 136.737 54.8549 132.308 59.7056" fill="#1A1919"/>
<path opacity="0.8" d="M131.258 161.282C131.258 162.949 131.683 164.741 132.487 166.461C132.551 166.597 132.537 166.756 132.45 166.879C132.363 167.003 132.217 167.072 132.066 167.06C129.752 166.887 127.459 167.263 125.609 168.12C123.253 169.211 121.469 171.143 120.585 173.559C119.701 175.976 119.822 178.587 120.928 180.913C122.033 183.24 123.99 185.001 126.437 185.874C128.884 186.747 131.529 186.627 133.885 185.536C135.053 184.994 136.22 184.169 137.258 183.148C137.403 183.006 137.63 182.985 137.8 183.098C137.97 183.212 138.035 183.428 137.954 183.614L134.924 190.639C134.759 191.022 134.759 191.368 134.924 191.614C135.089 191.86 135.411 191.996 135.833 191.996H146.167C146.589 191.996 146.912 191.86 147.076 191.614C147.241 191.368 147.241 191.021 147.076 190.639L144.046 183.614C143.966 183.428 144.03 183.212 144.2 183.098C144.37 182.985 144.597 183.006 144.742 183.148C145.78 184.169 146.947 184.994 148.115 185.536C150.471 186.627 153.116 186.748 155.563 185.874C158.011 185.001 159.967 183.239 161.072 180.913C162.178 178.587 162.3 175.976 161.415 173.559C160.531 171.143 158.747 169.211 156.391 168.12C154.541 167.263 152.248 166.887 149.934 167.06C149.783 167.072 149.637 167.003 149.55 166.879C149.463 166.756 149.449 166.597 149.513 166.461C150.317 164.74 150.742 162.949 150.742 161.282C150.742 155.978 146.372 151.663 141 151.663C135.628 151.663 131.258 155.978 131.258 161.282" fill="#1A1919"/>
<path opacity="0.8" d="M139.52 299.876L123.494 318.114C122.835 318.864 122.835 320.132 123.494 320.883L139.52 339.12C139.828 339.47 140.234 339.663 140.665 339.663C141.096 339.663 141.502 339.47 141.81 339.12L157.836 320.883C158.495 320.132 158.495 318.864 157.836 318.114L141.81 299.876C141.502 299.526 141.096 299.333 140.665 299.333C140.234 299.333 139.828 299.526 139.52 299.876" fill="#F24822"/>
<path opacity="0.8" d="M132.308 257.706L131.495 258.595C122.923 267.975 118.62 272.684 120.394 278.264C121.044 280.309 122.6 281.963 124.776 282.923C127.518 284.132 130.946 284.103 133.723 282.848C134.926 282.304 136.128 281.475 137.197 280.451C137.277 280.374 137.384 280.331 137.495 280.331H137.559C137.703 280.331 137.837 280.403 137.916 280.522C137.996 280.64 138.009 280.791 137.953 280.922L134.922 287.971C134.757 288.355 134.756 288.703 134.921 288.95C135.086 289.197 135.409 289.333 135.831 289.333H146.169C146.591 289.333 146.914 289.197 147.079 288.95C147.244 288.703 147.244 288.355 147.078 287.971L144.047 280.922C143.99 280.791 144.005 280.64 144.084 280.522C144.163 280.403 144.297 280.331 144.441 280.331H144.505C144.617 280.331 144.723 280.374 144.803 280.451C145.872 281.475 147.074 282.304 148.277 282.848C151.054 284.103 154.482 284.132 157.224 282.923C159.4 281.963 160.956 280.309 161.605 278.264C161.87 277.431 162 276.617 162 275.804C162 271.173 157.797 266.575 150.505 258.595L149.692 257.706C145.263 252.855 141.944 249.838 141 249C140.056 249.838 136.737 252.855 132.308 257.706" fill="#1A1919"/>
<path opacity="0.8" d="M129.925 202.042C126.024 202.429 122.6 205.122 120.99 209.069C120.496 210.279 120 212.054 120 214.298C120 217.276 120.874 221.078 123.791 225.479C131.651 237.339 140.313 238.895 141 239C141.687 238.895 150.349 237.339 158.209 225.479C161.125 221.078 162 217.275 162 214.298C162 212.054 161.504 210.279 161.01 209.069C159.4 205.121 155.976 202.429 152.075 202.042C144.981 201.338 141.425 209.75 141.39 209.835L141 210.779L140.61 209.835C140.575 209.75 137.018 201.338 129.925 202.042" fill="#F24822"/>
<g style="mix-blend-mode:lighten">
<rect x="120" y="51" width="21" height="293" fill="white" fill-opacity="0.2"/>
</g>
<path opacity="0.8" d="M84.5203 292.124L68.4945 273.886C67.8352 273.136 67.8352 271.868 68.4945 271.117L84.5203 252.88C84.8277 252.53 85.2343 252.337 85.6651 252.337C86.0956 252.337 86.5024 252.53 86.8096 252.88L102.836 271.117C103.495 271.868 103.495 273.136 102.836 273.886L86.8096 292.124C86.5024 292.474 86.0956 292.667 85.6651 292.667C85.2343 292.667 84.828 292.474 84.5203 292.124" fill="#F24822"/>
<path opacity="0.8" d="M77.3078 334.294L76.495 333.405C67.9225 324.025 63.6199 319.316 65.3944 313.736C66.0441 311.691 67.6001 310.037 69.7758 309.077C72.5178 307.868 75.9461 307.897 78.7229 309.152C79.9265 309.696 81.1279 310.525 82.1967 311.549C82.2768 311.626 82.3835 311.669 82.4949 311.669H82.5586C82.7028 311.669 82.8368 311.597 82.9162 311.478C82.9956 311.36 83.0094 311.209 82.953 311.078L79.9217 304.029C79.7565 303.645 79.7564 303.298 79.9213 303.05C80.0863 302.803 80.4092 302.667 80.8309 302.667H91.1692C91.5907 302.667 91.9138 302.803 92.0786 303.05C92.2436 303.297 92.2436 303.645 92.0784 304.029L89.0471 311.078C88.9905 311.209 89.0047 311.36 89.0841 311.478C89.1633 311.597 89.2975 311.669 89.4415 311.669H89.5054C89.6167 311.669 89.7233 311.626 89.8033 311.549C90.8724 310.525 92.0736 309.696 93.2771 309.152C96.0536 307.897 99.4816 307.868 102.224 309.077C104.4 310.037 105.956 311.691 106.605 313.736C106.87 314.569 107 315.383 107 316.196C107 320.827 102.797 325.425 95.5053 333.405L94.6921 334.294C90.2628 339.145 86.944 342.162 86 343C85.0559 342.162 81.7373 339.145 77.3078 334.294" fill="#1A1919"/>
<path opacity="0.8" d="M76.258 232.718C76.258 231.051 76.683 229.259 77.4871 227.539C77.5506 227.403 77.5367 227.244 77.45 227.121C77.3633 226.997 77.217 226.928 77.0656 226.94C74.7521 227.113 72.4588 226.737 70.6085 225.88C68.2529 224.789 66.4688 222.857 65.5846 220.441C64.7006 218.024 64.8224 215.413 65.9277 213.087C67.0331 210.76 68.9897 208.999 71.4371 208.126C73.8843 207.253 76.5293 207.373 78.8846 208.464C80.0532 209.006 81.2196 209.831 82.2576 210.852C82.4029 210.994 82.6303 211.015 82.8003 210.902C82.97 210.788 83.0346 210.572 82.9541 210.386L79.9239 203.361C79.7589 202.978 79.7586 202.632 79.9237 202.386C80.0885 202.14 80.4113 202.004 80.8327 202.004H91.1674C91.5888 202.004 91.9115 202.14 92.0764 202.386C92.2412 202.632 92.241 202.979 92.0761 203.361L89.0461 210.386C88.9656 210.572 89.03 210.788 89.2001 210.902C89.3697 211.015 89.5971 210.994 89.7424 210.852C90.7802 209.831 91.9466 209.006 93.1152 208.464C95.4712 207.373 98.1162 207.253 100.563 208.126C103.011 208.999 104.967 210.761 106.072 213.087C107.178 215.413 107.3 218.024 106.415 220.441C105.531 222.857 103.747 224.789 101.391 225.88C99.5411 226.737 97.2481 227.113 94.9344 226.94C94.7829 226.928 94.6367 226.997 94.5503 227.121C94.4635 227.244 94.4494 227.403 94.513 227.539C95.3169 229.26 95.7421 231.051 95.7421 232.718C95.7421 238.022 91.3717 242.337 86 242.337C80.6282 242.337 76.258 238.022 76.258 232.718" fill="#1A1919"/>
<path opacity="0.8" d="M84.5203 94.1238L68.4945 75.8862C67.8352 75.1359 67.8352 73.8677 68.4945 73.1174L84.5203 54.8798C84.8277 54.5298 85.2343 54.3372 85.6651 54.3372C86.0956 54.3372 86.5024 54.5298 86.8096 54.8798L102.836 73.1174C103.495 73.8677 103.495 75.1359 102.836 75.8862L86.8096 94.1238C86.5024 94.474 86.0956 94.6667 85.6651 94.6667C85.2343 94.6667 84.828 94.474 84.5203 94.1238" fill="#F24822"/>
<path opacity="0.8" d="M77.3078 136.294L76.495 135.405C67.9225 126.025 63.6199 121.316 65.3944 115.736C66.0441 113.691 67.6001 112.037 69.7758 111.077C72.5178 109.868 75.9461 109.897 78.7229 111.152C79.9265 111.696 81.1279 112.525 82.1967 113.549C82.2768 113.626 82.3835 113.669 82.4949 113.669H82.5586C82.7028 113.669 82.8368 113.597 82.9162 113.478C82.9956 113.36 83.0094 113.209 82.953 113.078L79.9217 106.029C79.7565 105.645 79.7564 105.298 79.9213 105.05C80.0863 104.803 80.4092 104.667 80.8309 104.667H91.1692C91.5907 104.667 91.9138 104.803 92.0786 105.05C92.2436 105.297 92.2436 105.645 92.0784 106.029L89.0471 113.078C88.9905 113.209 89.0047 113.36 89.0841 113.478C89.1633 113.597 89.2975 113.669 89.4415 113.669H89.5054C89.6167 113.669 89.7233 113.626 89.8033 113.549C90.8724 112.525 92.0736 111.696 93.2771 111.152C96.0536 109.897 99.4816 109.868 102.224 111.077C104.4 112.037 105.956 113.691 106.605 115.736C106.87 116.569 107 117.383 107 118.196C107 122.827 102.797 127.425 95.5053 135.405L94.6921 136.294C90.2628 141.145 86.944 144.162 86 145C85.0559 144.162 81.7373 141.145 77.3078 136.294" fill="#1A1919"/>
<path opacity="0.8" d="M74.9254 191.958C71.024 191.571 67.6002 188.879 65.99 184.931C65.4962 183.721 65 181.946 65 179.702C65 176.724 65.8743 172.922 68.7906 168.522C76.651 156.661 85.3134 155.105 86.0001 155C86.6871 155.105 95.3492 156.661 103.209 168.522C106.125 172.922 107 176.725 107 179.702C107 181.946 106.504 183.721 106.01 184.931C104.4 188.879 100.976 191.571 97.0748 191.958C89.9814 192.662 86.4252 184.25 86.3899 184.165L86.0004 183.221L85.6104 184.165C85.5751 184.25 82.0183 192.662 74.9254 191.958" fill="#F24822"/>
<g style="mix-blend-mode:lighten">
<rect width="21" height="293" transform="matrix(1 0 0 -1 65 344)" fill="white" fill-opacity="0.2"/>
</g>
<path opacity="0.8" d="M29.5203 101.876L13.4945 120.114C12.8352 120.864 12.8352 122.132 13.4945 122.883L29.5203 141.12C29.8277 141.47 30.2343 141.663 30.6651 141.663C31.0956 141.663 31.5024 141.47 31.8096 141.12L47.8356 122.883C48.4948 122.132 48.4948 120.864 47.8358 120.114L31.8096 101.876C31.5024 101.526 31.0956 101.333 30.6651 101.333C30.2343 101.333 29.828 101.526 29.5203 101.876" fill="#F24822"/>
<path opacity="0.8" d="M22.3078 59.7055L21.495 60.5954C12.9225 69.9755 8.61992 74.6837 10.3944 80.2644C11.0441 82.3089 12.6001 83.963 14.7758 84.9226C17.5178 86.1318 20.9461 86.1035 23.7229 84.8484C24.9265 84.3045 26.1279 83.4753 27.1967 82.4507C27.2768 82.3739 27.3835 82.331 27.4949 82.331H27.5586C27.7028 82.331 27.8368 82.4026 27.9162 82.5216C27.9956 82.6405 28.0094 82.7908 27.953 82.9221L24.9217 89.9711C24.7565 90.3551 24.7564 90.7025 24.9213 90.9497C25.0863 91.197 25.4092 91.3333 25.8309 91.3333H36.1692C36.5907 91.3333 36.9138 91.1973 37.0786 90.95C37.2436 90.7028 37.2436 90.3551 37.0784 89.9711L34.0471 82.9221C33.9905 82.7908 34.0047 82.6403 34.0841 82.5216C34.1633 82.4026 34.2975 82.331 34.4415 82.331H34.5054C34.6167 82.331 34.7233 82.3739 34.8033 82.4507C35.8724 83.4753 37.0736 84.3045 38.2771 84.8484C41.0536 86.1035 44.4816 86.1318 47.224 84.9226C49.3998 83.963 50.9559 82.3089 51.6053 80.2644C51.8703 79.4312 52 78.6172 52 77.8044C52 73.1733 47.7973 68.5748 40.5053 60.5954L39.6921 59.7055C35.2628 54.8549 31.944 51.8376 31 51C30.0559 51.8376 26.7373 54.8549 22.3078 59.7055" fill="#1A1919"/>
<path opacity="0.8" d="M21.258 161.282C21.258 162.949 21.683 164.741 22.4871 166.461C22.5506 166.597 22.5367 166.756 22.45 166.879C22.3633 167.003 22.217 167.072 22.0656 167.06C19.7521 166.887 17.4588 167.263 15.6085 168.12C13.2529 169.211 11.4688 171.143 10.5846 173.559C9.7006 175.976 9.82244 178.587 10.9277 180.913C12.0331 183.24 13.9897 185.001 16.4371 185.874C18.8843 186.747 21.5293 186.627 23.8846 185.536C25.0532 184.994 26.2196 184.169 27.2576 183.148C27.4029 183.006 27.6303 182.985 27.8003 183.098C27.97 183.212 28.0346 183.428 27.9541 183.614L24.9239 190.639C24.7589 191.022 24.7586 191.368 24.9237 191.614C25.0885 191.86 25.4113 191.996 25.8327 191.996H36.1674C36.5888 191.996 36.9115 191.86 37.0764 191.614C37.2412 191.368 37.241 191.021 37.0761 190.639L34.0461 183.614C33.9656 183.428 34.03 183.212 34.2001 183.098C34.3697 182.985 34.5971 183.006 34.7424 183.148C35.7802 184.169 36.9466 184.994 38.1152 185.536C40.4712 186.627 43.1162 186.748 45.5635 185.874C48.0107 185.001 49.9671 183.239 51.0722 180.913C52.1776 178.587 52.2995 175.976 51.415 173.559C50.5311 171.143 48.747 169.211 46.3913 168.12C44.5411 167.263 42.2481 166.887 39.9344 167.06C39.7829 167.072 39.6367 167.003 39.5503 166.879C39.4635 166.756 39.4494 166.597 39.513 166.461C40.3169 164.74 40.7421 162.949 40.7421 161.282C40.7421 155.978 36.3717 151.663 31 151.663C25.6282 151.663 21.258 155.978 21.258 161.282" fill="#1A1919"/>
<path opacity="0.8" d="M29.5203 299.876L13.4945 318.114C12.8352 318.864 12.8352 320.132 13.4945 320.883L29.5203 339.12C29.8277 339.47 30.2343 339.663 30.6651 339.663C31.0956 339.663 31.5024 339.47 31.8096 339.12L47.8356 320.883C48.4948 320.132 48.4948 318.864 47.8358 318.114L31.8096 299.876C31.5024 299.526 31.0956 299.333 30.6651 299.333C30.2343 299.333 29.828 299.526 29.5203 299.876" fill="#F24822"/>
<path opacity="0.8" d="M22.3078 257.706L21.495 258.595C12.9225 267.975 8.61992 272.684 10.3944 278.264C11.0441 280.309 12.6001 281.963 14.7758 282.923C17.5178 284.132 20.9461 284.103 23.7229 282.848C24.9265 282.304 26.1279 281.475 27.1967 280.451C27.2768 280.374 27.3835 280.331 27.4949 280.331H27.5586C27.7028 280.331 27.8368 280.403 27.9162 280.522C27.9956 280.64 28.0094 280.791 27.953 280.922L24.9217 287.971C24.7565 288.355 24.7564 288.703 24.9213 288.95C25.0863 289.197 25.4092 289.333 25.8309 289.333H36.1692C36.5907 289.333 36.9138 289.197 37.0786 288.95C37.2436 288.703 37.2436 288.355 37.0784 287.971L34.0471 280.922C33.9905 280.791 34.0047 280.64 34.0841 280.522C34.1633 280.403 34.2975 280.331 34.4415 280.331H34.5054C34.6167 280.331 34.7233 280.374 34.8033 280.451C35.8724 281.475 37.0736 282.304 38.2771 282.848C41.0536 284.103 44.4816 284.132 47.224 282.923C49.3998 281.963 50.9559 280.309 51.6053 278.264C51.8703 277.431 52 276.617 52 275.804C52 271.173 47.7973 266.575 40.5053 258.595L39.6921 257.706C35.2628 252.855 31.944 249.838 31 249C30.0559 249.838 26.7373 252.855 22.3078 257.706" fill="#1A1919"/>
<path opacity="0.8" d="M19.9254 202.042C16.024 202.429 12.6002 205.122 10.99 209.069C10.4962 210.279 10 212.054 10 214.298C10 217.276 10.8743 221.078 13.7906 225.479C21.651 237.339 30.3134 238.895 31.0001 239C31.6871 238.895 40.3492 237.339 48.2095 225.479C51.1255 221.078 52 217.275 52 214.298C52 212.054 51.5037 210.279 51.0101 209.069C49.3998 205.121 45.9758 202.429 42.0748 202.042C34.9814 201.338 31.4252 209.75 31.3899 209.835L31.0004 210.779L30.6104 209.835C30.5751 209.75 27.0183 201.338 19.9254 202.042" fill="#F24822"/>
<g style="mix-blend-mode:lighten">
<rect x="10" y="51" width="21" height="293" fill="white"/>
</g>
<path opacity="0.8" d="M252.48 105.876L268.506 124.114C269.165 124.864 269.165 126.132 268.506 126.883L252.48 145.12C252.172 145.47 251.766 145.663 251.335 145.663C250.904 145.663 250.498 145.47 250.19 145.12L234.164 126.883C233.505 126.132 233.505 124.864 234.164 124.114L250.19 105.876C250.498 105.526 250.904 105.333 251.335 105.333C251.766 105.333 252.172 105.526 252.48 105.876" fill="#F24822"/>
<path opacity="0.8" d="M259.692 63.7055L260.505 64.5954C269.077 73.9755 273.38 78.6837 271.606 84.2644C270.956 86.3089 269.4 87.963 267.224 88.9226C264.482 90.1318 261.054 90.1035 258.277 88.8484C257.074 88.3045 255.872 87.4753 254.803 86.4507C254.723 86.3739 254.616 86.331 254.505 86.331H254.441C254.297 86.331 254.163 86.4026 254.084 86.5216C254.004 86.6405 253.991 86.7908 254.047 86.9221L257.078 93.9711C257.243 94.3551 257.244 94.7025 257.079 94.9497C256.914 95.197 256.591 95.3333 256.169 95.3333H245.831C245.409 95.3333 245.086 95.1973 244.921 94.95C244.756 94.7028 244.756 94.3551 244.922 93.9711L247.953 86.9221C248.01 86.7908 247.995 86.6403 247.916 86.5216C247.837 86.4026 247.703 86.331 247.559 86.331H247.495C247.383 86.331 247.277 86.3739 247.197 86.4507C246.128 87.4753 244.926 88.3045 243.723 88.8484C240.946 90.1035 237.518 90.1318 234.776 88.9226C232.6 87.963 231.044 86.3089 230.395 84.2644C230.13 83.4312 230 82.6172 230 81.8044C230 77.1733 234.203 72.5748 241.495 64.5954L242.308 63.7055C246.737 58.8549 250.056 55.8376 251 55C251.944 55.8376 255.263 58.8549 259.692 63.7055" fill="#1A1919"/>
<path opacity="0.8" d="M260.742 165.282C260.742 166.949 260.317 168.741 259.513 170.461C259.449 170.597 259.463 170.756 259.55 170.879C259.637 171.003 259.783 171.072 259.934 171.06C262.248 170.887 264.541 171.263 266.391 172.12C268.747 173.211 270.531 175.143 271.415 177.559C272.299 179.976 272.178 182.587 271.072 184.913C269.967 187.24 268.01 189.001 265.563 189.874C263.116 190.747 260.471 190.627 258.115 189.536C256.947 188.994 255.78 188.169 254.742 187.148C254.597 187.006 254.37 186.985 254.2 187.098C254.03 187.212 253.965 187.428 254.046 187.614L257.076 194.639C257.241 195.022 257.241 195.368 257.076 195.614C256.911 195.86 256.589 195.996 256.167 195.996H245.833C245.411 195.996 245.088 195.86 244.924 195.614C244.759 195.368 244.759 195.021 244.924 194.639L247.954 187.614C248.034 187.428 247.97 187.212 247.8 187.098C247.63 186.985 247.403 187.006 247.258 187.148C246.22 188.169 245.053 188.994 243.885 189.536C241.529 190.627 238.884 190.748 236.437 189.874C233.989 189.001 232.033 187.239 230.928 184.913C229.822 182.587 229.7 179.976 230.585 177.559C231.469 175.143 233.253 173.211 235.609 172.12C237.459 171.263 239.752 170.887 242.066 171.06C242.217 171.072 242.363 171.003 242.45 170.879C242.537 170.756 242.551 170.597 242.487 170.461C241.683 168.74 241.258 166.949 241.258 165.282C241.258 159.978 245.628 155.663 251 155.663C256.372 155.663 260.742 159.978 260.742 165.282" fill="#1A1919"/>
<path opacity="0.8" d="M252.48 303.876L268.506 322.114C269.165 322.864 269.165 324.132 268.506 324.883L252.48 343.12C252.172 343.47 251.766 343.663 251.335 343.663C250.904 343.663 250.498 343.47 250.19 343.12L234.164 324.883C233.505 324.132 233.505 322.864 234.164 322.114L250.19 303.876C250.498 303.526 250.904 303.333 251.335 303.333C251.766 303.333 252.172 303.526 252.48 303.876" fill="#F24822"/>
<path opacity="0.8" d="M259.692 261.706L260.505 262.595C269.077 271.975 273.38 276.684 271.606 282.264C270.956 284.309 269.4 285.963 267.224 286.923C264.482 288.132 261.054 288.103 258.277 286.848C257.074 286.304 255.872 285.475 254.803 284.451C254.723 284.374 254.616 284.331 254.505 284.331H254.441C254.297 284.331 254.163 284.403 254.084 284.522C254.004 284.64 253.991 284.791 254.047 284.922L257.078 291.971C257.243 292.355 257.244 292.703 257.079 292.95C256.914 293.197 256.591 293.333 256.169 293.333H245.831C245.409 293.333 245.086 293.197 244.921 292.95C244.756 292.703 244.756 292.355 244.922 291.971L247.953 284.922C248.01 284.791 247.995 284.64 247.916 284.522C247.837 284.403 247.703 284.331 247.559 284.331H247.495C247.383 284.331 247.277 284.374 247.197 284.451C246.128 285.475 244.926 286.304 243.723 286.848C240.946 288.103 237.518 288.132 234.776 286.923C232.6 285.963 231.044 284.309 230.395 282.264C230.13 281.431 230 280.617 230 279.804C230 275.173 234.203 270.575 241.495 262.595L242.308 261.706C246.737 256.855 250.056 253.838 251 253C251.944 253.838 255.263 256.855 259.692 261.706" fill="#1A1919"/>
<path opacity="0.8" d="M262.075 206.042C265.976 206.429 269.4 209.122 271.01 213.069C271.504 214.279 272 216.054 272 218.298C272 221.276 271.126 225.078 268.209 229.479C260.349 241.339 251.687 242.895 251 243C250.313 242.895 241.651 241.339 233.791 229.479C230.875 225.078 230 221.275 230 218.298C230 216.054 230.496 214.279 230.99 213.069C232.6 209.121 236.024 206.429 239.925 206.042C247.019 205.338 250.575 213.75 250.61 213.835L251 214.779L251.39 213.835C251.425 213.75 254.982 205.338 262.075 206.042" fill="#F24822"/>
<g style="mix-blend-mode:lighten">
<rect width="21" height="293" transform="matrix(-1 0 0 1 272 51)" fill="white"/>
</g>
<path opacity="0.8" d="M194.52 292.124L178.494 273.886C177.835 273.136 177.835 271.868 178.494 271.117L194.52 252.88C194.828 252.53 195.234 252.337 195.665 252.337C196.096 252.337 196.502 252.53 196.81 252.88L212.836 271.117C213.495 271.868 213.495 273.136 212.836 273.886L196.81 292.124C196.502 292.474 196.096 292.667 195.665 292.667C195.234 292.667 194.828 292.474 194.52 292.124" fill="#F24822"/>
<path opacity="0.8" d="M187.308 334.294L186.495 333.405C177.923 324.025 173.62 319.316 175.394 313.736C176.044 311.691 177.6 310.037 179.776 309.077C182.518 307.868 185.946 307.897 188.723 309.152C189.926 309.696 191.128 310.525 192.197 311.549C192.277 311.626 192.384 311.669 192.495 311.669H192.559C192.703 311.669 192.837 311.597 192.916 311.478C192.996 311.36 193.009 311.209 192.953 311.078L189.922 304.029C189.757 303.645 189.756 303.298 189.921 303.05C190.086 302.803 190.409 302.667 190.831 302.667H201.169C201.591 302.667 201.914 302.803 202.079 303.05C202.244 303.297 202.244 303.645 202.078 304.029L199.047 311.078C198.99 311.209 199.005 311.36 199.084 311.478C199.163 311.597 199.297 311.669 199.441 311.669H199.505C199.617 311.669 199.723 311.626 199.803 311.549C200.872 310.525 202.074 309.696 203.277 309.152C206.054 307.897 209.482 307.868 212.224 309.077C214.4 310.037 215.956 311.691 216.605 313.736C216.87 314.569 217 315.383 217 316.196C217 320.827 212.797 325.425 205.505 333.405L204.692 334.294C200.263 339.145 196.944 342.162 196 343C195.056 342.162 191.737 339.145 187.308 334.294" fill="#1A1919"/>
<path opacity="0.8" d="M186.258 232.718C186.258 231.051 186.683 229.259 187.487 227.539C187.551 227.403 187.537 227.244 187.45 227.121C187.363 226.997 187.217 226.928 187.066 226.94C184.752 227.113 182.459 226.737 180.609 225.88C178.253 224.789 176.469 222.857 175.585 220.441C174.701 218.024 174.822 215.413 175.928 213.087C177.033 210.76 178.99 208.999 181.437 208.126C183.884 207.253 186.529 207.373 188.885 208.464C190.053 209.006 191.22 209.831 192.258 210.852C192.403 210.994 192.63 211.015 192.8 210.902C192.97 210.788 193.035 210.572 192.954 210.386L189.924 203.361C189.759 202.978 189.759 202.632 189.924 202.386C190.089 202.14 190.411 202.004 190.833 202.004H201.167C201.589 202.004 201.912 202.14 202.076 202.386C202.241 202.632 202.241 202.979 202.076 203.361L199.046 210.386C198.966 210.572 199.03 210.788 199.2 210.902C199.37 211.015 199.597 210.994 199.742 210.852C200.78 209.831 201.947 209.006 203.115 208.464C205.471 207.373 208.116 207.253 210.563 208.126C213.011 208.999 214.967 210.761 216.072 213.087C217.178 215.413 217.3 218.024 216.415 220.441C215.531 222.857 213.747 224.789 211.391 225.88C209.541 226.737 207.248 227.113 204.934 226.94C204.783 226.928 204.637 226.997 204.55 227.121C204.463 227.244 204.449 227.403 204.513 227.539C205.317 229.26 205.742 231.051 205.742 232.718C205.742 238.022 201.372 242.337 196 242.337C190.628 242.337 186.258 238.022 186.258 232.718" fill="#1A1919"/>
<path opacity="0.8" d="M194.52 94.1238L178.494 75.8862C177.835 75.1359 177.835 73.8677 178.494 73.1174L194.52 54.8798C194.828 54.5298 195.234 54.3372 195.665 54.3372C196.096 54.3372 196.502 54.5298 196.81 54.8798L212.836 73.1174C213.495 73.8677 213.495 75.1359 212.836 75.8862L196.81 94.1238C196.502 94.474 196.096 94.6667 195.665 94.6667C195.234 94.6667 194.828 94.474 194.52 94.1238" fill="#F24822"/>
<path opacity="0.8" d="M187.308 136.294L186.495 135.405C177.923 126.025 173.62 121.316 175.394 115.736C176.044 113.691 177.6 112.037 179.776 111.077C182.518 109.868 185.946 109.897 188.723 111.152C189.926 111.696 191.128 112.525 192.197 113.549C192.277 113.626 192.384 113.669 192.495 113.669H192.559C192.703 113.669 192.837 113.597 192.916 113.478C192.996 113.36 193.009 113.209 192.953 113.078L189.922 106.029C189.757 105.645 189.756 105.298 189.921 105.05C190.086 104.803 190.409 104.667 190.831 104.667H201.169C201.591 104.667 201.914 104.803 202.079 105.05C202.244 105.297 202.244 105.645 202.078 106.029L199.047 113.078C198.99 113.209 199.005 113.36 199.084 113.478C199.163 113.597 199.297 113.669 199.441 113.669H199.505C199.617 113.669 199.723 113.626 199.803 113.549C200.872 112.525 202.074 111.696 203.277 111.152C206.054 109.897 209.482 109.868 212.224 111.077C214.4 112.037 215.956 113.691 216.605 115.736C216.87 116.569 217 117.383 217 118.196C217 122.827 212.797 127.425 205.505 135.405L204.692 136.294C200.263 141.145 196.944 144.162 196 145C195.056 144.162 191.737 141.145 187.308 136.294" fill="#1A1919"/>
<path opacity="0.8" d="M184.925 191.958C181.024 191.571 177.6 188.879 175.99 184.931C175.496 183.721 175 181.946 175 179.702C175 176.724 175.874 172.922 178.791 168.522C186.651 156.661 195.313 155.105 196 155C196.687 155.105 205.349 156.661 213.209 168.522C216.125 172.922 217 176.725 217 179.702C217 181.946 216.504 183.721 216.01 184.931C214.4 188.879 210.976 191.571 207.075 191.958C199.981 192.662 196.425 184.25 196.39 184.165L196 183.221L195.61 184.165C195.575 184.25 192.018 192.662 184.925 191.958" fill="#F24822"/>
<g style="mix-blend-mode:lighten">
<rect width="21" height="293" transform="matrix(1 0 0 -1 175 344)" fill="white" fill-opacity="0.2"/>
</g>
</svg>
