<svg width="282" height="396" viewBox="0 0 282 396" fill="none" xmlns="http://www.w3.org/2000/svg">
<rect x="1" y="1" width="280" height="394" rx="20" fill="white"/>
<rect x="0.5" y="0.5" width="281" height="395" rx="20.5" stroke="black" stroke-opacity="0.05"/>
<path d="M247.188 369.457V366.391H247.852C250.664 366.339 252.904 365.505 254.57 363.891C256.237 362.276 257.201 360.004 257.461 357.074C255.964 358.793 253.919 359.652 251.328 359.652C248.854 359.652 246.882 358.78 245.41 357.035C243.926 355.29 243.184 353.038 243.184 350.277C243.184 347.348 243.984 345.004 245.586 343.246C247.174 341.488 249.31 340.609 251.992 340.609C254.714 340.609 256.921 341.651 258.613 343.734C260.306 345.831 261.152 348.526 261.152 351.82V353.207C261.152 358.441 260.039 362.439 257.813 365.199C255.573 367.973 252.246 369.392 247.832 369.457H247.188ZM251.934 356.645C253.171 356.645 254.31 356.273 255.352 355.531C256.393 354.789 257.116 353.858 257.52 352.738V351.41C257.52 349.066 256.992 347.178 255.938 345.746C254.883 344.314 253.568 343.598 251.992 343.598C250.365 343.598 249.089 344.197 248.164 345.395C247.227 346.592 246.758 348.161 246.758 350.102C246.758 352.055 247.233 353.63 248.184 354.828C249.121 356.039 250.371 356.645 251.934 356.645Z" fill="#F24822"/>
<path d="M259.092 325.975C261.414 325.745 263.452 324.144 264.411 321.797C264.705 321.077 265 320.022 265 318.688C265 316.917 264.48 314.656 262.744 312.04C258.065 304.987 252.909 304.063 252.5 304C252.091 304.063 246.935 304.987 242.256 312.04C240.521 314.656 240 316.917 240 318.688C240 320.022 240.295 321.077 240.589 321.797C241.548 324.144 243.586 325.745 245.908 325.975C250.13 326.394 252.247 321.392 252.268 321.341L252.5 320.78L252.732 321.341C252.753 321.392 254.87 326.394 259.092 325.975Z" fill="#F24822"/>
<path d="M107.776 143.125C96.0719 144.286 85.8005 152.365 80.9701 164.207C79.4887 167.837 78 173.163 78 179.894C78 188.827 80.623 200.234 89.3718 213.436C112.953 249.018 138.94 253.685 141 254C143.061 253.685 169.048 249.018 192.628 213.436C201.376 200.234 204 188.826 204 179.894C204 173.163 202.511 167.837 201.03 164.206C196.199 152.363 185.928 144.286 174.224 143.125C152.944 141.014 142.276 166.249 142.17 166.505L141.001 169.338L139.831 166.505C139.725 166.249 129.055 141.014 107.776 143.125Z" fill="#F24822"/>
<g style="mix-blend-mode:lighten">
<rect x="78" y="138" width="63" height="121" fill="white" fill-opacity="0.2"/>
</g>
<path d="M34.8125 26.543V29.6094H34.1484C31.3359 29.6615 29.0964 30.4948 27.4297 32.1094C25.763 33.724 24.7995 35.9961 24.5391 38.9258C26.0365 37.207 28.0807 36.3477 30.6719 36.3477C33.1458 36.3477 35.1185 37.22 36.5898 38.9648C38.0742 40.7096 38.8164 42.9622 38.8164 45.7227C38.8164 48.6523 38.0156 50.9961 36.4141 52.7539C34.8255 54.5117 32.6901 55.3906 30.0078 55.3906C27.2865 55.3906 25.0794 54.349 23.3867 52.2656C21.694 50.1693 20.8477 47.474 20.8477 44.1797V42.793C20.8477 37.5586 21.9609 33.5612 24.1875 30.8008C26.4271 28.0273 29.7539 26.6081 34.168 26.543H34.8125ZM30.0664 39.3555C28.8294 39.3555 27.6901 39.7266 26.6484 40.4687C25.6068 41.2109 24.8841 42.1419 24.4805 43.2617V44.5898C24.4805 46.9336 25.0078 48.8216 26.0625 50.2539C27.1172 51.6862 28.4323 52.4023 30.0078 52.4023C31.6354 52.4023 32.9115 51.8034 33.8359 50.6055C34.7734 49.4075 35.2422 47.8385 35.2422 45.8984C35.2422 43.9453 34.7669 42.3698 33.8164 41.1719C32.8789 39.9609 31.6289 39.3555 30.0664 39.3555Z" fill="#F24822"/>
<path d="M22.908 70.0249C20.5857 70.2549 18.5477 71.856 17.5893 74.2031C17.2954 74.9227 17 75.9783 17 77.3123C17 79.0828 17.5204 81.3437 19.2563 83.9602C23.9351 91.0126 29.0913 91.9375 29.5 92C29.909 91.9375 35.065 91.0125 39.7437 83.9602C41.4794 81.3437 42 79.0827 42 77.3123C42 75.9782 41.7046 74.9226 41.4108 74.2029C40.4523 71.8557 38.4142 70.2548 36.0922 70.0249C31.8699 69.6064 29.7531 74.6079 29.7321 74.6586L29.5002 75.2201L29.2681 74.6586C29.2471 74.6079 27.13 69.6064 22.908 70.0249Z" fill="#F24822"/>
</svg>
