<svg width="282" height="396" viewBox="0 0 282 396" fill="none" xmlns="http://www.w3.org/2000/svg">
<rect x="1" y="1" width="280" height="394" rx="20" fill="white"/>
<rect x="0.5" y="0.5" width="281" height="395" rx="20.5" stroke="black" stroke-opacity="0.05"/>
<path d="M247.188 369.457V366.391H247.852C250.664 366.339 252.904 365.505 254.57 363.891C256.237 362.276 257.201 360.004 257.461 357.074C255.964 358.793 253.919 359.652 251.328 359.652C248.854 359.652 246.882 358.78 245.41 357.035C243.926 355.29 243.184 353.038 243.184 350.277C243.184 347.348 243.984 345.004 245.586 343.246C247.174 341.488 249.31 340.609 251.992 340.609C254.714 340.609 256.921 341.651 258.613 343.734C260.306 345.831 261.152 348.526 261.152 351.82V353.207C261.152 358.441 260.039 362.439 257.812 365.199C255.573 367.973 252.246 369.392 247.832 369.457H247.188ZM251.934 356.645C253.171 356.645 254.31 356.273 255.352 355.531C256.393 354.789 257.116 353.858 257.52 352.738V351.41C257.52 349.066 256.992 347.178 255.938 345.746C254.883 344.314 253.568 343.598 251.992 343.598C250.365 343.598 249.089 344.197 248.164 345.395C247.227 346.592 246.758 348.161 246.758 350.102C246.758 352.055 247.233 353.63 248.184 354.828C249.121 356.039 250.371 356.645 251.934 356.645Z" fill="#1A1919"/>
<path d="M258.299 321.276C258.299 320.284 258.046 319.218 257.567 318.194C257.529 318.113 257.538 318.019 257.589 317.946C257.641 317.872 257.728 317.831 257.818 317.838C259.195 317.941 260.56 317.717 261.662 317.207C263.064 316.558 264.126 315.408 264.652 313.971C265.178 312.533 265.106 310.979 264.448 309.595C263.79 308.21 262.625 307.162 261.168 306.643C259.712 306.123 258.137 306.195 256.735 306.844C256.04 307.166 255.345 307.657 254.728 308.265C254.641 308.35 254.506 308.362 254.405 308.295C254.304 308.227 254.265 308.098 254.313 307.988L256.117 303.808C256.215 303.58 256.215 303.374 256.117 303.227C256.019 303.081 255.827 303 255.576 303H249.424C249.173 303 248.981 303.081 248.883 303.227C248.785 303.374 248.785 303.58 248.883 303.808L250.687 307.988C250.735 308.098 250.696 308.227 250.595 308.295C250.494 308.362 250.359 308.35 250.272 308.265C249.655 307.658 248.96 307.166 248.265 306.844C246.862 306.195 245.288 306.123 243.831 306.643C242.375 307.162 241.21 308.211 240.552 309.595C239.894 310.979 239.822 312.533 240.348 313.971C240.874 315.408 241.936 316.558 243.338 317.207C244.44 317.717 245.805 317.941 247.182 317.838C247.272 317.831 247.359 317.872 247.411 317.946C247.462 318.019 247.471 318.113 247.433 318.194C246.954 319.218 246.701 320.284 246.701 321.276C246.701 324.432 249.303 327 252.5 327C255.697 327 258.299 324.432 258.299 321.276Z" fill="#1A1919"/>
<path d="M111.774 166.857C111.774 171.86 113.049 177.233 115.461 182.395C115.652 182.803 115.61 183.281 115.35 183.65C115.09 184.02 114.651 184.226 114.197 184.191C107.256 183.672 100.377 184.801 94.8255 187.372C87.7588 190.645 82.4065 196.441 79.7539 203.689C77.1018 210.939 77.4673 218.774 80.7832 225.751C84.0994 232.731 89.969 238.015 97.3112 240.634C104.653 243.253 112.588 242.893 119.654 239.619C123.16 237.995 126.659 235.519 129.773 232.457C130.209 232.029 130.891 231.966 131.401 232.306C131.91 232.647 132.104 233.296 131.862 233.854L122.772 254.928C122.277 256.076 122.276 257.116 122.771 257.854C123.266 258.593 124.234 259 125.498 259H156.502C157.766 259 158.735 258.593 159.229 257.854C159.724 257.115 159.723 256.075 159.228 254.928L150.138 233.854C149.897 233.296 150.09 232.646 150.6 232.306C151.109 231.966 151.791 232.029 152.227 232.457C155.341 235.518 158.84 237.995 162.346 239.619C169.414 242.894 177.349 243.254 184.69 240.634C192.032 238.015 197.901 232.73 201.217 225.751C204.533 218.774 204.899 210.939 202.245 203.689C199.593 196.441 194.241 190.645 187.174 187.372C181.623 184.801 174.744 183.672 167.803 184.191C167.349 184.226 166.91 184.021 166.651 183.65C166.39 183.281 166.348 182.803 166.539 182.395C168.951 177.232 170.226 171.859 170.226 166.857C170.226 150.945 157.115 138 141 138C124.885 138 111.774 150.945 111.774 166.857Z" fill="#1A1919"/>
<g style="mix-blend-mode:lighten">
<rect x="78" y="138" width="63" height="121" fill="white" fill-opacity="0.2"/>
</g>
<path d="M34.8125 26.543V29.6094H34.1484C31.3359 29.6615 29.0964 30.4948 27.4297 32.1094C25.763 33.724 24.7995 35.9961 24.5391 38.9258C26.0365 37.207 28.0807 36.3477 30.6719 36.3477C33.1458 36.3477 35.1185 37.2201 36.5898 38.9648C38.0742 40.7096 38.8164 42.9622 38.8164 45.7227C38.8164 48.6523 38.0156 50.9961 36.4141 52.7539C34.8255 54.5117 32.6901 55.3906 30.0078 55.3906C27.2865 55.3906 25.0794 54.349 23.3867 52.2656C21.694 50.1693 20.8477 47.474 20.8477 44.1797V42.793C20.8477 37.5586 21.9609 33.5612 24.1875 30.8008C26.4271 28.0273 29.7539 26.6081 34.168 26.543H34.8125ZM30.0664 39.3555C28.8294 39.3555 27.6901 39.7266 26.6484 40.4688C25.6068 41.2109 24.8841 42.1419 24.4805 43.2617V44.5898C24.4805 46.9336 25.0078 48.8216 26.0625 50.2539C27.1172 51.6862 28.4323 52.4023 30.0078 52.4023C31.6354 52.4023 32.9115 51.8034 33.8359 50.6055C34.7734 49.4076 35.2422 47.8385 35.2422 45.8984C35.2422 43.9453 34.7669 42.3698 33.8164 41.1719C32.8789 39.9609 31.6289 39.3555 30.0664 39.3555Z" fill="#1A1919"/>
<path d="M23.7012 74.7236C23.7012 75.716 23.9542 76.7818 24.4328 77.8055C24.4706 77.8865 24.4623 77.9813 24.4107 78.0545C24.3591 78.1279 24.272 78.1688 24.1819 78.1619C22.8048 78.0589 21.4398 78.2828 20.3384 78.7928C18.9363 79.4421 17.8743 80.5915 17.348 82.0292C16.8218 83.4671 16.8943 85.0212 17.5522 86.4052C18.2102 87.7896 19.3748 88.8377 20.8316 89.3572C22.2883 89.8766 23.8627 89.8052 25.2647 89.1558C25.9602 88.8337 26.6545 88.3425 27.2724 87.7352C27.3589 87.6504 27.4942 87.6379 27.5954 87.7053C27.6964 87.773 27.7349 87.9016 27.6869 88.0124L25.8833 92.1923C25.7851 92.42 25.7849 92.6262 25.8832 92.7726C25.9813 92.9192 26.1734 93 26.4243 93H32.5758C32.8267 93 33.0188 92.9192 33.1169 92.7726C33.215 92.626 33.2149 92.4198 33.1167 92.1923L31.3132 88.0124C31.2652 87.9016 31.3036 87.7728 31.4048 87.7053C31.5058 87.6379 31.6411 87.6504 31.7276 87.7352C32.3454 88.3423 33.0396 88.8337 33.7353 89.1558C35.1376 89.8054 36.712 89.8768 38.1687 89.3572C39.6254 88.8377 40.79 87.7894 41.4477 86.4052C42.1057 85.0212 42.1783 83.4671 41.6518 82.0292C41.1256 80.5915 40.0637 79.4421 38.6615 78.7928C37.5602 78.2828 36.1953 78.0589 34.8181 78.1619C34.7279 78.1688 34.6409 78.128 34.5895 78.0545C34.5378 77.9813 34.5294 77.8865 34.5672 77.8055C35.0458 76.7816 35.2989 75.7158 35.2989 74.7236C35.2989 71.5675 32.6974 69 29.5 69C26.3025 69 23.7012 71.5675 23.7012 74.7236Z" fill="#1A1919"/>
</svg>
