<svg width="282" height="396" viewBox="0 0 282 396" fill="none" xmlns="http://www.w3.org/2000/svg">
<rect x="1" y="1" width="280" height="394" rx="20" fill="white"/>
<rect x="0.5" y="0.5" width="281" height="395" rx="20.5" stroke="black" stroke-opacity="0.05"/>
<path d="M247.188 369.457V366.391H247.852C250.664 366.339 252.904 365.505 254.57 363.891C256.237 362.276 257.201 360.004 257.461 357.074C255.964 358.793 253.919 359.652 251.328 359.652C248.854 359.652 246.882 358.78 245.41 357.035C243.926 355.29 243.184 353.038 243.184 350.277C243.184 347.348 243.984 345.004 245.586 343.246C247.174 341.488 249.31 340.609 251.992 340.609C254.714 340.609 256.921 341.651 258.613 343.734C260.306 345.831 261.152 348.526 261.152 351.82V353.207C261.152 358.441 260.039 362.439 257.812 365.199C255.573 367.973 252.246 369.392 247.832 369.457H247.188ZM251.934 356.645C253.171 356.645 254.31 356.273 255.352 355.531C256.393 354.789 257.116 353.858 257.52 352.738V351.41C257.52 349.066 256.992 347.178 255.938 345.746C254.883 344.314 253.568 343.598 251.992 343.598C250.365 343.598 249.089 344.197 248.164 345.395C247.227 346.592 246.758 348.161 246.758 350.102C246.758 352.055 247.233 353.63 248.184 354.828C249.121 356.039 250.371 356.645 251.934 356.645Z" fill="#1A1919"/>
<path d="M257.674 321.82L258.158 321.29C263.26 315.709 265.821 312.907 264.765 309.586C264.378 308.37 263.452 307.386 262.157 306.815C260.525 306.095 258.484 306.112 256.832 306.859C256.115 307.182 255.4 307.676 254.764 308.286C254.716 308.331 254.653 308.357 254.586 308.357H254.548C254.463 308.357 254.383 308.314 254.336 308.243C254.288 308.173 254.28 308.083 254.314 308.005L256.118 303.811C256.216 303.582 256.216 303.375 256.118 303.228C256.02 303.081 255.828 303 255.577 303H249.423C249.172 303 248.98 303.081 248.882 303.228C248.784 303.375 248.784 303.582 248.882 303.811L250.686 308.005C250.72 308.083 250.712 308.173 250.664 308.243C250.617 308.314 250.537 308.357 250.452 308.357H250.413C250.347 308.357 250.284 308.331 250.236 308.286C249.6 307.676 248.885 307.182 248.168 306.859C246.516 306.112 244.475 306.095 242.843 306.815C241.548 307.386 240.621 308.37 240.235 309.586C240.077 310.082 240 310.567 240 311.05C240 313.806 242.502 316.542 246.842 321.29L247.326 321.82C249.963 324.706 251.938 326.502 252.5 327C253.062 326.502 255.037 324.706 257.674 321.82Z" fill="#1A1919"/>
<path d="M114.923 164.117L112.485 166.786C86.7676 194.926 73.8598 209.051 79.1833 225.793C81.1324 231.927 85.8003 236.889 92.3274 239.768C100.553 243.396 110.838 243.31 119.169 239.545C122.779 237.913 126.384 235.426 129.59 232.352C129.83 232.122 130.151 231.993 130.485 231.993H130.676C131.108 231.993 131.51 232.208 131.749 232.565C131.987 232.921 132.028 233.373 131.859 233.766L122.765 254.913C122.27 256.065 122.269 257.107 122.764 257.849C123.259 258.591 124.228 259 125.493 259H156.508C157.772 259 158.741 258.592 159.236 257.85C159.731 257.108 159.731 256.065 159.235 254.913L150.141 233.766C149.971 233.373 150.014 232.921 150.252 232.565C150.49 232.208 150.892 231.993 151.324 231.993H151.516C151.85 231.993 152.17 232.122 152.41 232.352C155.617 235.426 159.221 237.913 162.831 239.545C171.161 243.31 181.445 243.396 189.672 239.768C196.199 236.889 200.868 231.927 202.816 225.793C203.611 223.294 204 220.852 204 218.413C204 204.52 191.392 190.724 169.516 166.786L167.076 164.117C153.788 149.565 143.832 140.513 141 138C138.168 140.513 128.212 149.565 114.923 164.117Z" fill="#1A1919"/>
<g style="mix-blend-mode:lighten">
<rect x="78" y="138" width="63" height="121" fill="white" fill-opacity="0.2"/>
</g>
<path d="M34.8125 26.543V29.6094H34.1484C31.3359 29.6615 29.0964 30.4948 27.4297 32.1094C25.763 33.724 24.7995 35.9961 24.5391 38.9258C26.0365 37.207 28.0807 36.3477 30.6719 36.3477C33.1458 36.3477 35.1185 37.2201 36.5898 38.9648C38.0742 40.7096 38.8164 42.9622 38.8164 45.7227C38.8164 48.6523 38.0156 50.9961 36.4141 52.7539C34.8255 54.5117 32.6901 55.3906 30.0078 55.3906C27.2865 55.3906 25.0794 54.349 23.3867 52.2656C21.694 50.1693 20.8477 47.474 20.8477 44.1797V42.793C20.8477 37.5586 21.9609 33.5612 24.1875 30.8008C26.4271 28.0273 29.7539 26.6081 34.168 26.543H34.8125ZM30.0664 39.3555C28.8294 39.3555 27.6901 39.7266 26.6484 40.4688C25.6068 41.2109 24.8841 42.1419 24.4805 43.2617V44.5898C24.4805 46.9336 25.0078 48.8216 26.0625 50.2539C27.1172 51.6862 28.4323 52.4023 30.0078 52.4023C31.6354 52.4023 32.9115 51.8034 33.8359 50.6055C34.7734 49.4076 35.2422 47.8385 35.2422 45.8984C35.2422 43.9453 34.7669 42.3698 33.8164 41.1719C32.8789 39.9609 31.6289 39.3555 30.0664 39.3555Z" fill="#1A1919"/>
<path d="M24.3261 74.1802L23.8422 74.7097C18.7396 80.2912 16.1785 83.0928 17.2348 86.4135C17.6215 87.6301 18.5477 88.6143 19.8427 89.1853C21.4749 89.9049 23.5156 89.888 25.1684 89.1412C25.8848 88.8175 26.5999 88.3241 27.2362 87.7145C27.2838 87.6687 27.3473 87.6432 27.4136 87.6432H27.4516C27.5374 87.6432 27.6171 87.6858 27.6644 87.7567C27.7117 87.8274 27.7199 87.9169 27.6863 87.995L25.8819 92.1894C25.7836 92.4179 25.7835 92.6246 25.8817 92.7717C25.9799 92.9189 26.1722 93 26.4231 93H32.5769C32.8278 93 33.0201 92.9191 33.1182 92.7719C33.2164 92.6248 33.2164 92.4179 33.1181 92.1894L31.3137 87.995C31.2801 87.9169 31.2885 87.8273 31.3357 87.7567C31.3829 87.6858 31.4628 87.6432 31.5485 87.6432H31.5865C31.6528 87.6432 31.7162 87.6687 31.7639 87.7145C32.4002 88.3241 33.1152 88.8175 33.8316 89.1412C35.4843 89.888 37.5248 89.9049 39.1571 89.1853C40.4523 88.6143 41.3785 87.6301 41.7651 86.4135C41.9228 85.9178 42 85.4334 42 84.9497C42 82.1941 39.4984 79.4577 35.1579 74.7097L34.6739 74.1802C32.0374 71.2938 30.0619 69.4984 29.5 69C28.9381 69.4984 26.9627 71.2938 24.3261 74.1802Z" fill="#1A1919"/>
</svg>
