<svg width="282" height="396" viewBox="0 0 282 396" fill="none" xmlns="http://www.w3.org/2000/svg">
<rect x="1" y="1" width="280" height="394" rx="20" fill="white"/>
<rect x="0.5" y="0.5" width="281" height="395" rx="20.5" stroke="black" stroke-opacity="0.05"/>
<path d="M247.188 369.457V366.391H247.852C250.664 366.339 252.904 365.505 254.57 363.891C256.237 362.276 257.201 360.004 257.461 357.074C255.964 358.793 253.919 359.652 251.328 359.652C248.854 359.652 246.882 358.78 245.41 357.035C243.926 355.29 243.184 353.038 243.184 350.277C243.184 347.348 243.984 345.004 245.586 343.246C247.174 341.488 249.31 340.609 251.992 340.609C254.714 340.609 256.921 341.651 258.613 343.734C260.306 345.831 261.152 348.526 261.152 351.82V353.207C261.152 358.441 260.039 362.439 257.812 365.199C255.573 367.973 252.246 369.392 247.832 369.457H247.188ZM251.934 356.645C253.171 356.645 254.31 356.273 255.352 355.531C256.393 354.789 257.116 353.858 257.52 352.738V351.41C257.52 349.066 256.992 347.178 255.938 345.746C254.883 344.314 253.568 343.598 251.992 343.598C250.365 343.598 249.089 344.197 248.164 345.395C247.227 346.592 246.758 348.161 246.758 350.102C246.758 352.055 247.233 353.63 248.184 354.828C249.121 356.039 250.371 356.645 251.934 356.645Z" fill="#F24822"/>
<path d="M253.18 326.677L262.706 315.824C263.098 315.377 263.098 314.623 262.706 314.176L253.18 303.323C252.998 303.115 252.756 303 252.5 303C252.244 303 252.002 303.115 251.82 303.323L242.294 314.176C241.902 314.623 241.902 315.377 242.294 315.824L251.82 326.677C252.002 326.885 252.244 327 252.5 327C252.756 327 252.998 326.885 253.18 326.677Z" fill="#F24822"/>
<path d="M137.566 139.629L89.4835 194.347C87.5055 196.598 87.5055 200.403 89.4835 202.654L137.566 257.372C138.488 258.422 139.708 259 141 259C142.292 259 143.513 258.422 144.434 257.372L192.517 202.654C194.494 200.403 194.494 196.598 192.517 194.347L144.434 139.629C143.513 138.578 142.292 138 141 138C139.708 138 138.489 138.578 137.566 139.629Z" fill="#F24822"/>
<g style="mix-blend-mode:lighten">
<rect x="78" y="138" width="63" height="121" fill="white" fill-opacity="0.2"/>
</g>
<path d="M34.8125 26.543V29.6094H34.1484C31.3359 29.6615 29.0964 30.4948 27.4297 32.1094C25.763 33.724 24.7995 35.9961 24.5391 38.9258C26.0365 37.207 28.0807 36.3477 30.6719 36.3477C33.1458 36.3477 35.1185 37.2201 36.5898 38.9648C38.0742 40.7096 38.8164 42.9622 38.8164 45.7227C38.8164 48.6523 38.0156 50.9961 36.4141 52.7539C34.8255 54.5117 32.6901 55.3906 30.0078 55.3906C27.2865 55.3906 25.0794 54.349 23.3867 52.2656C21.694 50.1693 20.8477 47.474 20.8477 44.1797V42.793C20.8477 37.5586 21.9609 33.5612 24.1875 30.8008C26.4271 28.0273 29.7539 26.6081 34.168 26.543H34.8125ZM30.0664 39.3555C28.8294 39.3555 27.6901 39.7266 26.6484 40.4688C25.6068 41.2109 24.8841 42.1419 24.4805 43.2617V44.5898C24.4805 46.9336 25.0078 48.8216 26.0625 50.2539C27.1172 51.6862 28.4323 52.4023 30.0078 52.4023C31.6354 52.4023 32.9115 51.8034 33.8359 50.6055C34.7734 49.4076 35.2422 47.8385 35.2422 45.8984C35.2422 43.9453 34.7669 42.3698 33.8164 41.1719C32.8789 39.9609 31.6289 39.3555 30.0664 39.3555Z" fill="#F24822"/>
<path d="M28.8196 69.3231L19.2939 80.1763C18.902 80.6228 18.902 81.3774 19.2939 81.8239L28.8196 92.6771C29.0023 92.8853 29.244 93 29.5 93C29.756 93 29.9978 92.8853 30.1804 92.6771L39.7062 81.8239C40.0979 81.3774 40.0979 80.6228 39.7062 80.1763L30.1804 69.3231C29.9978 69.1147 29.756 69 29.5 69C29.244 69 29.0025 69.1147 28.8196 69.3231Z" fill="#F24822"/>
</svg>
