<svg width="282" height="396" viewBox="0 0 282 396" fill="none" xmlns="http://www.w3.org/2000/svg">
<rect x="1" y="1" width="280" height="394" rx="20" fill="white"/>
<rect x="0.5" y="0.5" width="281" height="395" rx="20.5" stroke="black" stroke-opacity="0.05"/>
<path d="M260.723 341H264.355V365.082L271.641 362.406V365.688L261.289 369.574H260.723V341ZM232.305 353.129C232.305 348.897 233.027 345.753 234.473 343.695C235.918 341.638 238.177 340.609 241.25 340.609C244.284 340.609 246.53 341.612 247.988 343.617C249.447 345.635 250.202 348.643 250.254 352.641V357.465C250.254 361.645 249.531 364.75 248.086 366.781C246.641 368.812 244.375 369.828 241.289 369.828C238.229 369.828 235.977 368.845 234.531 366.879C233.086 364.926 232.344 361.905 232.305 357.816V353.129ZM235.918 358.07C235.918 361.13 236.348 363.357 237.207 364.75C238.066 366.156 239.427 366.859 241.289 366.859C243.138 366.859 244.486 366.163 245.332 364.77C246.178 363.376 246.615 361.234 246.641 358.344V352.562C246.641 349.49 246.198 347.217 245.312 345.746C244.414 344.288 243.06 343.559 241.25 343.559C239.466 343.559 238.145 344.249 237.285 345.629C236.413 347.009 235.957 349.184 235.918 352.152V358.07Z" fill="#1A1919"/>
<path d="M258.299 321.276C258.299 320.284 258.046 319.218 257.567 318.194C257.529 318.113 257.538 318.019 257.589 317.946C257.641 317.872 257.728 317.831 257.818 317.838C259.195 317.941 260.56 317.717 261.662 317.207C263.064 316.558 264.126 315.408 264.652 313.971C265.178 312.533 265.106 310.979 264.448 309.595C263.79 308.21 262.625 307.162 261.168 306.643C259.712 306.123 258.137 306.195 256.735 306.844C256.04 307.166 255.345 307.657 254.728 308.265C254.641 308.35 254.506 308.362 254.405 308.295C254.304 308.227 254.265 308.098 254.313 307.988L256.117 303.808C256.215 303.58 256.215 303.374 256.117 303.227C256.019 303.081 255.827 303 255.576 303H249.424C249.173 303 248.981 303.081 248.883 303.227C248.785 303.374 248.785 303.58 248.883 303.808L250.687 307.988C250.735 308.098 250.696 308.227 250.595 308.295C250.494 308.362 250.359 308.35 250.272 308.265C249.655 307.658 248.96 307.166 248.265 306.844C246.862 306.195 245.288 306.123 243.831 306.643C242.375 307.162 241.21 308.211 240.552 309.595C239.894 310.979 239.822 312.533 240.348 313.971C240.874 315.408 241.936 316.558 243.338 317.207C244.44 317.717 245.805 317.941 247.182 317.838C247.272 317.831 247.359 317.872 247.411 317.946C247.462 318.019 247.471 318.113 247.433 318.194C246.954 319.218 246.701 320.284 246.701 321.276C246.701 324.432 249.303 327 252.5 327C255.697 327 258.299 324.432 258.299 321.276Z" fill="#1A1919"/>
<path d="M111.774 166.857C111.774 171.86 113.049 177.233 115.461 182.395C115.652 182.803 115.61 183.281 115.35 183.65C115.09 184.02 114.651 184.226 114.197 184.191C107.256 183.672 100.377 184.801 94.8255 187.372C87.7588 190.645 82.4065 196.441 79.7539 203.689C77.1018 210.939 77.4673 218.774 80.7832 225.751C84.0994 232.731 89.969 238.015 97.3112 240.634C104.653 243.253 112.588 242.893 119.654 239.619C123.16 237.995 126.659 235.519 129.773 232.457C130.209 232.029 130.891 231.966 131.401 232.306C131.91 232.647 132.104 233.296 131.862 233.854L122.772 254.928C122.277 256.076 122.276 257.116 122.771 257.854C123.266 258.593 124.234 259 125.498 259H156.502C157.766 259 158.735 258.593 159.229 257.854C159.724 257.115 159.723 256.075 159.228 254.928L150.138 233.854C149.897 233.296 150.09 232.646 150.6 232.306C151.109 231.966 151.791 232.029 152.227 232.457C155.341 235.518 158.84 237.995 162.346 239.619C169.414 242.894 177.349 243.254 184.69 240.634C192.032 238.015 197.901 232.73 201.217 225.751C204.533 218.774 204.899 210.939 202.245 203.689C199.593 196.441 194.241 190.645 187.174 187.372C181.623 184.801 174.744 183.672 167.803 184.191C167.349 184.226 166.91 184.021 166.651 183.65C166.39 183.281 166.348 182.803 166.539 182.395C168.951 177.232 170.226 171.859 170.226 166.857C170.226 150.945 157.115 138 141 138C124.885 138 111.774 150.945 111.774 166.857Z" fill="#1A1919"/>
<g style="mix-blend-mode:lighten">
<rect x="78" y="138" width="63" height="121" fill="white" fill-opacity="0.2"/>
</g>
<path d="M21.2773 55H17.6445L17.6445 30.918L10.3594 33.5938V30.3125L20.7109 26.4258H21.2773L21.2773 55ZM49.6953 42.8711C49.6953 47.1029 48.9727 50.2474 47.5273 52.3047C46.082 54.362 43.8229 55.3906 40.75 55.3906C37.7161 55.3906 35.4701 54.388 34.0117 52.3828C32.5534 50.3646 31.7982 47.3568 31.7461 43.3594V38.5352C31.7461 34.3555 32.4688 31.25 33.9141 29.2187C35.3594 27.1875 37.625 26.1719 40.7109 26.1719C43.7708 26.1719 46.0234 27.1549 47.4688 29.1211C48.9141 31.0742 49.6562 34.0951 49.6953 38.1836V42.8711ZM46.082 37.9297C46.082 34.8698 45.6523 32.6432 44.793 31.25C43.9336 29.8437 42.5729 29.1406 40.7109 29.1406C38.862 29.1406 37.5143 29.8372 36.668 31.2305C35.8216 32.6237 35.3854 34.7656 35.3594 37.6562V43.4375C35.3594 46.5104 35.8021 48.7826 36.6875 50.2539C37.5859 51.7122 38.9401 52.4414 40.75 52.4414C42.5339 52.4414 43.8555 51.7513 44.7148 50.3711C45.5872 48.9909 46.043 46.8164 46.082 43.8477V37.9297Z" fill="#1A1919"/>
<path d="M23.7012 74.7236C23.7012 75.716 23.9542 76.7818 24.4328 77.8055C24.4706 77.8865 24.4623 77.9813 24.4107 78.0545C24.3591 78.1279 24.272 78.1688 24.1819 78.1619C22.8048 78.0589 21.4398 78.2828 20.3384 78.7928C18.9363 79.4421 17.8743 80.5915 17.348 82.0292C16.8218 83.4671 16.8943 85.0212 17.5522 86.4052C18.2102 87.7896 19.3748 88.8377 20.8316 89.3572C22.2883 89.8766 23.8627 89.8052 25.2647 89.1558C25.9602 88.8337 26.6545 88.3425 27.2724 87.7352C27.3589 87.6504 27.4942 87.6379 27.5954 87.7053C27.6964 87.773 27.7349 87.9016 27.6869 88.0124L25.8833 92.1923C25.7851 92.42 25.7849 92.6262 25.8832 92.7726C25.9813 92.9192 26.1734 93 26.4243 93H32.5758C32.8267 93 33.0188 92.9192 33.1169 92.7726C33.215 92.626 33.2149 92.4198 33.1167 92.1923L31.3132 88.0124C31.2652 87.9016 31.3036 87.7728 31.4048 87.7053C31.5058 87.6379 31.6411 87.6504 31.7276 87.7352C32.3454 88.3423 33.0396 88.8337 33.7353 89.1558C35.1376 89.8054 36.712 89.8768 38.1687 89.3572C39.6254 88.8377 40.79 87.7894 41.4477 86.4052C42.1057 85.0212 42.1783 83.4671 41.6518 82.0292C41.1256 80.5915 40.0637 79.4421 38.6615 78.7928C37.5602 78.2828 36.1953 78.0589 34.8181 78.1619C34.7279 78.1688 34.6409 78.128 34.5895 78.0545C34.5378 77.9813 34.5294 77.8865 34.5672 77.8055C35.0458 76.7816 35.2989 75.7158 35.2989 74.7236C35.2989 71.5675 32.6974 69 29.5 69C26.3025 69 23.7012 71.5675 23.7012 74.7236Z" fill="#1A1919"/>
</svg>
