<svg width="282" height="396" viewBox="0 0 282 396" fill="none" xmlns="http://www.w3.org/2000/svg">
<rect x="1" y="1" width="280" height="394" rx="20" fill="white"/>
<rect x="0.5" y="0.5" width="281" height="395" rx="20.5" stroke="black" stroke-opacity="0.05"/>
<path d="M260.723 341H264.355V365.082L271.641 362.406V365.688L261.289 369.574H260.723V341ZM232.305 353.129C232.305 348.897 233.027 345.753 234.473 343.695C235.918 341.638 238.177 340.609 241.25 340.609C244.284 340.609 246.53 341.612 247.988 343.617C249.447 345.635 250.202 348.643 250.254 352.641V357.465C250.254 361.645 249.531 364.75 248.086 366.781C246.641 368.812 244.375 369.828 241.289 369.828C238.229 369.828 235.977 368.845 234.531 366.879C233.086 364.926 232.344 361.905 232.305 357.816V353.129ZM235.918 358.07C235.918 361.13 236.348 363.357 237.207 364.75C238.066 366.156 239.427 366.859 241.289 366.859C243.138 366.859 244.486 366.163 245.332 364.77C246.178 363.376 246.615 361.234 246.641 358.344V352.562C246.641 349.49 246.198 347.217 245.312 345.746C244.414 344.288 243.06 343.559 241.25 343.559C239.466 343.559 238.145 344.249 237.285 345.629C236.413 347.009 235.957 349.184 235.918 352.152V358.07Z" fill="#F24822"/>
<path d="M253.18 326.677L262.706 315.824C263.098 315.377 263.098 314.623 262.706 314.176L253.18 303.323C252.998 303.115 252.756 303 252.5 303C252.244 303 252.002 303.115 251.82 303.323L242.294 314.176C241.902 314.623 241.902 315.377 242.294 315.824L251.82 326.677C252.002 326.885 252.244 327 252.5 327C252.756 327 252.998 326.885 253.18 326.677Z" fill="#F24822"/>
<path d="M137.566 139.629L89.4835 194.347C87.5055 196.598 87.5055 200.403 89.4835 202.654L137.566 257.372C138.488 258.422 139.708 259 141 259C142.292 259 143.513 258.422 144.434 257.372L192.517 202.654C194.494 200.403 194.494 196.598 192.517 194.347L144.434 139.629C143.513 138.578 142.292 138 141 138C139.708 138 138.489 138.578 137.566 139.629Z" fill="#F24822"/>
<g style="mix-blend-mode:lighten">
<rect x="78" y="138" width="63" height="121" fill="white" fill-opacity="0.2"/>
</g>
<path d="M21.2773 55H17.6445L17.6445 30.918L10.3594 33.5938V30.3125L20.7109 26.4258H21.2773L21.2773 55ZM49.6953 42.8711C49.6953 47.1029 48.9727 50.2474 47.5273 52.3047C46.082 54.362 43.8229 55.3906 40.75 55.3906C37.7161 55.3906 35.4701 54.388 34.0117 52.3828C32.5534 50.3646 31.7982 47.3568 31.7461 43.3594V38.5352C31.7461 34.3555 32.4688 31.25 33.9141 29.2187C35.3594 27.1875 37.625 26.1719 40.7109 26.1719C43.7708 26.1719 46.0234 27.1549 47.4688 29.1211C48.9141 31.0742 49.6562 34.0951 49.6953 38.1836V42.8711ZM46.082 37.9297C46.082 34.8698 45.6523 32.6432 44.793 31.25C43.9336 29.8437 42.5729 29.1406 40.7109 29.1406C38.862 29.1406 37.5143 29.8372 36.668 31.2305C35.8216 32.6237 35.3854 34.7656 35.3594 37.6562V43.4375C35.3594 46.5104 35.8021 48.7826 36.6875 50.2539C37.5859 51.7122 38.9401 52.4414 40.75 52.4414C42.5339 52.4414 43.8555 51.7513 44.7148 50.3711C45.5872 48.9909 46.043 46.8164 46.082 43.8477V37.9297Z" fill="#F24822"/>
<path d="M28.8196 69.3231L19.2939 80.1763C18.902 80.6228 18.902 81.3774 19.2939 81.8239L28.8196 92.6771C29.0023 92.8853 29.244 93 29.5 93C29.756 93 29.9978 92.8853 30.1804 92.6771L39.7062 81.8239C40.0979 81.3774 40.0979 80.6228 39.7062 80.1763L30.1804 69.3231C29.9978 69.1147 29.756 69 29.5 69C29.244 69 29.0025 69.1147 28.8196 69.3231Z" fill="#F24822"/>
</svg>
