<svg width="282" height="396" viewBox="0 0 282 396" fill="none" xmlns="http://www.w3.org/2000/svg">
<rect x="1" y="1" width="280" height="394" rx="20" fill="white"/>
<rect x="0.5" y="0.5" width="281" height="395" rx="20.5" stroke="black" stroke-opacity="0.05"/>
<path d="M260.723 341H264.355V365.082L271.641 362.406V365.688L261.289 369.574H260.723V341ZM232.305 353.129C232.305 348.897 233.027 345.753 234.473 343.695C235.918 341.638 238.177 340.609 241.25 340.609C244.284 340.609 246.53 341.612 247.988 343.617C249.447 345.635 250.202 348.643 250.254 352.641V357.465C250.254 361.645 249.531 364.75 248.086 366.781C246.641 368.813 244.375 369.828 241.289 369.828C238.229 369.828 235.977 368.845 234.531 366.879C233.086 364.926 232.344 361.905 232.305 357.816V353.129ZM235.918 358.07C235.918 361.13 236.348 363.357 237.207 364.75C238.066 366.156 239.427 366.859 241.289 366.859C243.138 366.859 244.486 366.163 245.332 364.77C246.178 363.376 246.615 361.234 246.641 358.344V352.563C246.641 349.49 246.198 347.217 245.313 345.746C244.414 344.288 243.06 343.559 241.25 343.559C239.466 343.559 238.145 344.249 237.285 345.629C236.413 347.009 235.957 349.184 235.918 352.152V358.07Z" fill="#F24822"/>
<path d="M259.092 325.975C261.414 325.745 263.452 324.144 264.411 321.797C264.705 321.077 265 320.022 265 318.688C265 316.917 264.48 314.656 262.744 312.04C258.065 304.987 252.909 304.063 252.5 304C252.091 304.063 246.935 304.987 242.256 312.04C240.521 314.656 240 316.917 240 318.688C240 320.022 240.295 321.077 240.589 321.797C241.548 324.144 243.586 325.745 245.908 325.975C250.13 326.394 252.247 321.392 252.268 321.341L252.5 320.78L252.732 321.341C252.753 321.392 254.87 326.394 259.092 325.975Z" fill="#F24822"/>
<path d="M107.776 143.125C96.0719 144.286 85.8005 152.365 80.9701 164.207C79.4887 167.837 78 173.163 78 179.894C78 188.827 80.623 200.234 89.3718 213.436C112.953 249.018 138.94 253.685 141 254C143.061 253.685 169.048 249.018 192.628 213.436C201.376 200.234 204 188.826 204 179.894C204 173.163 202.511 167.837 201.03 164.206C196.199 152.363 185.928 144.286 174.224 143.125C152.944 141.014 142.276 166.249 142.17 166.505L141.001 169.338L139.831 166.505C139.725 166.249 129.055 141.014 107.776 143.125Z" fill="#F24822"/>
<g style="mix-blend-mode:lighten">
<rect x="78" y="138" width="63" height="121" fill="white" fill-opacity="0.2"/>
</g>
<path d="M21.2773 55H17.6445V30.918L10.3594 33.5937V30.3125L20.7109 26.4258H21.2773V55ZM49.6953 42.8711C49.6953 47.1029 48.9727 50.2474 47.5273 52.3047C46.082 54.362 43.8229 55.3906 40.75 55.3906C37.7161 55.3906 35.4701 54.388 34.0117 52.3828C32.5534 50.3646 31.7982 47.3568 31.7461 43.3594V38.5352C31.7461 34.3555 32.4687 31.25 33.9141 29.2187C35.3594 27.1875 37.625 26.1719 40.7109 26.1719C43.7708 26.1719 46.0234 27.1549 47.4687 29.1211C48.9141 31.0742 49.6562 34.0951 49.6953 38.1836V42.8711ZM46.082 37.9297C46.082 34.8698 45.6523 32.6432 44.793 31.25C43.9336 29.8437 42.5729 29.1406 40.7109 29.1406C38.862 29.1406 37.5143 29.8372 36.668 31.2305C35.8216 32.6237 35.3854 34.7656 35.3594 37.6562V43.4375C35.3594 46.5104 35.8021 48.7825 36.6875 50.2539C37.5859 51.7122 38.9401 52.4414 40.75 52.4414C42.5339 52.4414 43.8555 51.7513 44.7148 50.3711C45.5872 48.9909 46.043 46.8164 46.082 43.8477V37.9297Z" fill="#F24822"/>
<path d="M22.908 70.0249C20.5857 70.2549 18.5477 71.856 17.5893 74.2031C17.2954 74.9227 17 75.9783 17 77.3123C17 79.0828 17.5204 81.3437 19.2563 83.9602C23.9351 91.0126 29.0913 91.9375 29.5 92C29.909 91.9375 35.065 91.0125 39.7437 83.9602C41.4794 81.3437 42 79.0827 42 77.3123C42 75.9782 41.7046 74.9226 41.4108 74.2029C40.4523 71.8557 38.4142 70.2548 36.0922 70.0249C31.8699 69.6064 29.7531 74.6079 29.7321 74.6586L29.5002 75.2201L29.2681 74.6586C29.2471 74.6079 27.13 69.6064 22.908 70.0249Z" fill="#F24822"/>
</svg>
