<svg width="282" height="396" viewBox="0 0 282 396" fill="none" xmlns="http://www.w3.org/2000/svg">
<rect x="1" y="1" width="280" height="394" rx="20" fill="white"/>
<rect x="0.5" y="0.5" width="281" height="395" rx="20.5" stroke="black" stroke-opacity="0.05"/>
<path d="M260.723 341H264.355V365.082L271.641 362.406V365.688L261.289 369.574H260.723V341ZM232.305 353.129C232.305 348.897 233.027 345.753 234.473 343.695C235.918 341.638 238.177 340.609 241.25 340.609C244.284 340.609 246.53 341.612 247.988 343.617C249.447 345.635 250.202 348.643 250.254 352.641V357.465C250.254 361.645 249.531 364.75 248.086 366.781C246.641 368.812 244.375 369.828 241.289 369.828C238.229 369.828 235.977 368.845 234.531 366.879C233.086 364.926 232.344 361.905 232.305 357.816V353.129ZM235.918 358.07C235.918 361.13 236.348 363.357 237.207 364.75C238.066 366.156 239.427 366.859 241.289 366.859C243.138 366.859 244.486 366.163 245.332 364.77C246.178 363.376 246.615 361.234 246.641 358.344V352.562C246.641 349.49 246.198 347.217 245.312 345.746C244.414 344.288 243.06 343.559 241.25 343.559C239.466 343.559 238.145 344.249 237.285 345.629C236.413 347.009 235.957 349.184 235.918 352.152V358.07Z" fill="#1A1919"/>
<path d="M257.674 321.82L258.158 321.29C263.26 315.709 265.821 312.907 264.765 309.586C264.378 308.37 263.452 307.386 262.157 306.815C260.525 306.095 258.484 306.112 256.832 306.859C256.115 307.182 255.4 307.676 254.764 308.286C254.716 308.331 254.653 308.357 254.586 308.357H254.548C254.463 308.357 254.383 308.314 254.336 308.243C254.288 308.173 254.28 308.083 254.314 308.005L256.118 303.811C256.216 303.582 256.216 303.375 256.118 303.228C256.02 303.081 255.828 303 255.577 303H249.423C249.172 303 248.98 303.081 248.882 303.228C248.784 303.375 248.784 303.582 248.882 303.811L250.686 308.005C250.72 308.083 250.712 308.173 250.664 308.243C250.617 308.314 250.537 308.357 250.452 308.357H250.413C250.347 308.357 250.284 308.331 250.236 308.286C249.6 307.676 248.885 307.182 248.168 306.859C246.516 306.112 244.475 306.095 242.843 306.815C241.548 307.386 240.621 308.37 240.235 309.586C240.077 310.082 240 310.567 240 311.05C240 313.806 242.502 316.542 246.842 321.29L247.326 321.82C249.963 324.706 251.938 326.502 252.5 327C253.062 326.502 255.037 324.706 257.674 321.82Z" fill="#1A1919"/>
<path d="M114.923 164.117L112.485 166.786C86.7676 194.926 73.8598 209.051 79.1833 225.793C81.1324 231.927 85.8003 236.889 92.3274 239.768C100.553 243.396 110.838 243.31 119.169 239.545C122.779 237.913 126.384 235.426 129.59 232.352C129.83 232.122 130.151 231.993 130.485 231.993H130.676C131.108 231.993 131.51 232.208 131.749 232.565C131.987 232.921 132.028 233.373 131.859 233.766L122.765 254.913C122.27 256.065 122.269 257.107 122.764 257.849C123.259 258.591 124.228 259 125.493 259H156.508C157.772 259 158.741 258.592 159.236 257.85C159.731 257.108 159.731 256.065 159.235 254.913L150.141 233.766C149.971 233.373 150.014 232.921 150.252 232.565C150.49 232.208 150.892 231.993 151.324 231.993H151.516C151.85 231.993 152.17 232.122 152.41 232.352C155.617 235.426 159.221 237.913 162.831 239.545C171.161 243.31 181.445 243.396 189.672 239.768C196.199 236.889 200.868 231.927 202.816 225.793C203.611 223.294 204 220.852 204 218.413C204 204.52 191.392 190.724 169.516 166.786L167.076 164.117C153.788 149.565 143.832 140.513 141 138C138.168 140.513 128.212 149.565 114.923 164.117Z" fill="#1A1919"/>
<g style="mix-blend-mode:lighten">
<rect x="78" y="138" width="63" height="121" fill="white" fill-opacity="0.2"/>
</g>
<path d="M21.2773 55H17.6445L17.6445 30.918L10.3594 33.5938V30.3125L20.7109 26.4258H21.2773L21.2773 55ZM49.6953 42.8711C49.6953 47.1029 48.9727 50.2474 47.5273 52.3047C46.082 54.362 43.8229 55.3906 40.75 55.3906C37.7161 55.3906 35.4701 54.388 34.0117 52.3828C32.5534 50.3646 31.7982 47.3568 31.7461 43.3594V38.5352C31.7461 34.3555 32.4688 31.25 33.9141 29.2187C35.3594 27.1875 37.625 26.1719 40.7109 26.1719C43.7708 26.1719 46.0234 27.1549 47.4688 29.1211C48.9141 31.0742 49.6562 34.0951 49.6953 38.1836V42.8711ZM46.082 37.9297C46.082 34.8698 45.6523 32.6432 44.793 31.25C43.9336 29.8437 42.5729 29.1406 40.7109 29.1406C38.862 29.1406 37.5143 29.8372 36.668 31.2305C35.8216 32.6237 35.3854 34.7656 35.3594 37.6562V43.4375C35.3594 46.5104 35.8021 48.7826 36.6875 50.2539C37.5859 51.7122 38.9401 52.4414 40.75 52.4414C42.5339 52.4414 43.8555 51.7513 44.7148 50.3711C45.5872 48.9909 46.043 46.8164 46.082 43.8477V37.9297Z" fill="#1A1919"/>
<path d="M24.3261 74.1802L23.8422 74.7097C18.7396 80.2912 16.1785 83.0928 17.2348 86.4135C17.6215 87.6301 18.5477 88.6143 19.8427 89.1853C21.4749 89.9049 23.5156 89.888 25.1684 89.1412C25.8848 88.8175 26.5999 88.3241 27.2362 87.7145C27.2838 87.6687 27.3473 87.6432 27.4136 87.6432H27.4516C27.5374 87.6432 27.6171 87.6858 27.6644 87.7567C27.7117 87.8274 27.7199 87.9169 27.6863 87.995L25.8819 92.1894C25.7836 92.4179 25.7835 92.6246 25.8817 92.7717C25.9799 92.9189 26.1722 93 26.4231 93H32.5769C32.8278 93 33.0201 92.9191 33.1182 92.7719C33.2164 92.6248 33.2164 92.4179 33.1181 92.1894L31.3137 87.995C31.2801 87.9169 31.2885 87.8273 31.3357 87.7567C31.3829 87.6858 31.4628 87.6432 31.5485 87.6432H31.5865C31.6528 87.6432 31.7162 87.6687 31.7639 87.7145C32.4002 88.3241 33.1152 88.8175 33.8316 89.1412C35.4843 89.888 37.5248 89.9049 39.1571 89.1853C40.4523 88.6143 41.3785 87.6301 41.7651 86.4135C41.9228 85.9178 42 85.4334 42 84.9497C42 82.1941 39.4984 79.4577 35.1579 74.7097L34.6739 74.1802C32.0374 71.2938 30.0619 69.4984 29.5 69C28.9381 69.4984 26.9627 71.2938 24.3261 74.1802Z" fill="#1A1919"/>
</svg>
