<svg width="282" height="396" viewBox="0 0 282 396" fill="none" xmlns="http://www.w3.org/2000/svg">
<rect x="1" y="1" width="280" height="394" rx="20" fill="white"/>
<rect x="0.5" y="0.5" width="281" height="395" rx="20.5" stroke="black" stroke-opacity="0.05"/>
<path d="M256.113 356.977H253.398C251.693 357.003 250.352 357.452 249.375 358.324C248.398 359.197 247.91 360.375 247.91 361.859C247.91 365.193 249.57 366.859 252.891 366.859C254.453 366.859 255.703 366.41 256.641 365.512C257.565 364.626 258.027 363.448 258.027 361.977H261.641C261.641 364.229 260.82 366.098 259.18 367.582C257.526 369.079 255.43 369.828 252.891 369.828C250.208 369.828 248.105 369.118 246.582 367.699C245.059 366.28 244.297 364.307 244.297 361.781C244.297 360.544 244.701 359.346 245.508 358.188C246.302 357.029 247.389 356.163 248.77 355.59C247.207 355.095 246.003 354.275 245.156 353.129C244.297 351.983 243.867 350.583 243.867 348.93C243.867 346.378 244.701 344.353 246.367 342.855C248.034 341.358 250.202 340.609 252.871 340.609C255.54 340.609 257.715 341.332 259.395 342.777C261.061 344.223 261.895 346.13 261.895 348.5H258.262C258.262 347.003 257.773 345.805 256.797 344.906C255.82 344.008 254.512 343.559 252.871 343.559C251.126 343.559 249.792 344.014 248.867 344.926C247.943 345.837 247.48 347.146 247.48 348.852C247.48 350.505 247.988 351.775 249.004 352.66C250.02 353.546 251.484 354.001 253.398 354.027H256.113V356.977Z" fill="#F24822"/>
<path d="M253.18 326.677L262.706 315.824C263.098 315.377 263.098 314.623 262.706 314.176L253.18 303.323C252.998 303.115 252.756 303 252.5 303C252.244 303 252.002 303.115 251.82 303.323L242.294 314.176C241.902 314.623 241.902 315.377 242.294 315.824L251.82 326.677C252.002 326.885 252.244 327 252.5 327C252.756 327 252.998 326.885 253.18 326.677Z" fill="#F24822"/>
<path d="M137.566 139.629L89.4835 194.347C87.5055 196.598 87.5055 200.403 89.4835 202.654L137.566 257.372C138.488 258.422 139.708 259 141 259C142.292 259 143.513 258.422 144.434 257.372L192.517 202.654C194.494 200.403 194.494 196.598 192.517 194.347L144.434 139.629C143.513 138.578 142.292 138 141 138C139.708 138 138.489 138.578 137.566 139.629Z" fill="#F24822"/>
<g style="mix-blend-mode:lighten">
<rect x="78" y="138" width="63" height="121" fill="white" fill-opacity="0.2"/>
</g>
<path d="M25.8867 39.0234H28.6016C30.3073 38.9974 31.6484 38.5482 32.625 37.6758C33.6016 36.8034 34.0898 35.625 34.0898 34.1406C34.0898 30.8073 32.4297 29.1406 29.1094 29.1406C27.5469 29.1406 26.2969 29.5898 25.3594 30.4883C24.4349 31.3737 23.9727 32.5521 23.9727 34.0234H20.3594C20.3594 31.7708 21.1797 29.9023 22.8203 28.418C24.474 26.9206 26.5703 26.1719 29.1094 26.1719C31.7917 26.1719 33.8945 26.8815 35.418 28.3008C36.9414 29.7201 37.7031 31.6927 37.7031 34.2188C37.7031 35.4557 37.2995 36.6536 36.4922 37.8125C35.6979 38.9714 34.6107 39.8372 33.2305 40.4102C34.793 40.9049 35.9974 41.7253 36.8438 42.8711C37.7031 44.0169 38.1328 45.4167 38.1328 47.0703C38.1328 49.6224 37.2995 51.6471 35.6328 53.1445C33.9661 54.6419 31.7982 55.3906 29.1289 55.3906C26.4596 55.3906 24.2852 54.668 22.6055 53.2227C20.9388 51.7773 20.1055 49.8698 20.1055 47.5H23.7383C23.7383 48.9974 24.2266 50.1953 25.2031 51.0938C26.1797 51.9922 27.4883 52.4414 29.1289 52.4414C30.8737 52.4414 32.2083 51.9857 33.1328 51.0742C34.0573 50.1628 34.5195 48.8542 34.5195 47.1484C34.5195 45.4948 34.0117 44.2253 32.9961 43.3398C31.9805 42.4544 30.5156 41.9987 28.6016 41.9727H25.8867V39.0234Z" fill="#F24822"/>
<path d="M28.8196 69.3231L19.2939 80.1763C18.902 80.6228 18.902 81.3774 19.2939 81.8239L28.8196 92.6771C29.0023 92.8853 29.244 93 29.5 93C29.756 93 29.9978 92.8853 30.1804 92.6771L39.7062 81.8239C40.0979 81.3774 40.0979 80.6228 39.7062 80.1763L30.1804 69.3231C29.9978 69.1147 29.756 69 29.5 69C29.244 69 29.0025 69.1147 28.8196 69.3231Z" fill="#F24822"/>
</svg>
