<svg width="282" height="396" viewBox="0 0 282 396" fill="none" xmlns="http://www.w3.org/2000/svg">
<rect x="1" y="1" width="280" height="394" rx="20" fill="white"/>
<rect x="0.5" y="0.5" width="281" height="395" rx="20.5" stroke="black" stroke-opacity="0.05"/>
<path d="M256.113 356.977H253.398C251.693 357.003 250.352 357.452 249.375 358.324C248.398 359.197 247.91 360.375 247.91 361.859C247.91 365.193 249.57 366.859 252.891 366.859C254.453 366.859 255.703 366.41 256.641 365.512C257.565 364.626 258.027 363.448 258.027 361.977H261.641C261.641 364.229 260.82 366.098 259.18 367.582C257.526 369.079 255.43 369.828 252.891 369.828C250.208 369.828 248.105 369.118 246.582 367.699C245.059 366.28 244.297 364.307 244.297 361.781C244.297 360.544 244.701 359.346 245.508 358.188C246.302 357.029 247.389 356.163 248.77 355.59C247.207 355.095 246.003 354.275 245.156 353.129C244.297 351.983 243.867 350.583 243.867 348.93C243.867 346.378 244.701 344.353 246.367 342.855C248.034 341.358 250.202 340.609 252.871 340.609C255.54 340.609 257.715 341.332 259.395 342.777C261.061 344.223 261.895 346.13 261.895 348.5H258.262C258.262 347.003 257.773 345.805 256.797 344.906C255.82 344.008 254.512 343.559 252.871 343.559C251.126 343.559 249.792 344.014 248.867 344.926C247.943 345.837 247.48 347.146 247.48 348.852C247.48 350.505 247.988 351.775 249.004 352.66C250.02 353.546 251.484 354.001 253.398 354.027H256.113V356.977Z" fill="#F24822"/>
<path d="M259.092 325.975C261.414 325.745 263.452 324.144 264.411 321.797C264.705 321.077 265 320.022 265 318.688C265 316.917 264.48 314.656 262.744 312.04C258.065 304.987 252.909 304.063 252.5 304C252.091 304.063 246.935 304.987 242.256 312.04C240.521 314.656 240 316.917 240 318.688C240 320.022 240.295 321.077 240.589 321.797C241.548 324.144 243.586 325.745 245.908 325.975C250.13 326.394 252.247 321.392 252.268 321.341L252.5 320.78L252.732 321.341C252.753 321.392 254.87 326.394 259.092 325.975Z" fill="#F24822"/>
<path d="M107.776 143.125C96.0719 144.286 85.8005 152.365 80.9701 164.207C79.4887 167.837 78 173.163 78 179.894C78 188.827 80.623 200.234 89.3718 213.436C112.953 249.018 138.94 253.685 141 254C143.061 253.685 169.048 249.018 192.628 213.436C201.376 200.234 204 188.826 204 179.894C204 173.163 202.511 167.837 201.03 164.206C196.199 152.363 185.928 144.286 174.224 143.125C152.944 141.014 142.276 166.249 142.17 166.505L141.001 169.338L139.831 166.505C139.725 166.249 129.055 141.014 107.776 143.125Z" fill="#F24822"/>
<g style="mix-blend-mode:lighten">
<rect x="78" y="138" width="63" height="121" fill="white" fill-opacity="0.2"/>
</g>
<path d="M25.8867 39.0234H28.6016C30.3073 38.9974 31.6484 38.5482 32.625 37.6758C33.6016 36.8034 34.0898 35.625 34.0898 34.1406C34.0898 30.8073 32.4297 29.1406 29.1094 29.1406C27.5469 29.1406 26.2969 29.5898 25.3594 30.4883C24.4349 31.3737 23.9727 32.5521 23.9727 34.0234H20.3594C20.3594 31.7708 21.1797 29.9023 22.8203 28.418C24.474 26.9206 26.5703 26.1719 29.1094 26.1719C31.7917 26.1719 33.8945 26.8815 35.418 28.3008C36.9414 29.7201 37.7031 31.6927 37.7031 34.2187C37.7031 35.4557 37.2995 36.6536 36.4922 37.8125C35.6979 38.9714 34.6107 39.8372 33.2305 40.4102C34.793 40.9049 35.9974 41.7253 36.8437 42.8711C37.7031 44.0169 38.1328 45.4167 38.1328 47.0703C38.1328 49.6224 37.2995 51.6471 35.6328 53.1445C33.9661 54.6419 31.7982 55.3906 29.1289 55.3906C26.4596 55.3906 24.2852 54.668 22.6055 53.2227C20.9388 51.7773 20.1055 49.8698 20.1055 47.5H23.7383C23.7383 48.9974 24.2266 50.1953 25.2031 51.0937C26.1797 51.9922 27.4883 52.4414 29.1289 52.4414C30.8737 52.4414 32.2083 51.9857 33.1328 51.0742C34.0573 50.1628 34.5195 48.8542 34.5195 47.1484C34.5195 45.4948 34.0117 44.2253 32.9961 43.3398C31.9805 42.4544 30.5156 41.9987 28.6016 41.9727H25.8867V39.0234Z" fill="#F24822"/>
<path d="M22.908 70.0249C20.5857 70.2549 18.5477 71.856 17.5893 74.2031C17.2954 74.9227 17 75.9783 17 77.3123C17 79.0828 17.5204 81.3437 19.2563 83.9602C23.9351 91.0126 29.0913 91.9375 29.5 92C29.909 91.9375 35.065 91.0125 39.7437 83.9602C41.4794 81.3437 42 79.0827 42 77.3123C42 75.9782 41.7046 74.9226 41.4108 74.2029C40.4523 71.8557 38.4142 70.2548 36.0922 70.0249C31.8699 69.6064 29.7531 74.6079 29.7321 74.6586L29.5002 75.2201L29.2681 74.6586C29.2471 74.6079 27.13 69.6064 22.908 70.0249Z" fill="#F24822"/>
</svg>
