<svg width="282" height="396" viewBox="0 0 282 396" fill="none" xmlns="http://www.w3.org/2000/svg">
<rect x="1" y="1" width="280" height="394" rx="20" fill="white"/>
<rect x="0.5" y="0.5" width="281" height="395" rx="20.5" stroke="black" stroke-opacity="0.05"/>
<path d="M256.113 356.977H253.398C251.693 357.003 250.352 357.452 249.375 358.324C248.398 359.197 247.91 360.375 247.91 361.859C247.91 365.193 249.57 366.859 252.891 366.859C254.453 366.859 255.703 366.41 256.641 365.512C257.565 364.626 258.027 363.448 258.027 361.977H261.641C261.641 364.229 260.82 366.098 259.18 367.582C257.526 369.079 255.43 369.828 252.891 369.828C250.208 369.828 248.105 369.118 246.582 367.699C245.059 366.28 244.297 364.307 244.297 361.781C244.297 360.544 244.701 359.346 245.508 358.188C246.302 357.029 247.389 356.163 248.77 355.59C247.207 355.095 246.003 354.275 245.156 353.129C244.297 351.983 243.867 350.583 243.867 348.93C243.867 346.378 244.701 344.353 246.367 342.855C248.034 341.358 250.202 340.609 252.871 340.609C255.54 340.609 257.715 341.332 259.395 342.777C261.061 344.223 261.895 346.13 261.895 348.5H258.262C258.262 347.003 257.773 345.805 256.797 344.906C255.82 344.008 254.512 343.559 252.871 343.559C251.126 343.559 249.792 344.014 248.867 344.926C247.943 345.837 247.48 347.146 247.48 348.852C247.48 350.505 247.988 351.775 249.004 352.66C250.02 353.546 251.484 354.001 253.398 354.027H256.113V356.977Z" fill="#1A1919"/>
<path d="M258.299 321.276C258.299 320.284 258.046 319.218 257.567 318.194C257.529 318.113 257.538 318.019 257.589 317.946C257.641 317.872 257.728 317.831 257.818 317.838C259.195 317.941 260.56 317.717 261.662 317.207C263.064 316.558 264.126 315.408 264.652 313.971C265.178 312.533 265.106 310.979 264.448 309.595C263.79 308.21 262.625 307.162 261.168 306.643C259.712 306.123 258.137 306.195 256.735 306.844C256.04 307.166 255.345 307.657 254.728 308.265C254.641 308.35 254.506 308.362 254.405 308.295C254.304 308.227 254.265 308.098 254.313 307.988L256.117 303.808C256.215 303.58 256.215 303.374 256.117 303.227C256.019 303.081 255.827 303 255.576 303H249.424C249.173 303 248.981 303.081 248.883 303.227C248.785 303.374 248.785 303.58 248.883 303.808L250.687 307.988C250.735 308.098 250.696 308.227 250.595 308.295C250.494 308.362 250.359 308.35 250.272 308.265C249.655 307.658 248.96 307.166 248.265 306.844C246.862 306.195 245.288 306.123 243.831 306.643C242.375 307.162 241.21 308.211 240.552 309.595C239.894 310.979 239.822 312.533 240.348 313.971C240.874 315.408 241.936 316.558 243.338 317.207C244.44 317.717 245.805 317.941 247.182 317.838C247.272 317.831 247.359 317.872 247.411 317.946C247.462 318.019 247.471 318.113 247.433 318.194C246.954 319.218 246.701 320.284 246.701 321.276C246.701 324.432 249.303 327 252.5 327C255.697 327 258.299 324.432 258.299 321.276Z" fill="#1A1919"/>
<path d="M111.774 166.857C111.774 171.86 113.049 177.233 115.461 182.395C115.652 182.803 115.61 183.281 115.35 183.65C115.09 184.02 114.651 184.226 114.197 184.191C107.256 183.672 100.377 184.801 94.8255 187.372C87.7588 190.645 82.4065 196.441 79.7539 203.689C77.1018 210.939 77.4673 218.774 80.7832 225.751C84.0994 232.731 89.969 238.015 97.3112 240.634C104.653 243.253 112.588 242.893 119.654 239.619C123.16 237.995 126.659 235.519 129.773 232.457C130.209 232.029 130.891 231.966 131.401 232.306C131.91 232.647 132.104 233.296 131.862 233.854L122.772 254.928C122.277 256.076 122.276 257.116 122.771 257.854C123.266 258.593 124.234 259 125.498 259H156.502C157.766 259 158.735 258.593 159.229 257.854C159.724 257.115 159.723 256.075 159.228 254.928L150.138 233.854C149.897 233.296 150.09 232.646 150.6 232.306C151.109 231.966 151.791 232.029 152.227 232.457C155.341 235.518 158.84 237.995 162.346 239.619C169.414 242.894 177.349 243.254 184.69 240.634C192.032 238.015 197.901 232.73 201.217 225.751C204.533 218.774 204.899 210.939 202.245 203.689C199.593 196.441 194.241 190.645 187.174 187.372C181.623 184.801 174.744 183.672 167.803 184.191C167.349 184.226 166.91 184.021 166.651 183.65C166.39 183.281 166.348 182.803 166.539 182.395C168.951 177.232 170.226 171.859 170.226 166.857C170.226 150.945 157.115 138 141 138C124.885 138 111.774 150.945 111.774 166.857Z" fill="#1A1919"/>
<g style="mix-blend-mode:lighten">
<rect x="78" y="138" width="63" height="121" fill="white" fill-opacity="0.2"/>
</g>
<path d="M25.8867 39.0234H28.6016C30.3073 38.9974 31.6484 38.5482 32.625 37.6758C33.6016 36.8034 34.0898 35.625 34.0898 34.1406C34.0898 30.8073 32.4297 29.1406 29.1094 29.1406C27.5469 29.1406 26.2969 29.5898 25.3594 30.4883C24.4349 31.3737 23.9727 32.5521 23.9727 34.0234H20.3594C20.3594 31.7708 21.1797 29.9023 22.8203 28.418C24.474 26.9206 26.5703 26.1719 29.1094 26.1719C31.7917 26.1719 33.8945 26.8815 35.418 28.3008C36.9414 29.7201 37.7031 31.6927 37.7031 34.2188C37.7031 35.4557 37.2995 36.6536 36.4922 37.8125C35.6979 38.9714 34.6107 39.8372 33.2305 40.4102C34.793 40.9049 35.9974 41.7253 36.8438 42.8711C37.7031 44.0169 38.1328 45.4167 38.1328 47.0703C38.1328 49.6224 37.2995 51.6471 35.6328 53.1445C33.9661 54.6419 31.7982 55.3906 29.1289 55.3906C26.4596 55.3906 24.2852 54.668 22.6055 53.2227C20.9388 51.7773 20.1055 49.8698 20.1055 47.5H23.7383C23.7383 48.9974 24.2266 50.1953 25.2031 51.0938C26.1797 51.9922 27.4883 52.4414 29.1289 52.4414C30.8737 52.4414 32.2083 51.9857 33.1328 51.0742C34.0573 50.1628 34.5195 48.8542 34.5195 47.1484C34.5195 45.4948 34.0117 44.2253 32.9961 43.3398C31.9805 42.4544 30.5156 41.9987 28.6016 41.9727H25.8867V39.0234Z" fill="#1A1919"/>
<path d="M23.7012 74.7236C23.7012 75.716 23.9542 76.7818 24.4328 77.8055C24.4706 77.8865 24.4623 77.9813 24.4107 78.0545C24.3591 78.1279 24.272 78.1688 24.1819 78.1619C22.8048 78.0589 21.4398 78.2828 20.3384 78.7928C18.9363 79.4421 17.8743 80.5915 17.348 82.0292C16.8218 83.4671 16.8943 85.0212 17.5522 86.4052C18.2102 87.7896 19.3748 88.8377 20.8316 89.3572C22.2883 89.8766 23.8627 89.8052 25.2647 89.1558C25.9602 88.8337 26.6545 88.3425 27.2724 87.7352C27.3589 87.6504 27.4942 87.6379 27.5954 87.7053C27.6964 87.773 27.7349 87.9016 27.6869 88.0124L25.8833 92.1923C25.7851 92.42 25.7849 92.6262 25.8832 92.7726C25.9813 92.9192 26.1734 93 26.4243 93H32.5758C32.8267 93 33.0188 92.9192 33.1169 92.7726C33.215 92.626 33.2149 92.4198 33.1167 92.1923L31.3132 88.0124C31.2652 87.9016 31.3036 87.7728 31.4048 87.7053C31.5058 87.6379 31.6411 87.6504 31.7276 87.7352C32.3454 88.3423 33.0396 88.8337 33.7353 89.1558C35.1376 89.8054 36.712 89.8768 38.1687 89.3572C39.6254 88.8377 40.79 87.7894 41.4477 86.4052C42.1057 85.0212 42.1783 83.4671 41.6518 82.0292C41.1256 80.5915 40.0637 79.4421 38.6615 78.7928C37.5602 78.2828 36.1953 78.0589 34.8181 78.1619C34.7279 78.1688 34.6409 78.128 34.5895 78.0545C34.5378 77.9813 34.5294 77.8865 34.5672 77.8055C35.0458 76.7816 35.2989 75.7158 35.2989 74.7236C35.2989 71.5675 32.6974 69 29.5 69C26.3025 69 23.7012 71.5675 23.7012 74.7236Z" fill="#1A1919"/>
</svg>
