<svg width="282" height="396" viewBox="0 0 282 396" fill="none" xmlns="http://www.w3.org/2000/svg">
<rect x="1" y="1" width="280" height="394" rx="20" fill="white"/>
<rect x="0.5" y="0.5" width="281" height="395" rx="20.5" stroke="black" stroke-opacity="0.05"/>
<path d="M256.113 356.977H253.398C251.693 357.003 250.352 357.452 249.375 358.324C248.398 359.197 247.91 360.375 247.91 361.859C247.91 365.193 249.57 366.859 252.891 366.859C254.453 366.859 255.703 366.41 256.641 365.512C257.565 364.626 258.027 363.448 258.027 361.977H261.641C261.641 364.229 260.82 366.098 259.18 367.582C257.526 369.079 255.43 369.828 252.891 369.828C250.208 369.828 248.105 369.118 246.582 367.699C245.059 366.28 244.297 364.307 244.297 361.781C244.297 360.544 244.701 359.346 245.508 358.188C246.302 357.029 247.389 356.163 248.77 355.59C247.207 355.095 246.003 354.275 245.156 353.129C244.297 351.983 243.867 350.583 243.867 348.93C243.867 346.378 244.701 344.353 246.367 342.855C248.034 341.358 250.202 340.609 252.871 340.609C255.54 340.609 257.715 341.332 259.395 342.777C261.061 344.223 261.895 346.13 261.895 348.5H258.262C258.262 347.003 257.773 345.805 256.797 344.906C255.82 344.008 254.512 343.559 252.871 343.559C251.126 343.559 249.792 344.014 248.867 344.926C247.943 345.837 247.48 347.146 247.48 348.852C247.48 350.505 247.988 351.775 249.004 352.66C250.02 353.546 251.484 354.001 253.398 354.027H256.113V356.977Z" fill="#1A1919"/>
<path d="M257.674 321.82L258.158 321.29C263.26 315.709 265.821 312.907 264.765 309.586C264.378 308.37 263.452 307.386 262.157 306.815C260.525 306.095 258.484 306.112 256.832 306.859C256.115 307.182 255.4 307.676 254.764 308.286C254.716 308.331 254.653 308.357 254.586 308.357H254.548C254.463 308.357 254.383 308.314 254.336 308.243C254.288 308.173 254.28 308.083 254.314 308.005L256.118 303.811C256.216 303.582 256.216 303.375 256.118 303.228C256.02 303.081 255.828 303 255.577 303H249.423C249.172 303 248.98 303.081 248.882 303.228C248.784 303.375 248.784 303.582 248.882 303.811L250.686 308.005C250.72 308.083 250.712 308.173 250.664 308.243C250.617 308.314 250.537 308.357 250.452 308.357H250.413C250.347 308.357 250.284 308.331 250.236 308.286C249.6 307.676 248.885 307.182 248.168 306.859C246.516 306.112 244.475 306.095 242.843 306.815C241.548 307.386 240.621 308.37 240.235 309.586C240.077 310.082 240 310.567 240 311.05C240 313.806 242.502 316.542 246.842 321.29L247.326 321.82C249.963 324.706 251.938 326.502 252.5 327C253.062 326.502 255.037 324.706 257.674 321.82Z" fill="#1A1919"/>
<path d="M114.923 164.117L112.485 166.786C86.7676 194.926 73.8598 209.051 79.1833 225.793C81.1324 231.927 85.8003 236.889 92.3274 239.768C100.553 243.396 110.838 243.31 119.169 239.545C122.779 237.913 126.384 235.426 129.59 232.352C129.83 232.122 130.151 231.993 130.485 231.993H130.676C131.108 231.993 131.51 232.208 131.749 232.565C131.987 232.921 132.028 233.373 131.859 233.766L122.765 254.913C122.27 256.065 122.269 257.107 122.764 257.849C123.259 258.591 124.228 259 125.493 259H156.508C157.772 259 158.741 258.592 159.236 257.85C159.731 257.108 159.731 256.065 159.235 254.913L150.141 233.766C149.971 233.373 150.014 232.921 150.252 232.565C150.49 232.208 150.892 231.993 151.324 231.993H151.516C151.85 231.993 152.17 232.122 152.41 232.352C155.617 235.426 159.221 237.913 162.831 239.545C171.161 243.31 181.445 243.396 189.672 239.768C196.199 236.889 200.868 231.927 202.816 225.793C203.611 223.294 204 220.852 204 218.413C204 204.52 191.392 190.724 169.516 166.786L167.076 164.117C153.788 149.565 143.832 140.513 141 138C138.168 140.513 128.212 149.565 114.923 164.117Z" fill="#1A1919"/>
<g style="mix-blend-mode:lighten">
<rect x="78" y="138" width="63" height="121" fill="white" fill-opacity="0.2"/>
</g>
<path d="M25.8867 39.0234H28.6016C30.3073 38.9974 31.6484 38.5482 32.625 37.6758C33.6016 36.8034 34.0898 35.625 34.0898 34.1406C34.0898 30.8073 32.4297 29.1406 29.1094 29.1406C27.5469 29.1406 26.2969 29.5898 25.3594 30.4883C24.4349 31.3737 23.9727 32.5521 23.9727 34.0234H20.3594C20.3594 31.7708 21.1797 29.9023 22.8203 28.418C24.474 26.9206 26.5703 26.1719 29.1094 26.1719C31.7917 26.1719 33.8945 26.8815 35.418 28.3008C36.9414 29.7201 37.7031 31.6927 37.7031 34.2188C37.7031 35.4557 37.2995 36.6536 36.4922 37.8125C35.6979 38.9714 34.6107 39.8372 33.2305 40.4102C34.793 40.9049 35.9974 41.7253 36.8438 42.8711C37.7031 44.0169 38.1328 45.4167 38.1328 47.0703C38.1328 49.6224 37.2995 51.6471 35.6328 53.1445C33.9661 54.6419 31.7982 55.3906 29.1289 55.3906C26.4596 55.3906 24.2852 54.668 22.6055 53.2227C20.9388 51.7773 20.1055 49.8698 20.1055 47.5H23.7383C23.7383 48.9974 24.2266 50.1953 25.2031 51.0938C26.1797 51.9922 27.4883 52.4414 29.1289 52.4414C30.8737 52.4414 32.2083 51.9857 33.1328 51.0742C34.0573 50.1628 34.5195 48.8542 34.5195 47.1484C34.5195 45.4948 34.0117 44.2253 32.9961 43.3398C31.9805 42.4544 30.5156 41.9987 28.6016 41.9727H25.8867V39.0234Z" fill="#1A1919"/>
<path d="M24.3261 74.1802L23.8422 74.7097C18.7396 80.2912 16.1785 83.0928 17.2348 86.4135C17.6215 87.6301 18.5477 88.6143 19.8427 89.1853C21.4749 89.9049 23.5156 89.888 25.1684 89.1412C25.8848 88.8175 26.5999 88.3241 27.2362 87.7145C27.2838 87.6687 27.3473 87.6432 27.4136 87.6432H27.4516C27.5374 87.6432 27.6171 87.6858 27.6644 87.7567C27.7117 87.8274 27.7199 87.9169 27.6863 87.995L25.8819 92.1894C25.7836 92.4179 25.7835 92.6246 25.8817 92.7717C25.9799 92.9189 26.1722 93 26.4231 93H32.5769C32.8278 93 33.0201 92.9191 33.1182 92.7719C33.2164 92.6248 33.2164 92.4179 33.1181 92.1894L31.3137 87.995C31.2801 87.9169 31.2885 87.8273 31.3357 87.7567C31.3829 87.6858 31.4628 87.6432 31.5485 87.6432H31.5865C31.6528 87.6432 31.7162 87.6687 31.7639 87.7145C32.4002 88.3241 33.1152 88.8175 33.8316 89.1412C35.4843 89.888 37.5248 89.9049 39.1571 89.1853C40.4523 88.6143 41.3785 87.6301 41.7651 86.4135C41.9228 85.9178 42 85.4334 42 84.9497C42 82.1941 39.4984 79.4577 35.1579 74.7097L34.6739 74.1802C32.0374 71.2938 30.0619 69.4984 29.5 69C28.9381 69.4984 26.9627 71.2938 24.3261 74.1802Z" fill="#1A1919"/>
</svg>
