<svg width="282" height="396" viewBox="0 0 282 396" fill="none" xmlns="http://www.w3.org/2000/svg">
<rect x="1" y="1" width="280" height="394" rx="20" fill="white"/>
<rect x="0.5" y="0.5" width="281" height="395" rx="20.5" stroke="black" stroke-opacity="0.05"/>
<path d="M242.734 341H261.367V343.598L251.523 354.535C250.065 356.189 249.063 357.53 248.516 358.559C247.956 359.6 247.676 360.674 247.676 361.781C247.676 363.266 248.125 364.483 249.023 365.434C249.922 366.384 251.12 366.859 252.617 366.859C254.414 366.859 255.814 366.345 256.816 365.316C257.806 364.301 258.301 362.882 258.301 361.059H261.914C261.914 363.676 261.074 365.792 259.395 367.406C257.702 369.021 255.443 369.828 252.617 369.828C249.974 369.828 247.884 369.132 246.348 367.738C244.811 366.358 244.043 364.516 244.043 362.211C244.043 359.411 245.827 356.078 249.395 352.211L257.012 343.949H242.734V341Z" fill="#F24822"/>
<path d="M259.092 325.975C261.414 325.745 263.452 324.144 264.411 321.797C264.705 321.077 265 320.022 265 318.688C265 316.917 264.48 314.656 262.744 312.04C258.065 304.987 252.909 304.063 252.5 304C252.091 304.063 246.935 304.987 242.256 312.04C240.521 314.656 240 316.917 240 318.688C240 320.022 240.295 321.077 240.589 321.797C241.548 324.144 243.586 325.745 245.908 325.975C250.13 326.394 252.247 321.392 252.268 321.341L252.5 320.78L252.732 321.341C252.753 321.392 254.87 326.394 259.092 325.975Z" fill="#F24822"/>
<path d="M107.776 143.125C96.0719 144.286 85.8005 152.365 80.9701 164.207C79.4887 167.837 78 173.163 78 179.894C78 188.827 80.623 200.234 89.3718 213.436C112.953 249.018 138.94 253.685 141 254C143.061 253.685 169.048 249.018 192.628 213.436C201.376 200.234 204 188.826 204 179.894C204 173.163 202.511 167.837 201.03 164.206C196.199 152.363 185.928 144.286 174.224 143.125C152.944 141.014 142.276 166.249 142.17 166.505L141.001 169.338L139.831 166.505C139.725 166.249 129.055 141.014 107.776 143.125Z" fill="#F24822"/>
<g style="mix-blend-mode:lighten">
<rect x="78" y="138" width="63" height="121" fill="white" fill-opacity="0.2"/>
</g>
<path d="M39.2656 55H20.6328V52.4023L30.4766 41.4648C31.9349 39.8112 32.9375 38.47 33.4844 37.4414C34.0443 36.3997 34.3242 35.3255 34.3242 34.2187C34.3242 32.7344 33.875 31.5169 32.9766 30.5664C32.0781 29.6159 30.8802 29.1406 29.3828 29.1406C27.5859 29.1406 26.1862 29.6549 25.1836 30.6836C24.194 31.6992 23.6992 33.1185 23.6992 34.9414H20.0859C20.0859 32.3242 20.9258 30.2083 22.6055 28.5937C24.2982 26.9792 26.5573 26.1719 29.3828 26.1719C32.026 26.1719 34.1159 26.8685 35.6523 28.2617C37.1888 29.6419 37.957 31.4844 37.957 33.7891C37.957 36.5885 36.1732 39.9219 32.6055 43.7891L24.9883 52.0508H39.2656V55Z" fill="#F24822"/>
<path d="M22.908 70.0249C20.5857 70.2549 18.5477 71.856 17.5893 74.2031C17.2954 74.9227 17 75.9783 17 77.3123C17 79.0828 17.5204 81.3437 19.2563 83.9602C23.9351 91.0126 29.0913 91.9375 29.5 92C29.909 91.9375 35.065 91.0125 39.7437 83.9602C41.4794 81.3437 42 79.0827 42 77.3123C42 75.9782 41.7046 74.9226 41.4108 74.2029C40.4523 71.8557 38.4142 70.2548 36.0922 70.0249C31.8699 69.6064 29.7531 74.6079 29.7321 74.6586L29.5002 75.2201L29.2681 74.6586C29.2471 74.6079 27.13 69.6064 22.908 70.0249Z" fill="#F24822"/>
</svg>
