<svg width="282" height="396" viewBox="0 0 282 396" fill="none" xmlns="http://www.w3.org/2000/svg">
<rect x="1" y="1" width="280" height="394" rx="20" fill="white"/>
<rect x="0.5" y="0.5" width="281" height="395" rx="20.5" stroke="black" stroke-opacity="0.05"/>
<path d="M242.734 341H261.367V343.598L251.523 354.535C250.065 356.189 249.062 357.53 248.516 358.559C247.956 359.6 247.676 360.674 247.676 361.781C247.676 363.266 248.125 364.483 249.023 365.434C249.922 366.384 251.12 366.859 252.617 366.859C254.414 366.859 255.814 366.345 256.816 365.316C257.806 364.301 258.301 362.882 258.301 361.059H261.914C261.914 363.676 261.074 365.792 259.395 367.406C257.702 369.021 255.443 369.828 252.617 369.828C249.974 369.828 247.884 369.132 246.348 367.738C244.811 366.358 244.043 364.516 244.043 362.211C244.043 359.411 245.827 356.078 249.395 352.211L257.012 343.949H242.734V341Z" fill="#F24822"/>
<path d="M253.18 326.677L262.706 315.824C263.098 315.377 263.098 314.623 262.706 314.176L253.18 303.323C252.998 303.115 252.756 303 252.5 303C252.244 303 252.002 303.115 251.82 303.323L242.294 314.176C241.902 314.623 241.902 315.377 242.294 315.824L251.82 326.677C252.002 326.885 252.244 327 252.5 327C252.756 327 252.998 326.885 253.18 326.677Z" fill="#F24822"/>
<path d="M137.566 139.629L89.4835 194.347C87.5055 196.598 87.5055 200.403 89.4835 202.654L137.566 257.372C138.488 258.422 139.708 259 141 259C142.292 259 143.513 258.422 144.434 257.372L192.517 202.654C194.494 200.403 194.494 196.598 192.517 194.347L144.434 139.629C143.513 138.578 142.292 138 141 138C139.708 138 138.489 138.578 137.566 139.629Z" fill="#F24822"/>
<g style="mix-blend-mode:lighten">
<rect x="78" y="138" width="63" height="121" fill="white" fill-opacity="0.2"/>
</g>
<path d="M39.2656 55H20.6328V52.4023L30.4766 41.4648C31.9349 39.8112 32.9375 38.4701 33.4844 37.4414C34.0443 36.3997 34.3242 35.3255 34.3242 34.2188C34.3242 32.7344 33.875 31.5169 32.9766 30.5664C32.0781 29.6159 30.8802 29.1406 29.3828 29.1406C27.5859 29.1406 26.1862 29.6549 25.1836 30.6836C24.194 31.6992 23.6992 33.1185 23.6992 34.9414H20.0859C20.0859 32.3242 20.9258 30.2083 22.6055 28.5938C24.2982 26.9792 26.5573 26.1719 29.3828 26.1719C32.026 26.1719 34.1159 26.8685 35.6523 28.2617C37.1888 29.6419 37.957 31.4844 37.957 33.7891C37.957 36.5885 36.1732 39.9219 32.6055 43.7891L24.9883 52.0508H39.2656V55Z" fill="#F24822"/>
<path d="M28.8196 69.3231L19.2939 80.1763C18.902 80.6228 18.902 81.3774 19.2939 81.8239L28.8196 92.6771C29.0023 92.8853 29.244 93 29.5 93C29.756 93 29.9978 92.8853 30.1804 92.6771L39.7062 81.8239C40.0979 81.3774 40.0979 80.6228 39.7062 80.1763L30.1804 69.3231C29.9978 69.1147 29.756 69 29.5 69C29.244 69 29.0025 69.1147 28.8196 69.3231Z" fill="#F24822"/>
</svg>
